{"glyphs":{"0":{"ha":758,"x_min":0,"x_max":0,"o":"m 378 116 b 192 449 266 116 192 249 b 378 779 192 648 266 779 b 566 449 491 779 566 648 b 378 116 566 249 491 116 z m 42 449 b 378 -15 42 170 176 -15 b 716 449 582 -15 716 170 b 378 909 716 726 582 909 b 42 449 176 909 42 726 z m 290 449 b 378 348 290 394 330 348 b 462 449 423 348 462 394 b 378 548 462 503 423 548 b 290 449 330 548 290 503 z "},"1":{"ha":758,"x_min":0,"x_max":0,"o":"m 129 0 l 660 0 b 693 33 681 0 693 13 l 693 93 b 660 126 693 114 681 126 l 484 126 b 476 134 479 126 476 130 l 476 864 b 443 896 476 884 465 896 l 370 896 b 328 885 355 896 342 893 b 159 826 280 855 221 833 b 130 789 138 822 128 809 l 139 717 b 176 688 141 697 154 684 b 321 737 223 696 278 713 b 330 732 326 740 330 737 l 330 134 b 322 126 330 129 327 126 l 129 126 b 96 93 109 126 96 114 l 96 33 b 129 0 96 13 109 0 z "},"2":{"ha":758,"x_min":0,"x_max":0,"o":"m 116 184 l 116 33 b 149 0 116 13 128 0 l 629 0 b 662 33 649 0 662 13 l 662 93 b 629 126 662 114 649 126 l 269 126 b 261 134 264 126 261 129 l 261 172 b 408 360 261 244 304 292 l 486 413 b 659 684 625 501 659 558 b 395 912 659 821 563 912 b 120 740 258 912 165 842 b 139 697 111 720 119 706 l 213 665 b 258 683 232 657 247 663 b 398 780 289 746 336 780 b 511 682 468 780 511 741 b 381 504 511 607 485 574 l 304 449 b 116 184 183 365 116 294 z "},"3":{"ha":758,"x_min":0,"x_max":0,"o":"m 362 -15 b 674 287 548 -15 674 105 b 446 556 674 437 557 556 l 439 556 b 436 564 433 556 431 561 l 619 742 b 636 783 631 755 636 766 l 636 864 b 604 896 636 884 625 896 l 158 896 b 125 864 138 896 125 884 l 125 803 b 158 770 125 783 136 770 l 457 770 b 461 761 463 770 466 766 l 229 532 b 223 485 215 518 212 503 l 253 442 b 297 429 264 424 278 422 b 372 443 319 438 345 443 b 520 287 455 443 520 386 b 364 112 520 176 456 112 b 231 192 304 112 259 135 b 189 212 222 212 208 218 l 107 186 b 87 144 87 179 78 164 b 362 -15 134 45 231 -15 z "},"4":{"ha":758,"x_min":0,"x_max":0,"o":"m 485 0 l 562 0 b 595 33 582 0 595 13 l 595 210 b 602 217 595 215 597 217 l 665 217 b 698 250 686 217 698 230 l 698 307 b 665 340 698 327 686 340 l 602 340 b 595 347 597 340 595 343 l 595 864 b 562 896 595 884 583 896 l 458 896 b 418 879 442 896 429 891 b 336 763 391 847 362 806 l 83 350 b 72 309 76 337 72 324 l 72 250 b 105 217 72 230 83 217 l 444 217 b 452 210 449 217 452 213 l 452 33 b 485 0 452 13 463 0 z m 225 348 l 443 711 b 452 708 447 717 452 716 l 452 347 b 444 340 452 342 449 340 l 230 340 b 225 348 225 340 222 343 z "},"5":{"ha":758,"x_min":0,"x_max":0,"o":"m 380 -15 b 688 288 559 -15 688 102 b 408 591 688 499 557 591 b 268 558 347 591 304 580 b 259 564 261 556 259 558 l 275 763 b 283 770 275 766 279 770 l 595 770 b 628 803 615 770 628 783 l 628 864 b 595 896 628 884 615 896 l 193 896 b 159 865 173 896 160 886 l 129 510 b 145 468 128 492 133 480 l 198 424 b 244 420 212 413 227 412 b 389 463 289 446 337 463 b 533 288 463 463 533 415 b 380 112 533 183 473 112 b 246 206 321 112 277 139 b 205 226 237 225 223 232 l 122 198 b 102 155 102 192 93 176 b 380 -15 146 52 244 -15 z "},"6":{"ha":758,"x_min":0,"x_max":0,"o":"m 393 -15 b 703 277 573 -15 703 96 b 423 564 703 451 590 564 b 240 475 365 564 290 542 b 231 479 235 470 230 471 b 410 784 241 701 303 784 b 532 692 471 784 501 763 b 573 672 539 672 554 665 l 657 699 b 677 741 678 707 686 721 b 410 912 625 856 545 912 b 77 394 163 912 77 713 b 393 -15 77 102 206 -15 z m 235 322 b 418 438 285 410 346 438 b 551 277 497 438 551 375 b 393 112 551 173 487 112 b 232 312 301 112 247 170 b 235 322 232 316 234 318 z "},"7":{"ha":758,"x_min":0,"x_max":0,"o":"m 258 0 l 346 0 b 380 32 366 0 379 10 b 668 735 405 308 426 492 b 686 777 681 747 686 760 l 686 864 b 653 896 686 884 673 896 l 143 896 b 110 864 122 896 110 884 l 110 803 b 143 770 110 783 122 770 l 504 770 b 508 761 510 770 513 766 b 225 34 319 548 241 336 b 258 0 223 13 236 0 z "},"8":{"ha":758,"x_min":0,"x_max":0,"o":"m 369 -15 b 699 241 537 -15 699 37 b 521 470 699 355 620 419 b 523 480 516 472 516 477 b 669 684 631 532 669 585 b 389 912 669 841 529 912 b 96 672 231 912 96 832 b 235 458 96 566 152 505 b 235 448 240 456 240 451 b 67 230 138 402 67 338 b 369 -15 67 56 211 -15 z m 215 232 b 360 393 215 309 264 347 b 372 394 365 395 369 395 b 547 237 477 348 547 314 b 375 105 547 138 470 105 b 215 232 282 105 215 154 z m 247 670 b 386 793 247 747 297 793 b 519 679 466 793 519 750 b 396 532 519 625 492 581 b 386 532 393 530 390 530 b 247 670 306 568 247 609 z "},"9":{"ha":758,"x_min":0,"x_max":0,"o":"m 365 913 b 54 621 184 913 54 802 b 335 333 54 447 168 333 b 518 423 393 333 467 356 b 527 419 523 428 528 427 b 347 114 516 197 455 114 b 226 206 287 114 256 135 b 184 226 218 226 203 232 l 101 198 b 81 157 80 191 72 177 b 347 -14 133 42 212 -14 b 681 504 595 -14 681 184 b 365 913 681 795 552 913 z m 207 621 b 365 785 207 725 270 785 b 525 586 457 785 510 727 b 523 576 525 582 524 580 b 340 460 472 487 412 460 b 207 621 260 460 207 523 z "}," ":{"ha":758,"x_min":0,"x_max":0,"o":""}," ":{"ha":758,"x_min":0,"x_max":0,"o":""},"A":{"ha":758,"x_min":0,"x_max":0,"o":"m 250 731 l 45 37 b 73 0 39 14 51 0 l 146 0 b 183 28 165 0 178 9 l 229 192 b 236 198 230 197 232 198 l 519 198 b 527 192 523 198 525 197 l 573 28 b 610 0 578 10 591 0 l 684 0 b 712 37 707 0 718 14 l 508 729 b 451 872 492 784 471 835 b 413 896 443 889 431 896 l 341 896 b 303 872 323 896 311 889 b 250 731 284 833 265 784 z m 265 327 l 371 715 b 381 715 372 721 380 721 l 490 327 b 484 318 491 321 489 318 l 271 318 b 265 327 266 318 264 321 z "},"À":{"ha":758,"x_min":0,"x_max":0,"o":"m 250 731 l 45 37 b 73 0 39 14 51 0 l 146 0 b 183 28 165 0 178 9 l 229 192 b 236 198 230 197 232 198 l 519 198 b 527 192 523 198 525 197 l 573 28 b 610 0 578 10 591 0 l 684 0 b 712 37 707 0 718 14 l 508 729 b 451 872 492 784 471 835 b 413 896 443 889 431 896 l 341 896 b 303 872 323 896 311 889 b 250 731 284 833 265 784 z m 154 1140 l 278 1024 b 319 1008 289 1013 303 1008 l 410 1008 b 429 1048 438 1008 447 1025 l 337 1162 b 298 1181 327 1174 314 1181 l 170 1181 b 154 1140 141 1181 133 1160 z m 265 327 l 371 715 b 381 715 372 721 380 721 l 490 327 b 484 318 491 321 489 318 l 271 318 b 265 327 266 318 264 321 z "},"Á":{"ha":758,"x_min":0,"x_max":0,"o":"m 250 731 l 45 37 b 73 0 39 14 51 0 l 146 0 b 183 28 165 0 178 9 l 229 192 b 236 198 230 197 232 198 l 519 198 b 527 192 523 198 525 197 l 573 28 b 610 0 578 10 591 0 l 684 0 b 712 37 707 0 718 14 l 508 729 b 451 872 492 784 471 835 b 413 896 443 889 431 896 l 341 896 b 303 872 323 896 311 889 b 250 731 284 833 265 784 z m 265 327 l 371 715 b 381 715 372 721 380 721 l 490 327 b 484 318 491 321 489 318 l 271 318 b 265 327 266 318 264 321 z m 347 1008 l 438 1008 b 480 1024 455 1008 468 1013 l 604 1140 b 587 1181 625 1160 616 1181 l 460 1181 b 420 1162 443 1181 431 1174 l 328 1048 b 347 1008 311 1025 319 1008 z "},"Â":{"ha":758,"x_min":0,"x_max":0,"o":"m 250 731 l 45 37 b 73 0 39 14 51 0 l 146 0 b 183 28 165 0 178 9 l 229 192 b 236 198 230 197 232 198 l 519 198 b 527 192 523 198 525 197 l 573 28 b 610 0 578 10 591 0 l 684 0 b 712 37 707 0 718 14 l 508 729 b 451 872 492 784 471 835 b 413 896 443 889 431 896 l 341 896 b 303 872 323 896 311 889 b 250 731 284 833 265 784 z m 193 1008 l 273 1008 b 313 1023 289 1008 302 1011 l 372 1077 b 383 1077 375 1080 380 1080 l 441 1024 b 482 1008 452 1013 466 1008 l 564 1008 b 582 1048 593 1008 602 1027 l 452 1181 b 412 1197 441 1193 428 1197 l 346 1197 b 306 1181 330 1197 317 1193 l 176 1048 b 193 1008 155 1027 164 1008 z m 265 327 l 371 715 b 381 715 372 721 380 721 l 490 327 b 484 318 491 321 489 318 l 271 318 b 265 327 266 318 264 321 z "},"Ã":{"ha":758,"x_min":0,"x_max":0,"o":"m 250 731 l 45 37 b 73 0 39 14 51 0 l 146 0 b 183 28 165 0 178 9 l 229 192 b 236 198 230 197 232 198 l 519 198 b 527 192 523 198 525 197 l 573 28 b 610 0 578 10 591 0 l 684 0 b 712 37 707 0 718 14 l 508 729 b 451 872 492 784 471 835 b 413 896 443 889 431 896 l 341 896 b 303 872 323 896 311 889 b 250 731 284 833 265 784 z m 187 1001 l 232 1001 b 269 1032 251 1001 263 1011 b 312 1068 278 1058 293 1068 b 468 999 346 1068 391 999 b 612 1153 544 999 597 1043 b 582 1188 616 1176 604 1188 l 537 1188 b 503 1157 516 1188 508 1177 b 462 1119 496 1130 481 1119 b 302 1191 428 1119 372 1191 b 157 1037 222 1191 172 1145 b 187 1001 153 1014 165 1001 z m 265 327 l 371 715 b 381 715 372 721 380 721 l 490 327 b 484 318 491 321 489 318 l 271 318 b 265 327 266 318 264 321 z "},"Ä":{"ha":758,"x_min":0,"x_max":0,"o":"m 250 731 l 45 37 b 73 0 39 14 51 0 l 146 0 b 183 28 165 0 178 9 l 229 192 b 236 198 230 197 232 198 l 519 198 b 527 192 523 198 525 197 l 573 28 b 610 0 578 10 591 0 l 684 0 b 712 37 707 0 718 14 l 508 729 b 451 872 492 784 471 835 b 413 896 443 889 431 896 l 341 896 b 303 872 323 896 311 889 b 250 731 284 833 265 784 z m 140 1090 b 241 990 140 1037 186 990 b 340 1090 294 990 340 1037 b 241 1189 340 1144 294 1189 b 140 1090 186 1189 140 1144 z m 265 327 l 371 715 b 381 715 372 721 380 721 l 490 327 b 484 318 491 321 489 318 l 271 318 b 265 327 266 318 264 321 z m 418 1090 b 519 990 418 1037 463 990 b 617 1090 572 990 617 1037 b 519 1189 617 1144 572 1189 b 418 1090 463 1189 418 1144 z "},"Å":{"ha":758,"x_min":0,"x_max":0,"o":"m 250 731 l 45 37 b 73 0 39 14 51 0 l 146 0 b 183 28 165 0 178 9 l 229 192 b 236 198 230 197 232 198 l 519 198 b 527 192 523 198 525 197 l 573 28 b 610 0 578 10 591 0 l 684 0 b 712 37 707 0 718 14 l 508 729 b 451 872 492 784 471 835 b 413 896 443 889 431 896 l 341 896 b 303 872 323 896 311 889 b 250 731 284 833 265 784 z m 230 1111 b 380 972 230 1032 297 972 b 528 1111 462 972 528 1032 b 380 1247 528 1189 462 1247 b 230 1111 298 1247 230 1189 z m 265 327 l 371 715 b 381 715 372 721 380 721 l 490 327 b 484 318 491 321 489 318 l 271 318 b 265 327 266 318 264 321 z m 326 1111 b 380 1164 326 1141 350 1164 b 432 1111 409 1164 432 1141 b 380 1057 432 1081 409 1057 b 326 1111 350 1057 326 1080 z "},"Ā":{"ha":758,"x_min":0,"x_max":0,"o":"m 250 731 l 45 37 b 73 0 39 14 51 0 l 146 0 b 183 28 165 0 178 9 l 229 192 b 236 198 230 197 232 198 l 519 198 b 527 192 523 198 525 197 l 573 28 b 610 0 578 10 591 0 l 684 0 b 712 37 707 0 718 14 l 508 729 b 451 872 492 784 471 835 b 413 896 443 889 431 896 l 341 896 b 303 872 323 896 311 889 b 250 731 284 833 265 784 z m 210 1008 l 548 1008 b 581 1040 568 1008 581 1019 l 581 1104 b 548 1136 581 1124 569 1136 l 210 1136 b 177 1104 189 1136 177 1125 l 177 1040 b 210 1008 177 1020 189 1008 z m 265 327 l 371 715 b 381 715 372 721 380 721 l 490 327 b 484 318 491 321 489 318 l 271 318 b 265 327 266 318 264 321 z "},"Ă":{"ha":758,"x_min":0,"x_max":0,"o":"m 250 731 l 45 37 b 73 0 39 14 51 0 l 146 0 b 183 28 165 0 178 9 l 229 192 b 236 198 230 197 232 198 l 519 198 b 527 192 523 198 525 197 l 573 28 b 610 0 578 10 591 0 l 684 0 b 712 37 707 0 718 14 l 508 729 b 451 872 492 784 471 835 b 413 896 443 889 431 896 l 341 896 b 303 872 323 896 311 889 b 250 731 284 833 265 784 z m 164 1144 b 379 990 192 1038 282 990 b 592 1144 473 990 563 1038 b 563 1181 598 1167 586 1181 l 499 1181 b 462 1153 480 1181 470 1170 b 380 1107 448 1121 420 1107 b 294 1152 336 1107 307 1121 b 259 1181 287 1170 278 1181 l 194 1181 b 164 1144 172 1181 159 1167 z m 265 327 l 371 715 b 381 715 372 721 380 721 l 490 327 b 484 318 491 321 489 318 l 271 318 b 265 327 266 318 264 321 z "},"Ą":{"ha":758,"x_min":0,"x_max":0,"o":"m 250 731 l 45 37 b 73 0 39 14 51 0 l 146 0 b 183 28 165 0 178 9 l 229 192 b 236 198 230 197 232 198 l 519 198 b 527 192 523 198 525 197 l 573 28 b 588 3 577 15 582 6 b 590 -5 592 0 593 -3 b 490 -202 533 -54 490 -124 b 622 -331 490 -292 552 -331 b 701 -316 652 -331 677 -326 b 722 -277 717 -308 723 -294 l 720 -237 b 682 -218 717 -212 705 -210 b 655 -223 673 -222 664 -223 b 616 -170 633 -223 616 -207 b 722 0 616 -122 643 -69 l 723 0 l 716 27 l 508 729 b 451 872 492 784 471 835 b 413 896 443 889 431 896 l 341 896 b 303 872 323 896 311 889 b 250 731 284 833 265 784 z m 265 327 l 371 715 b 381 715 372 721 380 721 l 490 327 b 484 318 491 321 489 318 l 271 318 b 265 327 266 318 264 321 z "},"Ǻ":{"ha":758,"x_min":0,"x_max":0,"o":"m 365 1194 l 426 1194 b 467 1211 442 1194 456 1199 l 561 1298 b 545 1338 582 1318 574 1338 l 457 1338 b 418 1319 441 1338 429 1333 l 346 1235 b 365 1194 328 1213 337 1194 z m 73 0 l 146 0 b 183 28 165 0 178 9 l 229 192 b 236 198 230 197 232 198 l 519 198 b 527 192 523 198 525 197 l 573 28 b 610 0 578 10 591 0 l 684 0 b 712 37 707 0 718 14 l 508 729 b 451 872 492 784 471 835 b 413 896 443 889 431 896 l 341 896 b 303 872 323 896 311 889 b 250 731 284 833 265 784 l 45 37 b 73 0 39 14 51 0 z m 251 1049 b 384 927 251 979 309 927 b 514 1049 457 927 514 980 b 384 1170 514 1120 457 1170 b 251 1049 311 1170 251 1120 z m 265 327 l 371 715 b 381 715 372 721 380 721 l 490 327 b 484 318 491 321 489 318 l 271 318 b 265 327 266 318 264 321 z m 337 1049 b 384 1096 337 1076 357 1096 b 428 1049 408 1096 428 1076 b 384 1004 428 1024 408 1004 b 337 1049 357 1004 337 1023 z "},"B":{"ha":758,"x_min":0,"x_max":0,"o":"m 149 0 l 410 0 b 699 235 600 0 699 74 b 549 471 699 354 645 439 b 548 479 543 473 543 476 b 665 662 628 510 665 572 b 403 896 665 819 572 896 l 149 896 b 116 864 129 896 116 885 l 116 33 b 149 0 116 13 128 0 z m 264 128 l 264 385 b 271 393 264 390 268 393 l 390 393 b 543 240 496 393 543 348 b 389 120 543 154 495 120 l 271 120 b 264 128 266 120 264 122 z m 264 519 l 264 769 b 271 777 264 774 266 777 l 379 777 b 509 657 468 777 509 742 b 400 511 509 569 476 511 l 271 511 b 264 519 266 511 264 514 z "},"C":{"ha":758,"x_min":0,"x_max":0,"o":"m 394 -15 b 682 210 532 -15 628 66 b 663 258 691 234 683 251 l 576 283 b 534 259 556 289 542 280 b 394 116 496 148 444 116 b 223 449 295 116 223 236 b 394 780 223 663 294 780 b 530 626 453 780 500 730 b 571 602 537 605 551 597 l 662 626 b 683 668 683 633 691 646 b 394 912 631 818 556 912 b 68 449 188 912 68 770 b 394 -15 68 136 192 -15 z "},"Ç":{"ha":758,"x_min":0,"x_max":0,"o":"m 372 -347 b 528 -208 452 -347 528 -312 b 402 -76 528 -125 484 -82 b 396 -66 396 -74 394 -71 l 419 -19 b 428 -14 420 -15 423 -14 b 683 216 549 -1 635 81 b 663 258 691 236 683 251 l 576 283 b 534 259 556 289 542 280 b 394 116 496 148 444 116 b 223 449 295 116 223 236 b 394 780 223 663 294 780 b 530 626 453 780 500 730 b 571 602 537 605 551 597 l 662 626 b 683 668 683 633 691 646 b 394 912 631 818 556 912 b 68 449 188 912 68 770 b 321 -9 68 176 163 25 b 326 -18 326 -10 328 -14 l 294 -87 b 295 -131 287 -102 287 -116 b 336 -152 303 -145 316 -152 b 419 -203 403 -149 419 -167 b 376 -251 419 -234 403 -251 b 322 -239 360 -251 341 -246 b 279 -258 302 -231 285 -237 l 268 -293 b 288 -335 261 -313 268 -328 b 372 -347 313 -342 342 -347 z "},"Ć":{"ha":758,"x_min":0,"x_max":0,"o":"m 394 -15 b 682 210 532 -15 628 66 b 663 258 691 234 683 251 l 576 283 b 534 259 556 289 542 280 b 394 116 496 148 444 116 b 223 449 295 116 223 236 b 394 780 223 663 294 780 b 530 626 453 780 500 730 b 571 602 537 605 551 597 l 662 626 b 683 668 683 633 691 646 b 394 912 631 818 556 912 b 68 449 188 912 68 770 b 394 -15 68 136 192 -15 z m 357 1008 l 448 1008 b 490 1024 465 1008 479 1013 l 614 1140 b 597 1181 635 1160 626 1181 l 470 1181 b 431 1162 453 1181 441 1174 l 338 1048 b 357 1008 321 1025 330 1008 z "},"Ĉ":{"ha":758,"x_min":0,"x_max":0,"o":"m 394 -15 b 682 210 532 -15 628 66 b 663 258 691 234 683 251 l 576 283 b 534 259 556 289 542 280 b 394 116 496 148 444 116 b 223 449 295 116 223 236 b 394 780 223 663 294 780 b 530 626 453 780 500 730 b 571 602 537 605 551 597 l 662 626 b 683 668 683 633 691 646 b 394 912 631 818 556 912 b 68 449 188 912 68 770 b 394 -15 68 136 192 -15 z m 203 1008 l 283 1008 b 323 1023 299 1008 312 1011 l 383 1077 b 393 1077 385 1080 390 1080 l 451 1024 b 492 1008 462 1013 476 1008 l 574 1008 b 592 1048 604 1008 612 1027 l 462 1181 b 422 1197 451 1193 438 1197 l 356 1197 b 316 1181 340 1197 327 1193 l 186 1048 b 203 1008 165 1027 174 1008 z "},"Ċ":{"ha":758,"x_min":0,"x_max":0,"o":"m 394 -15 b 682 210 532 -15 628 66 b 663 258 691 234 683 251 l 576 283 b 534 259 556 289 542 280 b 394 116 496 148 444 116 b 223 449 295 116 223 236 b 394 780 223 663 294 780 b 530 626 453 780 500 730 b 571 602 537 605 551 597 l 662 626 b 683 668 683 633 691 646 b 394 912 631 818 556 912 b 68 449 188 912 68 770 b 394 -15 68 136 192 -15 z m 289 1090 b 390 990 289 1037 335 990 b 489 1090 443 990 489 1037 b 390 1189 489 1144 443 1189 b 289 1090 335 1189 289 1144 z "},"Č":{"ha":758,"x_min":0,"x_max":0,"o":"m 394 -15 b 682 210 532 -15 628 66 b 663 258 691 234 683 251 l 576 283 b 534 259 556 289 542 280 b 394 116 496 148 444 116 b 223 449 295 116 223 236 b 394 780 223 663 294 780 b 530 626 453 780 500 730 b 571 602 537 605 551 597 l 662 626 b 683 668 683 633 691 646 b 394 912 631 818 556 912 b 68 449 188 912 68 770 b 394 -15 68 136 192 -15 z m 186 1153 l 316 1020 b 356 1004 327 1008 340 1004 l 422 1004 b 462 1020 438 1004 451 1008 l 592 1153 b 574 1193 612 1174 604 1193 l 495 1193 b 455 1178 479 1193 466 1189 l 395 1124 b 385 1124 393 1121 388 1121 l 327 1177 b 285 1193 316 1188 302 1193 l 203 1193 b 186 1153 174 1193 165 1174 z "},"D":{"ha":758,"x_min":0,"x_max":0,"o":"m 150 0 l 364 0 b 708 448 572 0 708 138 b 364 896 708 760 572 896 l 150 896 b 117 864 130 896 117 885 l 117 33 b 150 0 117 13 129 0 z m 266 134 l 266 763 b 274 770 266 768 269 770 l 346 770 b 552 448 476 770 552 678 b 346 126 552 217 476 126 l 274 126 b 266 134 269 126 266 129 z "},"Ď":{"ha":758,"x_min":0,"x_max":0,"o":"m 150 0 l 364 0 b 708 448 572 0 708 138 b 364 896 708 760 572 896 l 150 896 b 117 864 130 896 117 885 l 117 33 b 150 0 117 13 129 0 z m 163 1153 l 293 1020 b 333 1004 304 1008 317 1004 l 399 1004 b 439 1020 415 1004 428 1008 l 569 1153 b 552 1193 590 1174 581 1193 l 472 1193 b 432 1178 456 1193 443 1189 l 372 1124 b 362 1124 370 1121 365 1121 l 304 1177 b 263 1193 293 1188 279 1193 l 181 1193 b 163 1153 152 1193 143 1174 z m 266 134 l 266 763 b 274 770 266 768 269 770 l 346 770 b 552 448 476 770 552 678 b 346 126 552 217 476 126 l 274 126 b 266 134 269 126 266 129 z "},"E":{"ha":758,"x_min":0,"x_max":0,"o":"m 150 0 l 631 0 b 664 33 652 0 664 13 l 664 93 b 631 126 664 114 653 126 l 274 126 b 266 134 269 126 266 130 l 266 390 b 274 398 266 395 269 398 l 571 398 b 604 431 591 398 604 410 l 604 491 b 571 524 604 511 591 524 l 274 524 b 266 532 269 524 266 527 l 266 763 b 274 770 266 768 269 770 l 631 770 b 664 803 652 770 664 783 l 664 864 b 631 896 664 884 652 896 l 150 896 b 117 864 130 896 117 885 l 117 33 b 150 0 117 13 130 0 z "},"È":{"ha":758,"x_min":0,"x_max":0,"o":"m 150 0 l 631 0 b 664 33 652 0 664 13 l 664 93 b 631 126 664 114 653 126 l 274 126 b 266 134 269 126 266 130 l 266 390 b 274 398 266 395 269 398 l 571 398 b 604 431 591 398 604 410 l 604 491 b 571 524 604 511 591 524 l 274 524 b 266 532 269 524 266 527 l 266 763 b 274 770 266 768 269 770 l 631 770 b 664 803 652 770 664 783 l 664 864 b 631 896 664 884 652 896 l 150 896 b 117 864 130 896 117 885 l 117 33 b 150 0 117 13 130 0 z m 164 1140 l 288 1024 b 330 1008 299 1013 313 1008 l 420 1008 b 439 1048 448 1008 457 1025 l 347 1162 b 308 1181 337 1174 324 1181 l 181 1181 b 164 1140 152 1181 143 1160 z "},"É":{"ha":758,"x_min":0,"x_max":0,"o":"m 150 0 l 631 0 b 664 33 652 0 664 13 l 664 93 b 631 126 664 114 653 126 l 274 126 b 266 134 269 126 266 130 l 266 390 b 274 398 266 395 269 398 l 571 398 b 604 431 591 398 604 410 l 604 491 b 571 524 604 511 591 524 l 274 524 b 266 532 269 524 266 527 l 266 763 b 274 770 266 768 269 770 l 631 770 b 664 803 652 770 664 783 l 664 864 b 631 896 664 884 652 896 l 150 896 b 117 864 130 896 117 885 l 117 33 b 150 0 117 13 130 0 z m 357 1008 l 448 1008 b 490 1024 465 1008 479 1013 l 614 1140 b 597 1181 635 1160 626 1181 l 470 1181 b 431 1162 453 1181 441 1174 l 338 1048 b 357 1008 321 1025 330 1008 z "},"Ê":{"ha":758,"x_min":0,"x_max":0,"o":"m 150 0 l 631 0 b 664 33 652 0 664 13 l 664 93 b 631 126 664 114 653 126 l 274 126 b 266 134 269 126 266 130 l 266 390 b 274 398 266 395 269 398 l 571 398 b 604 431 591 398 604 410 l 604 491 b 571 524 604 511 591 524 l 274 524 b 266 532 269 524 266 527 l 266 763 b 274 770 266 768 269 770 l 631 770 b 664 803 652 770 664 783 l 664 864 b 631 896 664 884 652 896 l 150 896 b 117 864 130 896 117 885 l 117 33 b 150 0 117 13 130 0 z m 203 1008 l 283 1008 b 323 1023 299 1008 312 1011 l 383 1077 b 393 1077 385 1080 390 1080 l 451 1024 b 492 1008 462 1013 476 1008 l 574 1008 b 592 1048 604 1008 612 1027 l 462 1181 b 422 1197 451 1193 438 1197 l 356 1197 b 316 1181 340 1197 327 1193 l 186 1048 b 203 1008 165 1027 174 1008 z "},"Ë":{"ha":758,"x_min":0,"x_max":0,"o":"m 150 0 l 631 0 b 664 33 652 0 664 13 l 664 93 b 631 126 664 114 653 126 l 274 126 b 266 134 269 126 266 130 l 266 390 b 274 398 266 395 269 398 l 571 398 b 604 431 591 398 604 410 l 604 491 b 571 524 604 511 591 524 l 274 524 b 266 532 269 524 266 527 l 266 763 b 274 770 266 768 269 770 l 631 770 b 664 803 652 770 664 783 l 664 864 b 631 896 664 884 652 896 l 150 896 b 117 864 130 896 117 885 l 117 33 b 150 0 117 13 130 0 z m 150 1090 b 251 990 150 1037 196 990 b 350 1090 304 990 350 1037 b 251 1189 350 1144 304 1189 b 150 1090 196 1189 150 1144 z m 428 1090 b 529 990 428 1037 473 990 b 628 1090 582 990 628 1037 b 529 1189 628 1144 582 1189 b 428 1090 473 1189 428 1144 z "},"Ē":{"ha":758,"x_min":0,"x_max":0,"o":"m 150 0 l 631 0 b 664 33 652 0 664 13 l 664 93 b 631 126 664 114 653 126 l 274 126 b 266 134 269 126 266 130 l 266 390 b 274 398 266 395 269 398 l 571 398 b 604 431 591 398 604 410 l 604 491 b 571 524 604 511 591 524 l 274 524 b 266 532 269 524 266 527 l 266 763 b 274 770 266 768 269 770 l 631 770 b 664 803 652 770 664 783 l 664 864 b 631 896 664 884 652 896 l 150 896 b 117 864 130 896 117 885 l 117 33 b 150 0 117 13 130 0 z m 220 1008 l 558 1008 b 591 1040 578 1008 591 1019 l 591 1104 b 558 1136 591 1124 580 1136 l 220 1136 b 187 1104 199 1136 187 1125 l 187 1040 b 220 1008 187 1020 199 1008 z "},"Ĕ":{"ha":758,"x_min":0,"x_max":0,"o":"m 150 0 l 631 0 b 664 33 652 0 664 13 l 664 93 b 631 126 664 114 653 126 l 274 126 b 266 134 269 126 266 130 l 266 390 b 274 398 266 395 269 398 l 571 398 b 604 431 591 398 604 410 l 604 491 b 571 524 604 511 591 524 l 274 524 b 266 532 269 524 266 527 l 266 763 b 274 770 266 768 269 770 l 631 770 b 664 803 652 770 664 783 l 664 864 b 631 896 664 884 652 896 l 150 896 b 117 864 130 896 117 885 l 117 33 b 150 0 117 13 130 0 z m 174 1144 b 389 990 202 1038 292 990 b 602 1144 484 990 573 1038 b 573 1181 609 1167 596 1181 l 509 1181 b 472 1153 490 1181 480 1170 b 390 1107 458 1121 431 1107 b 304 1152 346 1107 317 1121 b 269 1181 297 1170 288 1181 l 205 1181 b 174 1144 182 1181 169 1167 z "},"Ė":{"ha":758,"x_min":0,"x_max":0,"o":"m 150 0 l 631 0 b 664 33 652 0 664 13 l 664 93 b 631 126 664 114 653 126 l 274 126 b 266 134 269 126 266 130 l 266 390 b 274 398 266 395 269 398 l 571 398 b 604 431 591 398 604 410 l 604 491 b 571 524 604 511 591 524 l 274 524 b 266 532 269 524 266 527 l 266 763 b 274 770 266 768 269 770 l 631 770 b 664 803 652 770 664 783 l 664 864 b 631 896 664 884 652 896 l 150 896 b 117 864 130 896 117 885 l 117 33 b 150 0 117 13 130 0 z m 289 1090 b 390 990 289 1037 335 990 b 489 1090 443 990 489 1037 b 390 1189 489 1144 443 1189 b 289 1090 335 1189 289 1144 z "},"Ę":{"ha":758,"x_min":0,"x_max":0,"o":"m 150 0 l 542 0 b 544 -9 548 0 551 -5 b 436 -202 482 -57 436 -126 b 568 -331 436 -292 497 -331 b 646 -316 597 -331 622 -326 b 668 -277 663 -308 669 -294 l 665 -237 b 628 -218 663 -212 650 -210 b 601 -223 619 -222 610 -223 b 562 -170 578 -223 562 -207 b 646 -16 562 -126 583 -78 b 664 24 659 -5 664 8 l 664 93 b 631 126 664 114 653 126 l 274 126 b 266 134 269 126 266 130 l 266 390 b 274 398 266 395 269 398 l 571 398 b 604 431 591 398 604 410 l 604 491 b 571 524 604 511 591 524 l 274 524 b 266 532 269 524 266 527 l 266 763 b 274 770 266 768 269 770 l 631 770 b 664 803 652 770 664 783 l 664 864 b 631 896 664 884 652 896 l 150 896 b 117 864 130 896 117 885 l 117 33 b 150 0 117 13 130 0 z "},"Ě":{"ha":758,"x_min":0,"x_max":0,"o":"m 150 0 l 631 0 b 664 33 652 0 664 13 l 664 93 b 631 126 664 114 653 126 l 274 126 b 266 134 269 126 266 130 l 266 390 b 274 398 266 395 269 398 l 571 398 b 604 431 591 398 604 410 l 604 491 b 571 524 604 511 591 524 l 274 524 b 266 532 269 524 266 527 l 266 763 b 274 770 266 768 269 770 l 631 770 b 664 803 652 770 664 783 l 664 864 b 631 896 664 884 652 896 l 150 896 b 117 864 130 896 117 885 l 117 33 b 150 0 117 13 130 0 z m 186 1153 l 316 1020 b 356 1004 327 1008 340 1004 l 422 1004 b 462 1020 438 1004 451 1008 l 592 1153 b 574 1193 612 1174 604 1193 l 495 1193 b 455 1178 479 1193 466 1189 l 395 1124 b 385 1124 393 1121 388 1121 l 327 1177 b 285 1193 316 1188 302 1193 l 203 1193 b 186 1153 174 1193 165 1174 z "},"F":{"ha":758,"x_min":0,"x_max":0,"o":"m 150 0 l 234 0 b 266 33 254 0 266 13 l 266 367 b 274 375 266 372 270 375 l 591 375 b 624 408 611 375 624 388 l 624 468 b 591 501 624 489 611 501 l 274 501 b 266 509 269 501 266 504 l 266 763 b 274 770 266 768 270 770 l 633 770 b 665 803 653 770 665 783 l 665 864 b 633 896 665 884 654 896 l 150 896 b 117 864 130 896 117 885 l 117 33 b 150 0 117 13 129 0 z "},"G":{"ha":758,"x_min":0,"x_max":0,"o":"m 389 -15 b 708 365 596 -15 708 111 l 708 415 b 676 448 708 436 697 448 l 414 448 b 381 415 394 448 381 436 l 381 355 b 414 322 381 335 393 322 l 551 322 b 558 314 556 322 558 319 b 389 116 553 189 516 116 b 207 449 274 116 207 249 b 388 780 207 649 278 780 b 537 629 465 780 505 727 b 578 606 544 609 558 600 l 673 634 b 694 674 693 640 702 654 b 388 912 641 817 557 912 b 52 449 178 912 52 754 b 389 -15 52 154 179 -15 z "},"Ĝ":{"ha":758,"x_min":0,"x_max":0,"o":"m 389 -15 b 708 365 596 -15 708 111 l 708 415 b 676 448 708 436 697 448 l 414 448 b 381 415 394 448 381 436 l 381 355 b 414 322 381 335 393 322 l 551 322 b 558 314 556 322 558 319 b 389 116 553 189 516 116 b 207 449 274 116 207 249 b 388 780 207 649 278 780 b 537 629 465 780 505 727 b 578 606 544 609 558 600 l 673 634 b 694 674 693 640 702 654 b 388 912 641 817 557 912 b 52 449 178 912 52 754 b 389 -15 52 154 179 -15 z m 199 1008 l 279 1008 b 319 1023 295 1008 308 1011 l 379 1077 b 389 1077 381 1080 386 1080 l 447 1024 b 489 1008 458 1013 472 1008 l 571 1008 b 588 1048 600 1008 609 1027 l 458 1181 b 418 1197 447 1193 434 1197 l 352 1197 b 312 1181 336 1197 323 1193 l 182 1048 b 199 1008 162 1027 170 1008 z "},"Ğ":{"ha":758,"x_min":0,"x_max":0,"o":"m 389 -15 b 708 365 596 -15 708 111 l 708 415 b 676 448 708 436 697 448 l 414 448 b 381 415 394 448 381 436 l 381 355 b 414 322 381 335 393 322 l 551 322 b 558 314 556 322 558 319 b 389 116 553 189 516 116 b 207 449 274 116 207 249 b 388 780 207 649 278 780 b 537 629 465 780 505 727 b 578 606 544 609 558 600 l 673 634 b 694 674 693 640 702 654 b 388 912 641 817 557 912 b 52 449 178 912 52 754 b 389 -15 52 154 179 -15 z m 170 1144 b 385 990 198 1038 288 990 b 598 1144 480 990 569 1038 b 569 1181 605 1167 592 1181 l 505 1181 b 468 1153 486 1181 476 1170 b 386 1107 455 1121 427 1107 b 301 1152 342 1107 313 1121 b 265 1181 293 1170 284 1181 l 201 1181 b 170 1144 178 1181 165 1167 z "},"Ġ":{"ha":758,"x_min":0,"x_max":0,"o":"m 389 -15 b 708 365 596 -15 708 111 l 708 415 b 676 448 708 436 697 448 l 414 448 b 381 415 394 448 381 436 l 381 355 b 414 322 381 335 393 322 l 551 322 b 558 314 556 322 558 319 b 389 116 553 189 516 116 b 207 449 274 116 207 249 b 388 780 207 649 278 780 b 537 629 465 780 505 727 b 578 606 544 609 558 600 l 673 634 b 694 674 693 640 702 654 b 388 912 641 817 557 912 b 52 449 178 912 52 754 b 389 -15 52 154 179 -15 z m 285 1090 b 386 990 285 1037 331 990 b 485 1090 439 990 485 1037 b 386 1189 485 1144 439 1189 b 285 1090 331 1189 285 1144 z "},"Ģ":{"ha":758,"x_min":0,"x_max":0,"o":"m 389 -15 b 708 365 596 -15 708 111 l 708 415 b 676 448 708 436 697 448 l 414 448 b 381 415 394 448 381 436 l 381 355 b 414 322 381 335 393 322 l 551 322 b 558 314 556 322 558 319 b 389 116 553 189 516 116 b 207 449 274 116 207 249 b 388 780 207 649 278 780 b 537 629 465 780 505 727 b 578 606 544 609 558 600 l 673 634 b 694 674 693 640 702 654 b 388 912 641 817 557 912 b 52 449 178 912 52 754 b 389 -15 52 154 179 -15 z m 277 -439 l 303 -467 b 350 -470 317 -482 335 -484 b 481 -220 442 -389 481 -316 b 381 -106 481 -149 436 -106 b 288 -199 330 -106 288 -144 b 350 -283 288 -234 304 -271 b 355 -292 355 -284 357 -287 b 280 -393 345 -328 322 -359 b 277 -439 263 -407 261 -424 z "},"H":{"ha":758,"x_min":0,"x_max":0,"o":"m 548 0 l 629 0 b 662 33 649 0 662 11 l 662 864 b 629 896 662 884 650 896 l 548 896 b 515 864 528 896 515 885 l 515 521 b 508 514 515 516 513 514 l 250 514 b 242 521 245 514 242 516 l 242 864 b 210 896 242 884 231 896 l 129 896 b 96 864 109 896 96 885 l 96 33 b 129 0 96 13 107 0 l 210 0 b 242 33 230 0 242 11 l 242 380 b 250 388 242 385 245 388 l 508 388 b 515 380 513 388 515 385 l 515 33 b 548 0 515 13 527 0 z "},"Ĥ":{"ha":758,"x_min":0,"x_max":0,"o":"m 548 0 l 629 0 b 662 33 649 0 662 11 l 662 864 b 629 896 662 884 650 896 l 548 896 b 515 864 528 896 515 885 l 515 521 b 508 514 515 516 513 514 l 250 514 b 242 521 245 514 242 516 l 242 864 b 210 896 242 884 231 896 l 129 896 b 96 864 109 896 96 885 l 96 33 b 129 0 96 13 107 0 l 210 0 b 242 33 230 0 242 11 l 242 380 b 250 388 242 385 245 388 l 508 388 b 515 380 513 388 515 385 l 515 33 b 548 0 515 13 527 0 z m 193 1008 l 273 1008 b 313 1023 289 1008 302 1011 l 372 1077 b 383 1077 375 1080 380 1080 l 441 1024 b 482 1008 452 1013 466 1008 l 564 1008 b 582 1048 593 1008 602 1027 l 452 1181 b 412 1197 441 1193 428 1197 l 346 1197 b 306 1181 330 1197 317 1193 l 176 1048 b 193 1008 155 1027 164 1008 z "},"I":{"ha":758,"x_min":0,"x_max":0,"o":"m 121 0 l 636 0 b 669 33 657 0 669 13 l 669 91 b 636 124 669 111 657 124 l 460 124 b 452 131 455 124 452 128 l 452 765 b 460 773 452 770 456 773 l 636 773 b 669 806 657 773 669 785 l 669 864 b 636 896 669 884 658 896 l 121 896 b 88 864 101 896 88 884 l 88 806 b 121 773 88 785 101 773 l 298 773 b 306 765 303 773 306 769 l 306 131 b 298 124 306 126 302 124 l 121 124 b 88 91 101 124 88 111 l 88 33 b 121 0 88 13 100 0 z "},"Ì":{"ha":758,"x_min":0,"x_max":0,"o":"m 121 0 l 636 0 b 669 33 657 0 669 13 l 669 91 b 636 124 669 111 657 124 l 460 124 b 452 131 455 124 452 128 l 452 765 b 460 773 452 770 456 773 l 636 773 b 669 806 657 773 669 785 l 669 864 b 636 896 669 884 658 896 l 121 896 b 88 864 101 896 88 884 l 88 806 b 121 773 88 785 101 773 l 298 773 b 306 765 303 773 306 769 l 306 131 b 298 124 306 126 302 124 l 121 124 b 88 91 101 124 88 111 l 88 33 b 121 0 88 13 100 0 z m 154 1140 l 278 1024 b 319 1008 289 1013 303 1008 l 410 1008 b 429 1048 438 1008 447 1025 l 337 1162 b 298 1181 327 1174 314 1181 l 170 1181 b 154 1140 141 1181 133 1160 z "},"Í":{"ha":758,"x_min":0,"x_max":0,"o":"m 121 0 l 636 0 b 669 33 657 0 669 13 l 669 91 b 636 124 669 111 657 124 l 460 124 b 452 131 455 124 452 128 l 452 765 b 460 773 452 770 456 773 l 636 773 b 669 806 657 773 669 785 l 669 864 b 636 896 669 884 658 896 l 121 896 b 88 864 101 896 88 884 l 88 806 b 121 773 88 785 101 773 l 298 773 b 306 765 303 773 306 769 l 306 131 b 298 124 306 126 302 124 l 121 124 b 88 91 101 124 88 111 l 88 33 b 121 0 88 13 100 0 z m 347 1008 l 438 1008 b 480 1024 455 1008 468 1013 l 604 1140 b 587 1181 625 1160 616 1181 l 460 1181 b 420 1162 443 1181 431 1174 l 328 1048 b 347 1008 311 1025 319 1008 z "},"Î":{"ha":758,"x_min":0,"x_max":0,"o":"m 121 0 l 636 0 b 669 33 657 0 669 13 l 669 91 b 636 124 669 111 657 124 l 460 124 b 452 131 455 124 452 128 l 452 765 b 460 773 452 770 456 773 l 636 773 b 669 806 657 773 669 785 l 669 864 b 636 896 669 884 658 896 l 121 896 b 88 864 101 896 88 884 l 88 806 b 121 773 88 785 101 773 l 298 773 b 306 765 303 773 306 769 l 306 131 b 298 124 306 126 302 124 l 121 124 b 88 91 101 124 88 111 l 88 33 b 121 0 88 13 100 0 z m 193 1008 l 273 1008 b 313 1023 289 1008 302 1011 l 372 1077 b 383 1077 375 1080 380 1080 l 441 1024 b 482 1008 452 1013 466 1008 l 564 1008 b 582 1048 593 1008 602 1027 l 452 1181 b 412 1197 441 1193 428 1197 l 346 1197 b 306 1181 330 1197 317 1193 l 176 1048 b 193 1008 155 1027 164 1008 z "},"Ï":{"ha":758,"x_min":0,"x_max":0,"o":"m 121 0 l 636 0 b 669 33 657 0 669 13 l 669 91 b 636 124 669 111 657 124 l 460 124 b 452 131 455 124 452 128 l 452 765 b 460 773 452 770 456 773 l 636 773 b 669 806 657 773 669 785 l 669 864 b 636 896 669 884 658 896 l 121 896 b 88 864 101 896 88 884 l 88 806 b 121 773 88 785 101 773 l 298 773 b 306 765 303 773 306 769 l 306 131 b 298 124 306 126 302 124 l 121 124 b 88 91 101 124 88 111 l 88 33 b 121 0 88 13 100 0 z m 140 1090 b 241 990 140 1037 186 990 b 340 1090 294 990 340 1037 b 241 1189 340 1144 294 1189 b 140 1090 186 1189 140 1144 z m 418 1090 b 519 990 418 1037 463 990 b 617 1090 572 990 617 1037 b 519 1189 617 1144 572 1189 b 418 1090 463 1189 418 1144 z "},"Ĩ":{"ha":758,"x_min":0,"x_max":0,"o":"m 121 0 l 636 0 b 669 33 657 0 669 13 l 669 91 b 636 124 669 111 657 124 l 460 124 b 452 131 455 124 452 128 l 452 765 b 460 773 452 770 456 773 l 636 773 b 669 806 657 773 669 785 l 669 864 b 636 896 669 884 658 896 l 121 896 b 88 864 101 896 88 884 l 88 806 b 121 773 88 785 101 773 l 298 773 b 306 765 303 773 306 769 l 306 131 b 298 124 306 126 302 124 l 121 124 b 88 91 101 124 88 111 l 88 33 b 121 0 88 13 100 0 z m 187 1001 l 232 1001 b 269 1032 251 1001 263 1011 b 312 1068 278 1058 293 1068 b 468 999 346 1068 391 999 b 612 1153 544 999 597 1043 b 582 1188 616 1176 604 1188 l 537 1188 b 503 1157 516 1188 508 1177 b 462 1119 496 1130 481 1119 b 302 1191 428 1119 372 1191 b 157 1037 222 1191 172 1145 b 187 1001 153 1014 165 1001 z "},"Ī":{"ha":758,"x_min":0,"x_max":0,"o":"m 121 0 l 636 0 b 669 33 657 0 669 13 l 669 91 b 636 124 669 111 657 124 l 460 124 b 452 131 455 124 452 128 l 452 765 b 460 773 452 770 456 773 l 636 773 b 669 806 657 773 669 785 l 669 864 b 636 896 669 884 658 896 l 121 896 b 88 864 101 896 88 884 l 88 806 b 121 773 88 785 101 773 l 298 773 b 306 765 303 773 306 769 l 306 131 b 298 124 306 126 302 124 l 121 124 b 88 91 101 124 88 111 l 88 33 b 121 0 88 13 100 0 z m 210 1008 l 548 1008 b 581 1040 568 1008 581 1019 l 581 1104 b 548 1136 581 1124 569 1136 l 210 1136 b 177 1104 189 1136 177 1125 l 177 1040 b 210 1008 177 1020 189 1008 z "},"Ĭ":{"ha":758,"x_min":0,"x_max":0,"o":"m 121 0 l 636 0 b 669 33 657 0 669 13 l 669 91 b 636 124 669 111 657 124 l 460 124 b 452 131 455 124 452 128 l 452 765 b 460 773 452 770 456 773 l 636 773 b 669 806 657 773 669 785 l 669 864 b 636 896 669 884 658 896 l 121 896 b 88 864 101 896 88 884 l 88 806 b 121 773 88 785 101 773 l 298 773 b 306 765 303 773 306 769 l 306 131 b 298 124 306 126 302 124 l 121 124 b 88 91 101 124 88 111 l 88 33 b 121 0 88 13 100 0 z m 164 1144 b 379 990 192 1038 282 990 b 592 1144 473 990 563 1038 b 563 1181 598 1167 586 1181 l 499 1181 b 462 1153 480 1181 470 1170 b 380 1107 448 1121 420 1107 b 294 1152 336 1107 307 1121 b 259 1181 287 1170 278 1181 l 194 1181 b 164 1144 172 1181 159 1167 z "},"Į":{"ha":758,"x_min":0,"x_max":0,"o":"m 121 0 l 312 0 b 316 -9 318 0 321 -4 b 229 -202 265 -61 229 -129 b 362 -331 229 -292 290 -331 b 439 -316 391 -331 417 -326 b 461 -277 456 -308 462 -294 l 458 -237 b 420 -218 456 -212 443 -210 b 394 -223 412 -222 403 -223 b 356 -170 372 -223 356 -207 b 434 -4 356 -121 375 -69 b 443 0 437 -1 439 0 l 636 0 b 669 33 657 0 669 13 l 669 91 b 636 124 669 111 657 124 l 460 124 b 452 131 455 124 452 128 l 452 765 b 460 773 452 770 456 773 l 636 773 b 669 806 657 773 669 785 l 669 864 b 636 896 669 884 658 896 l 121 896 b 88 864 101 896 88 884 l 88 806 b 121 773 88 785 101 773 l 298 773 b 306 765 303 773 306 769 l 306 131 b 298 124 306 126 302 124 l 121 124 b 88 91 101 124 88 111 l 88 33 b 121 0 88 13 101 0 z "},"İ":{"ha":758,"x_min":0,"x_max":0,"o":"m 121 0 l 636 0 b 669 33 657 0 669 13 l 669 91 b 636 124 669 111 657 124 l 460 124 b 452 131 455 124 452 128 l 452 765 b 460 773 452 770 456 773 l 636 773 b 669 806 657 773 669 785 l 669 864 b 636 896 669 884 658 896 l 121 896 b 88 864 101 896 88 884 l 88 806 b 121 773 88 785 101 773 l 298 773 b 306 765 303 773 306 769 l 306 131 b 298 124 306 126 302 124 l 121 124 b 88 91 101 124 88 111 l 88 33 b 121 0 88 13 100 0 z m 279 1090 b 380 990 279 1037 324 990 b 479 1090 433 990 479 1037 b 380 1189 479 1144 433 1189 b 279 1090 324 1189 279 1144 z "},"J":{"ha":758,"x_min":0,"x_max":0,"o":"m 360 -15 b 663 307 557 -15 663 107 l 663 864 b 630 896 663 884 652 896 l 549 896 b 516 864 529 896 516 884 l 516 312 b 360 116 516 196 460 116 b 208 332 282 116 225 178 b 173 362 206 355 194 365 l 88 351 b 58 314 68 348 57 336 b 360 -15 76 87 194 -15 z "},"Ĵ":{"ha":758,"x_min":0,"x_max":0,"o":"m 360 -15 b 663 307 557 -15 663 107 l 663 864 b 630 896 663 884 652 896 l 549 896 b 516 864 529 896 516 884 l 516 312 b 360 116 516 196 460 116 b 208 332 282 116 225 178 b 173 362 206 355 194 365 l 88 351 b 58 314 68 348 57 336 b 360 -15 76 87 194 -15 z m 404 1008 l 484 1008 b 524 1023 500 1008 513 1011 l 583 1077 b 593 1077 586 1080 591 1080 l 652 1024 b 693 1008 663 1013 677 1008 l 775 1008 b 793 1048 804 1008 813 1027 l 663 1181 b 622 1197 652 1193 639 1197 l 557 1197 b 516 1181 540 1197 528 1193 l 386 1048 b 404 1008 366 1027 375 1008 z "},"K":{"ha":758,"x_min":0,"x_max":0,"o":"m 141 0 l 222 0 b 255 33 242 0 255 13 l 255 244 b 258 253 255 247 256 250 l 364 403 b 375 402 366 407 372 407 l 583 23 b 622 0 592 8 605 0 l 716 0 b 739 39 741 0 751 16 l 467 538 b 468 548 466 542 466 545 l 689 856 b 669 896 705 878 696 896 l 578 896 b 539 876 561 896 549 890 l 264 479 b 255 481 260 472 255 475 l 255 864 b 222 896 255 884 244 896 l 141 896 b 109 864 121 896 109 885 l 109 33 b 141 0 109 13 120 0 z "},"Ķ":{"ha":758,"x_min":0,"x_max":0,"o":"m 141 0 l 222 0 b 255 33 242 0 255 13 l 255 244 b 258 253 255 247 256 250 l 364 403 b 375 402 366 407 372 407 l 583 23 b 622 0 592 8 605 0 l 716 0 b 739 39 741 0 751 16 l 467 538 b 468 548 466 542 466 545 l 689 856 b 669 896 705 878 696 896 l 578 896 b 539 876 561 896 549 890 l 264 479 b 255 481 260 472 255 475 l 255 864 b 222 896 255 884 244 896 l 141 896 b 109 864 121 896 109 885 l 109 33 b 141 0 109 13 120 0 z m 299 -439 l 326 -467 b 372 -470 340 -482 357 -484 b 504 -220 465 -389 504 -316 b 404 -106 504 -149 458 -106 b 311 -199 352 -106 311 -144 b 372 -283 311 -234 327 -271 b 378 -292 378 -284 380 -287 b 303 -393 367 -328 345 -359 b 299 -439 285 -407 284 -424 z "},"L":{"ha":758,"x_min":0,"x_max":0,"o":"m 162 0 l 650 0 b 683 33 670 0 683 13 l 683 95 b 650 128 683 115 672 128 l 283 128 b 275 135 278 128 275 131 l 275 864 b 242 896 275 884 264 896 l 162 896 b 129 864 141 896 129 885 l 129 33 b 162 0 129 13 141 0 z "},"Ĺ":{"ha":758,"x_min":0,"x_max":0,"o":"m 162 0 l 650 0 b 683 33 670 0 683 13 l 683 95 b 650 128 683 115 672 128 l 283 128 b 275 135 278 128 275 131 l 275 864 b 242 896 275 884 264 896 l 162 896 b 129 864 141 896 129 885 l 129 33 b 162 0 129 13 141 0 z m 173 1008 l 264 1008 b 306 1024 280 1008 294 1013 l 429 1140 b 413 1181 451 1160 442 1181 l 285 1181 b 246 1162 269 1181 256 1174 l 154 1048 b 173 1008 136 1025 145 1008 z "},"Ļ":{"ha":758,"x_min":0,"x_max":0,"o":"m 162 0 l 650 0 b 683 33 670 0 683 13 l 683 95 b 650 128 683 115 672 128 l 283 128 b 275 135 278 128 275 131 l 275 864 b 242 896 275 884 264 896 l 162 896 b 129 864 141 896 129 885 l 129 33 b 162 0 129 13 141 0 z m 319 -439 l 346 -467 b 393 -470 360 -482 378 -484 b 524 -220 485 -389 524 -316 b 424 -106 524 -149 479 -106 b 331 -199 372 -106 331 -144 b 393 -283 331 -234 347 -271 b 398 -292 398 -284 400 -287 b 323 -393 388 -328 365 -359 b 319 -439 306 -407 304 -424 z "},"Ľ":{"ha":758,"x_min":0,"x_max":0,"o":"m 162 0 l 650 0 b 683 33 670 0 683 13 l 683 95 b 650 128 683 115 672 128 l 283 128 b 275 135 278 128 275 131 l 275 864 b 242 896 275 884 264 896 l 162 896 b 129 864 141 896 129 885 l 129 33 b 162 0 129 13 141 0 z m 452 673 l 524 673 b 558 703 544 673 556 683 l 578 862 b 547 898 581 884 568 898 l 452 898 b 419 865 432 898 419 886 l 419 706 b 452 673 419 686 431 673 z "},"M":{"ha":758,"x_min":0,"x_max":0,"o":"m 106 0 l 169 0 b 202 33 189 0 202 13 l 202 620 b 211 621 202 626 210 628 l 285 372 b 327 263 297 338 312 297 b 365 239 335 246 347 239 l 389 239 b 427 263 407 239 419 246 b 466 370 441 294 455 333 l 542 621 b 551 620 543 628 551 626 l 551 33 b 583 0 551 13 563 0 l 652 0 b 684 33 672 0 684 11 l 684 864 b 652 896 684 884 672 896 l 566 896 b 527 875 548 896 535 890 b 484 770 509 845 496 809 l 386 456 b 376 457 384 449 379 451 l 280 777 b 239 875 266 817 253 850 b 201 896 231 890 218 896 l 106 896 b 73 864 86 896 73 885 l 73 33 b 106 0 73 13 85 0 z "},"N":{"ha":758,"x_min":0,"x_max":0,"o":"m 124 0 l 188 0 b 221 33 208 0 221 11 l 221 630 b 230 631 221 638 227 638 l 444 154 b 518 20 470 97 492 57 b 557 0 527 6 539 0 l 634 0 b 667 33 654 0 667 11 l 667 864 b 634 896 667 884 655 896 l 569 896 b 537 864 549 896 537 885 l 537 282 b 528 280 537 274 530 273 l 312 766 b 250 878 289 816 269 852 b 211 896 240 891 227 896 l 124 896 b 91 864 104 896 91 885 l 91 33 b 124 0 91 13 102 0 z "},"Ñ":{"ha":758,"x_min":0,"x_max":0,"o":"m 124 0 l 188 0 b 221 33 208 0 221 11 l 221 630 b 230 631 221 638 227 638 l 444 154 b 518 20 470 97 492 57 b 557 0 527 6 539 0 l 634 0 b 667 33 654 0 667 11 l 667 864 b 634 896 667 884 655 896 l 569 896 b 537 864 549 896 537 885 l 537 282 b 528 280 537 274 530 273 l 312 766 b 250 878 289 816 269 852 b 211 896 240 891 227 896 l 124 896 b 91 864 104 896 91 885 l 91 33 b 124 0 91 13 102 0 z m 196 1001 l 241 1001 b 278 1032 260 1001 271 1011 b 321 1068 287 1058 302 1068 b 477 999 355 1068 400 999 b 621 1153 553 999 606 1043 b 591 1188 625 1176 612 1188 l 545 1188 b 511 1157 525 1188 516 1177 b 471 1119 505 1130 490 1119 b 311 1191 437 1119 381 1191 b 165 1037 231 1191 181 1145 b 196 1001 162 1014 174 1001 z "},"Ń":{"ha":758,"x_min":0,"x_max":0,"o":"m 124 0 l 188 0 b 221 33 208 0 221 11 l 221 630 b 230 631 221 638 227 638 l 444 154 b 518 20 470 97 492 57 b 557 0 527 6 539 0 l 634 0 b 667 33 654 0 667 11 l 667 864 b 634 896 667 884 655 896 l 569 896 b 537 864 549 896 537 885 l 537 282 b 528 280 537 274 530 273 l 312 766 b 250 878 289 816 269 852 b 211 896 240 891 227 896 l 124 896 b 91 864 104 896 91 885 l 91 33 b 124 0 91 13 102 0 z m 356 1008 l 447 1008 b 489 1024 463 1008 477 1013 l 612 1140 b 596 1181 634 1160 625 1181 l 468 1181 b 429 1162 452 1181 439 1174 l 337 1048 b 356 1008 319 1025 328 1008 z "},"Ņ":{"ha":758,"x_min":0,"x_max":0,"o":"m 124 0 l 188 0 b 221 33 208 0 221 11 l 221 630 b 230 631 221 638 227 638 l 444 154 b 518 20 470 97 492 57 b 557 0 527 6 539 0 l 634 0 b 667 33 654 0 667 11 l 667 864 b 634 896 667 884 655 896 l 569 896 b 537 864 549 896 537 885 l 537 282 b 528 280 537 274 530 273 l 312 766 b 250 878 289 816 269 852 b 211 896 240 891 227 896 l 124 896 b 91 864 104 896 91 885 l 91 33 b 124 0 91 13 102 0 z m 280 -439 l 307 -467 b 354 -470 321 -482 338 -484 b 485 -220 446 -389 485 -316 b 385 -106 485 -149 439 -106 b 292 -199 333 -106 292 -144 b 354 -283 292 -234 308 -271 b 359 -292 359 -284 361 -287 b 284 -393 348 -328 326 -359 b 280 -439 266 -407 265 -424 z "},"Ň":{"ha":758,"x_min":0,"x_max":0,"o":"m 124 0 l 188 0 b 221 33 208 0 221 11 l 221 630 b 230 631 221 638 227 638 l 444 154 b 518 20 470 97 492 57 b 557 0 527 6 539 0 l 634 0 b 667 33 654 0 667 11 l 667 864 b 634 896 667 884 655 896 l 569 896 b 537 864 549 896 537 885 l 537 282 b 528 280 537 274 530 273 l 312 766 b 250 878 289 816 269 852 b 211 896 240 891 227 896 l 124 896 b 91 864 104 896 91 885 l 91 33 b 124 0 91 13 102 0 z m 184 1153 l 314 1020 b 355 1004 326 1008 338 1004 l 420 1004 b 461 1020 437 1004 449 1008 l 591 1153 b 573 1193 611 1174 602 1193 l 494 1193 b 453 1178 477 1193 465 1189 l 394 1124 b 384 1124 391 1121 386 1121 l 326 1177 b 284 1193 314 1188 301 1193 l 202 1193 b 184 1153 173 1193 164 1174 z "},"O":{"ha":758,"x_min":0,"x_max":0,"o":"m 378 116 b 201 449 268 116 201 249 b 378 780 201 649 268 780 b 557 449 490 780 557 649 b 378 116 557 249 490 116 z m 43 449 b 378 -15 43 170 173 -15 b 715 449 585 -15 715 170 b 378 912 715 727 585 912 b 43 449 173 912 43 727 z "},"Ò":{"ha":758,"x_min":0,"x_max":0,"o":"m 378 116 b 201 449 268 116 201 249 b 378 780 201 649 268 780 b 557 449 490 780 557 649 b 378 116 557 249 490 116 z m 43 449 b 378 -15 43 170 173 -15 b 715 449 585 -15 715 170 b 378 912 715 727 585 912 b 43 449 173 912 43 727 z m 154 1140 l 278 1024 b 319 1008 289 1013 303 1008 l 410 1008 b 429 1048 438 1008 447 1025 l 337 1162 b 298 1181 327 1174 314 1181 l 170 1181 b 154 1140 141 1181 133 1160 z "},"Ó":{"ha":758,"x_min":0,"x_max":0,"o":"m 378 116 b 201 449 268 116 201 249 b 378 780 201 649 268 780 b 557 449 490 780 557 649 b 378 116 557 249 490 116 z m 43 449 b 378 -15 43 170 173 -15 b 715 449 585 -15 715 170 b 378 912 715 727 585 912 b 43 449 173 912 43 727 z m 347 1008 l 438 1008 b 480 1024 455 1008 468 1013 l 604 1140 b 587 1181 625 1160 616 1181 l 460 1181 b 420 1162 443 1181 431 1174 l 328 1048 b 347 1008 311 1025 319 1008 z "},"Ô":{"ha":758,"x_min":0,"x_max":0,"o":"m 378 116 b 201 449 268 116 201 249 b 378 780 201 649 268 780 b 557 449 490 780 557 649 b 378 116 557 249 490 116 z m 43 449 b 378 -15 43 170 173 -15 b 715 449 585 -15 715 170 b 378 912 715 727 585 912 b 43 449 173 912 43 727 z m 193 1008 l 273 1008 b 313 1023 289 1008 302 1011 l 372 1077 b 383 1077 375 1080 380 1080 l 441 1024 b 482 1008 452 1013 466 1008 l 564 1008 b 582 1048 593 1008 602 1027 l 452 1181 b 412 1197 441 1193 428 1197 l 346 1197 b 306 1181 330 1197 317 1193 l 176 1048 b 193 1008 155 1027 164 1008 z "},"Õ":{"ha":758,"x_min":0,"x_max":0,"o":"m 378 116 b 201 449 268 116 201 249 b 378 780 201 649 268 780 b 557 449 490 780 557 649 b 378 116 557 249 490 116 z m 43 449 b 378 -15 43 170 173 -15 b 715 449 585 -15 715 170 b 378 912 715 727 585 912 b 43 449 173 912 43 727 z m 187 1001 l 232 1001 b 269 1032 251 1001 263 1011 b 312 1068 278 1058 293 1068 b 468 999 346 1068 391 999 b 612 1153 544 999 597 1043 b 582 1188 616 1176 604 1188 l 537 1188 b 503 1157 516 1188 508 1177 b 462 1119 496 1130 481 1119 b 302 1191 428 1119 372 1191 b 157 1037 222 1191 172 1145 b 187 1001 153 1014 165 1001 z "},"Ö":{"ha":758,"x_min":0,"x_max":0,"o":"m 378 116 b 201 449 268 116 201 249 b 378 780 201 649 268 780 b 557 449 490 780 557 649 b 378 116 557 249 490 116 z m 43 449 b 378 -15 43 170 173 -15 b 715 449 585 -15 715 170 b 378 912 715 727 585 912 b 43 449 173 912 43 727 z m 140 1090 b 241 990 140 1037 186 990 b 340 1090 294 990 340 1037 b 241 1189 340 1144 294 1189 b 140 1090 186 1189 140 1144 z m 418 1090 b 519 990 418 1037 463 990 b 617 1090 572 990 617 1037 b 519 1189 617 1144 572 1189 b 418 1090 463 1189 418 1144 z "},"Ō":{"ha":758,"x_min":0,"x_max":0,"o":"m 378 116 b 201 449 268 116 201 249 b 378 780 201 649 268 780 b 557 449 490 780 557 649 b 378 116 557 249 490 116 z m 43 449 b 378 -15 43 170 173 -15 b 715 449 585 -15 715 170 b 378 912 715 727 585 912 b 43 449 173 912 43 727 z m 210 1008 l 548 1008 b 581 1040 568 1008 581 1019 l 581 1104 b 548 1136 581 1124 569 1136 l 210 1136 b 177 1104 189 1136 177 1125 l 177 1040 b 210 1008 177 1020 189 1008 z "},"Ŏ":{"ha":758,"x_min":0,"x_max":0,"o":"m 378 116 b 201 449 268 116 201 249 b 378 780 201 649 268 780 b 557 449 490 780 557 649 b 378 116 557 249 490 116 z m 43 449 b 378 -15 43 170 173 -15 b 715 449 585 -15 715 170 b 378 912 715 727 585 912 b 43 449 173 912 43 727 z m 164 1144 b 379 990 192 1038 282 990 b 592 1144 473 990 563 1038 b 563 1181 598 1167 586 1181 l 499 1181 b 462 1153 480 1181 470 1170 b 380 1107 448 1121 420 1107 b 294 1152 336 1107 307 1121 b 259 1181 287 1170 278 1181 l 194 1181 b 164 1144 172 1181 159 1167 z "},"Ő":{"ha":758,"x_min":0,"x_max":0,"o":"m 378 116 b 201 449 268 116 201 249 b 378 780 201 649 268 780 b 557 449 490 780 557 649 b 378 116 557 249 490 116 z m 43 449 b 378 -15 43 170 173 -15 b 715 449 585 -15 715 170 b 378 912 715 727 585 912 b 43 449 173 912 43 727 z m 211 1008 l 289 1008 b 330 1025 306 1008 318 1013 l 436 1140 b 418 1181 455 1162 446 1181 l 307 1181 b 268 1159 289 1181 278 1173 l 191 1048 b 211 1008 176 1027 184 1008 z m 490 1008 l 566 1008 b 606 1024 582 1008 595 1013 l 722 1140 b 706 1181 742 1160 735 1181 l 596 1181 b 556 1160 580 1181 566 1174 l 470 1048 b 490 1008 453 1025 462 1008 z "},"P":{"ha":758,"x_min":0,"x_max":0,"o":"m 150 0 l 234 0 b 266 33 254 0 266 11 l 266 327 b 274 335 266 332 270 335 l 419 335 b 707 616 605 335 707 422 b 419 896 707 811 605 896 l 150 896 b 117 864 130 896 117 885 l 117 33 b 150 0 117 13 129 0 z m 266 467 l 266 763 b 274 770 266 768 269 770 l 400 770 b 547 616 501 770 547 726 b 400 460 547 505 501 460 l 274 460 b 266 467 269 460 266 463 z "},"Q":{"ha":758,"x_min":0,"x_max":0,"o":"m 501 -250 b 638 -230 556 -250 600 -242 b 654 -192 652 -225 658 -211 l 640 -114 b 600 -92 636 -91 621 -85 b 524 -105 576 -100 549 -105 b 439 -28 470 -105 439 -82 l 439 -15 b 446 -8 439 -11 442 -9 b 715 449 612 29 715 203 b 378 912 715 727 585 912 b 43 449 173 912 43 727 b 312 -9 43 202 146 28 b 318 -18 317 -10 319 -13 b 318 -40 318 -24 318 -32 b 501 -250 318 -196 405 -250 z m 201 449 b 378 780 201 649 268 780 b 557 449 490 780 557 649 b 378 116 557 249 490 116 b 201 449 268 116 201 249 z "},"R":{"ha":758,"x_min":0,"x_max":0,"o":"m 150 0 l 234 0 b 266 33 254 0 266 11 l 266 362 b 274 370 266 367 269 370 l 391 370 b 400 364 395 370 399 367 l 552 25 b 591 0 559 8 573 0 l 681 0 b 706 39 706 0 716 16 l 609 247 b 535 381 583 297 559 345 b 538 391 532 386 533 390 b 683 634 633 427 683 505 b 396 896 683 816 581 896 l 150 896 b 117 864 130 896 117 885 l 117 33 b 150 0 117 13 129 0 z m 266 504 l 266 763 b 274 770 266 768 270 770 l 379 770 b 525 634 480 770 525 732 b 379 496 525 535 480 496 l 274 496 b 266 504 269 496 266 499 z "},"Ŕ":{"ha":758,"x_min":0,"x_max":0,"o":"m 150 0 l 234 0 b 266 33 254 0 266 11 l 266 362 b 274 370 266 367 269 370 l 391 370 b 400 364 395 370 399 367 l 552 25 b 591 0 559 8 573 0 l 681 0 b 706 39 706 0 716 16 l 609 247 b 535 381 583 297 559 345 b 538 391 532 386 533 390 b 683 634 633 427 683 505 b 396 896 683 816 581 896 l 150 896 b 117 864 130 896 117 885 l 117 33 b 150 0 117 13 129 0 z m 266 504 l 266 763 b 274 770 266 768 270 770 l 379 770 b 525 634 480 770 525 732 b 379 496 525 535 480 496 l 274 496 b 266 504 269 496 266 499 z m 343 1008 l 434 1008 b 476 1024 451 1008 465 1013 l 600 1140 b 583 1181 621 1160 612 1181 l 456 1181 b 417 1162 439 1181 427 1174 l 324 1048 b 343 1008 307 1025 316 1008 z "},"Ŗ":{"ha":758,"x_min":0,"x_max":0,"o":"m 150 0 l 234 0 b 266 33 254 0 266 11 l 266 362 b 274 370 266 367 269 370 l 391 370 b 400 364 395 370 399 367 l 552 25 b 591 0 559 8 573 0 l 681 0 b 706 39 706 0 716 16 l 609 247 b 535 381 583 297 559 345 b 538 391 532 386 533 390 b 683 634 633 427 683 505 b 396 896 683 816 581 896 l 150 896 b 117 864 130 896 117 885 l 117 33 b 150 0 117 13 129 0 z m 266 504 l 266 763 b 274 770 266 768 270 770 l 379 770 b 525 634 480 770 525 732 b 379 496 525 535 480 496 l 274 496 b 266 504 269 496 266 499 z m 297 -439 l 323 -467 b 370 -470 337 -482 355 -484 b 501 -220 462 -389 501 -316 b 402 -106 501 -149 456 -106 b 308 -199 350 -106 308 -144 b 370 -283 308 -234 324 -271 b 375 -292 375 -284 378 -287 b 301 -393 365 -328 342 -359 b 297 -439 283 -407 282 -424 z "},"Ř":{"ha":758,"x_min":0,"x_max":0,"o":"m 150 0 l 234 0 b 266 33 254 0 266 11 l 266 362 b 274 370 266 367 269 370 l 391 370 b 400 364 395 370 399 367 l 552 25 b 591 0 559 8 573 0 l 681 0 b 706 39 706 0 716 16 l 609 247 b 535 381 583 297 559 345 b 538 391 532 386 533 390 b 683 634 633 427 683 505 b 396 896 683 816 581 896 l 150 896 b 117 864 130 896 117 885 l 117 33 b 150 0 117 13 129 0 z m 172 1153 l 302 1020 b 342 1004 313 1008 326 1004 l 408 1004 b 448 1020 424 1004 437 1008 l 578 1153 b 561 1193 598 1174 590 1193 l 481 1193 b 441 1178 465 1193 452 1189 l 381 1124 b 371 1124 379 1121 374 1121 l 313 1177 b 271 1193 302 1188 288 1193 l 189 1193 b 172 1153 160 1193 152 1174 z m 266 504 l 266 763 b 274 770 266 768 270 770 l 379 770 b 525 634 480 770 525 732 b 379 496 525 535 480 496 l 274 496 b 266 504 269 496 266 499 z "},"S":{"ha":758,"x_min":0,"x_max":0,"o":"m 376 -15 b 677 236 592 -15 677 128 b 431 530 677 389 569 457 b 255 689 336 581 255 619 b 366 785 255 746 292 785 b 513 672 428 785 473 756 b 556 652 521 652 537 644 l 644 687 b 660 731 665 696 670 711 b 369 912 597 850 515 912 b 98 688 176 912 98 788 b 314 415 98 540 201 472 b 519 229 415 364 519 324 b 376 111 519 159 470 111 b 213 235 301 111 244 148 b 172 256 206 256 193 265 l 91 225 b 71 183 72 217 63 203 b 376 -15 110 62 215 -15 z "},"Ś":{"ha":758,"x_min":0,"x_max":0,"o":"m 376 -15 b 677 236 592 -15 677 128 b 431 530 677 389 569 457 b 255 689 336 581 255 619 b 366 785 255 746 292 785 b 513 672 428 785 473 756 b 556 652 521 652 537 644 l 644 687 b 660 731 665 696 670 711 b 369 912 597 850 515 912 b 98 688 176 912 98 788 b 314 415 98 540 201 472 b 519 229 415 364 519 324 b 376 111 519 159 470 111 b 213 235 301 111 244 148 b 172 256 206 256 193 265 l 91 225 b 71 183 72 217 63 203 b 376 -15 110 62 215 -15 z m 341 1008 l 432 1008 b 473 1024 448 1008 462 1013 l 597 1140 b 581 1181 619 1160 610 1181 l 453 1181 b 414 1162 437 1181 424 1174 l 322 1048 b 341 1008 304 1025 313 1008 z "},"Ŝ":{"ha":758,"x_min":0,"x_max":0,"o":"m 376 -15 b 677 236 592 -15 677 128 b 431 530 677 389 569 457 b 255 689 336 581 255 619 b 366 785 255 746 292 785 b 513 672 428 785 473 756 b 556 652 521 652 537 644 l 644 687 b 660 731 665 696 670 711 b 369 912 597 850 515 912 b 98 688 176 912 98 788 b 314 415 98 540 201 472 b 519 229 415 364 519 324 b 376 111 519 159 470 111 b 213 235 301 111 244 148 b 172 256 206 256 193 265 l 91 225 b 71 183 72 217 63 203 b 376 -15 110 62 215 -15 z m 187 1008 l 266 1008 b 307 1023 283 1008 295 1011 l 366 1077 b 376 1077 369 1080 374 1080 l 434 1024 b 476 1008 446 1013 460 1008 l 558 1008 b 576 1048 587 1008 596 1027 l 446 1181 b 405 1197 434 1193 422 1197 l 340 1197 b 299 1181 323 1197 311 1193 l 169 1048 b 187 1008 149 1027 158 1008 z "},"Ş":{"ha":758,"x_min":0,"x_max":0,"o":"m 356 -347 b 511 -208 436 -347 511 -312 b 385 -76 511 -125 467 -82 b 380 -66 380 -74 378 -71 l 403 -19 b 412 -14 404 -15 408 -14 b 677 236 601 0 677 134 b 431 530 677 389 569 457 b 255 689 336 581 255 619 b 366 785 255 746 292 785 b 513 672 428 785 473 756 b 556 652 521 652 537 644 l 644 687 b 660 731 665 696 670 711 b 369 912 597 850 515 912 b 98 688 176 912 98 788 b 314 415 98 540 201 472 b 519 229 415 364 519 324 b 376 111 519 159 470 111 b 213 235 301 111 244 148 b 172 256 206 256 193 265 l 91 225 b 71 183 72 217 64 203 b 304 -10 104 81 183 11 b 309 -19 309 -11 312 -14 l 278 -87 b 279 -131 270 -102 270 -116 b 319 -152 287 -145 299 -152 b 403 -203 386 -149 403 -167 b 360 -251 403 -234 386 -251 b 306 -239 343 -251 324 -246 b 263 -258 285 -231 269 -237 l 251 -293 b 271 -335 245 -313 251 -328 b 356 -347 297 -342 326 -347 z "},"Š":{"ha":758,"x_min":0,"x_max":0,"o":"m 376 -15 b 677 236 592 -15 677 128 b 431 530 677 389 569 457 b 255 689 336 581 255 619 b 366 785 255 746 292 785 b 513 672 428 785 473 756 b 556 652 521 652 537 644 l 644 687 b 660 731 665 696 670 711 b 369 912 597 850 515 912 b 98 688 176 912 98 788 b 314 415 98 540 201 472 b 519 229 415 364 519 324 b 376 111 519 159 470 111 b 213 235 301 111 244 148 b 172 256 206 256 193 265 l 91 225 b 71 183 72 217 63 203 b 376 -15 110 62 215 -15 z m 169 1153 l 299 1020 b 340 1004 311 1008 323 1004 l 405 1004 b 446 1020 422 1004 434 1008 l 576 1153 b 558 1193 596 1174 587 1193 l 479 1193 b 438 1178 462 1193 449 1189 l 379 1124 b 369 1124 376 1121 371 1121 l 311 1177 b 269 1193 299 1188 285 1193 l 187 1193 b 169 1153 158 1193 149 1174 z "},"Ș":{"ha":758,"x_min":0,"x_max":0,"o":"m 376 -15 b 677 236 592 -15 677 128 b 431 530 677 389 569 457 b 255 689 336 581 255 619 b 366 785 255 746 292 785 b 513 672 428 785 473 756 b 556 652 521 652 537 644 l 644 687 b 660 731 665 696 670 711 b 369 912 597 850 515 912 b 98 688 176 912 98 788 b 314 415 98 540 201 472 b 519 229 415 364 519 324 b 376 111 519 159 470 111 b 213 235 301 111 244 148 b 172 256 206 256 193 265 l 91 225 b 71 183 72 217 63 203 b 376 -15 110 62 215 -15 z m 263 -439 l 289 -467 b 336 -470 303 -482 321 -484 b 467 -220 428 -389 467 -316 b 367 -106 467 -149 422 -106 b 274 -199 316 -106 274 -144 b 336 -283 274 -234 290 -271 b 341 -292 341 -284 343 -287 b 266 -393 331 -328 308 -359 b 263 -439 249 -407 247 -424 z "},"T":{"ha":758,"x_min":0,"x_max":0,"o":"m 337 0 l 419 0 b 452 33 439 0 452 11 l 452 761 b 460 769 452 766 456 769 l 652 769 b 684 802 672 769 684 782 l 684 864 b 652 896 684 884 672 896 l 105 896 b 72 864 85 896 72 884 l 72 802 b 105 769 72 782 85 769 l 297 769 b 304 761 302 769 304 765 l 304 33 b 337 0 304 13 316 0 z "},"Ț":{"ha":758,"x_min":0,"x_max":0,"o":"m 337 0 l 419 0 b 452 33 439 0 452 11 l 452 761 b 460 769 452 766 456 769 l 652 769 b 684 802 672 769 684 782 l 684 864 b 652 896 684 884 672 896 l 105 896 b 72 864 85 896 72 884 l 72 802 b 105 769 72 782 85 769 l 297 769 b 304 761 302 769 304 765 l 304 33 b 337 0 304 13 316 0 z m 275 -439 l 302 -467 b 348 -470 316 -482 333 -484 b 480 -220 441 -389 480 -316 b 380 -106 480 -149 434 -106 b 287 -199 328 -106 287 -144 b 348 -283 287 -234 303 -271 b 354 -292 354 -284 356 -287 b 279 -393 343 -328 321 -359 b 275 -439 261 -407 260 -424 z "},"Ť":{"ha":758,"x_min":0,"x_max":0,"o":"m 337 0 l 419 0 b 452 33 439 0 452 11 l 452 761 b 460 769 452 766 456 769 l 652 769 b 684 802 672 769 684 782 l 684 864 b 652 896 684 884 672 896 l 105 896 b 72 864 85 896 72 884 l 72 802 b 105 769 72 782 85 769 l 297 769 b 304 761 302 769 304 765 l 304 33 b 337 0 304 13 316 0 z m 176 1153 l 306 1020 b 346 1004 317 1008 330 1004 l 412 1004 b 452 1020 428 1004 441 1008 l 582 1153 b 564 1193 602 1174 593 1193 l 485 1193 b 444 1178 468 1193 456 1189 l 385 1124 b 375 1124 383 1121 378 1121 l 317 1177 b 275 1193 306 1188 292 1193 l 193 1193 b 176 1153 164 1193 155 1174 z "},"U":{"ha":758,"x_min":0,"x_max":0,"o":"m 378 -15 b 663 327 559 -15 663 110 l 663 864 b 630 896 663 884 652 896 l 549 896 b 516 864 529 896 516 884 l 516 336 b 378 116 516 202 466 116 b 240 336 290 116 240 202 l 240 864 b 207 896 240 884 229 896 l 126 896 b 93 864 106 896 93 885 l 93 327 b 378 -15 93 110 197 -15 z "},"Ù":{"ha":758,"x_min":0,"x_max":0,"o":"m 378 -15 b 663 327 559 -15 663 110 l 663 864 b 630 896 663 884 652 896 l 549 896 b 516 864 529 896 516 884 l 516 336 b 378 116 516 202 466 116 b 240 336 290 116 240 202 l 240 864 b 207 896 240 884 229 896 l 126 896 b 93 864 106 896 93 885 l 93 327 b 378 -15 93 110 197 -15 z m 154 1140 l 278 1024 b 319 1008 289 1013 303 1008 l 410 1008 b 429 1048 438 1008 447 1025 l 337 1162 b 298 1181 327 1174 314 1181 l 170 1181 b 154 1140 141 1181 133 1160 z "},"Ú":{"ha":758,"x_min":0,"x_max":0,"o":"m 378 -15 b 663 327 559 -15 663 110 l 663 864 b 630 896 663 884 652 896 l 549 896 b 516 864 529 896 516 884 l 516 336 b 378 116 516 202 466 116 b 240 336 290 116 240 202 l 240 864 b 207 896 240 884 229 896 l 126 896 b 93 864 106 896 93 885 l 93 327 b 378 -15 93 110 197 -15 z m 347 1008 l 438 1008 b 480 1024 455 1008 468 1013 l 604 1140 b 587 1181 625 1160 616 1181 l 460 1181 b 420 1162 443 1181 431 1174 l 328 1048 b 347 1008 311 1025 319 1008 z "},"Û":{"ha":758,"x_min":0,"x_max":0,"o":"m 378 -15 b 663 327 559 -15 663 110 l 663 864 b 630 896 663 884 652 896 l 549 896 b 516 864 529 896 516 884 l 516 336 b 378 116 516 202 466 116 b 240 336 290 116 240 202 l 240 864 b 207 896 240 884 229 896 l 126 896 b 93 864 106 896 93 885 l 93 327 b 378 -15 93 110 197 -15 z m 193 1008 l 273 1008 b 313 1023 289 1008 302 1011 l 372 1077 b 383 1077 375 1080 380 1080 l 441 1024 b 482 1008 452 1013 466 1008 l 564 1008 b 582 1048 593 1008 602 1027 l 452 1181 b 412 1197 441 1193 428 1197 l 346 1197 b 306 1181 330 1197 317 1193 l 176 1048 b 193 1008 155 1027 164 1008 z "},"Ü":{"ha":758,"x_min":0,"x_max":0,"o":"m 378 -15 b 663 327 559 -15 663 110 l 663 864 b 630 896 663 884 652 896 l 549 896 b 516 864 529 896 516 884 l 516 336 b 378 116 516 202 466 116 b 240 336 290 116 240 202 l 240 864 b 207 896 240 884 229 896 l 126 896 b 93 864 106 896 93 885 l 93 327 b 378 -15 93 110 197 -15 z m 140 1090 b 241 990 140 1037 186 990 b 340 1090 294 990 340 1037 b 241 1189 340 1144 294 1189 b 140 1090 186 1189 140 1144 z m 418 1090 b 519 990 418 1037 463 990 b 617 1090 572 990 617 1037 b 519 1189 617 1144 572 1189 b 418 1090 463 1189 418 1144 z "},"Ũ":{"ha":758,"x_min":0,"x_max":0,"o":"m 378 -15 b 663 327 559 -15 663 110 l 663 864 b 630 896 663 884 652 896 l 549 896 b 516 864 529 896 516 884 l 516 336 b 378 116 516 202 466 116 b 240 336 290 116 240 202 l 240 864 b 207 896 240 884 229 896 l 126 896 b 93 864 106 896 93 885 l 93 327 b 378 -15 93 110 197 -15 z m 187 1001 l 232 1001 b 269 1032 251 1001 263 1011 b 312 1068 278 1058 293 1068 b 468 999 346 1068 391 999 b 612 1153 544 999 597 1043 b 582 1188 616 1176 604 1188 l 537 1188 b 503 1157 516 1188 508 1177 b 462 1119 496 1130 481 1119 b 302 1191 428 1119 372 1191 b 157 1037 222 1191 172 1145 b 187 1001 153 1014 165 1001 z "},"Ū":{"ha":758,"x_min":0,"x_max":0,"o":"m 378 -15 b 663 327 559 -15 663 110 l 663 864 b 630 896 663 884 652 896 l 549 896 b 516 864 529 896 516 884 l 516 336 b 378 116 516 202 466 116 b 240 336 290 116 240 202 l 240 864 b 207 896 240 884 229 896 l 126 896 b 93 864 106 896 93 885 l 93 327 b 378 -15 93 110 197 -15 z m 210 1008 l 548 1008 b 581 1040 568 1008 581 1019 l 581 1104 b 548 1136 581 1124 569 1136 l 210 1136 b 177 1104 189 1136 177 1125 l 177 1040 b 210 1008 177 1020 189 1008 z "},"Ŭ":{"ha":758,"x_min":0,"x_max":0,"o":"m 378 -15 b 663 327 559 -15 663 110 l 663 864 b 630 896 663 884 652 896 l 549 896 b 516 864 529 896 516 884 l 516 336 b 378 116 516 202 466 116 b 240 336 290 116 240 202 l 240 864 b 207 896 240 884 229 896 l 126 896 b 93 864 106 896 93 885 l 93 327 b 378 -15 93 110 197 -15 z m 164 1144 b 379 990 192 1038 282 990 b 592 1144 473 990 563 1038 b 563 1181 598 1167 586 1181 l 499 1181 b 462 1153 480 1181 470 1170 b 380 1107 448 1121 420 1107 b 294 1152 336 1107 307 1121 b 259 1181 287 1170 278 1181 l 194 1181 b 164 1144 172 1181 159 1167 z "},"Ů":{"ha":758,"x_min":0,"x_max":0,"o":"m 378 -15 b 663 327 559 -15 663 110 l 663 864 b 630 896 663 884 652 896 l 549 896 b 516 864 529 896 516 884 l 516 336 b 378 116 516 202 466 116 b 240 336 290 116 240 202 l 240 864 b 207 896 240 884 229 896 l 126 896 b 93 864 106 896 93 885 l 93 327 b 378 -15 93 110 197 -15 z m 230 1111 b 380 972 230 1032 297 972 b 528 1111 462 972 528 1032 b 380 1247 528 1189 462 1247 b 230 1111 298 1247 230 1189 z m 326 1111 b 380 1164 326 1141 350 1164 b 432 1111 409 1164 432 1141 b 380 1057 432 1081 409 1057 b 326 1111 350 1057 326 1080 z "},"Ű":{"ha":758,"x_min":0,"x_max":0,"o":"m 378 -15 b 663 327 559 -15 663 110 l 663 864 b 630 896 663 884 652 896 l 549 896 b 516 864 529 896 516 884 l 516 336 b 378 116 516 202 466 116 b 240 336 290 116 240 202 l 240 864 b 207 896 240 884 229 896 l 126 896 b 93 864 106 896 93 885 l 93 327 b 378 -15 93 110 197 -15 z m 211 1008 l 289 1008 b 330 1025 306 1008 318 1013 l 436 1140 b 418 1181 455 1162 446 1181 l 307 1181 b 268 1159 289 1181 278 1173 l 191 1048 b 211 1008 176 1027 184 1008 z m 490 1008 l 566 1008 b 606 1024 582 1008 595 1013 l 722 1140 b 706 1181 742 1160 735 1181 l 596 1181 b 556 1160 580 1181 566 1174 l 470 1048 b 490 1008 453 1025 462 1008 z "},"Ų":{"ha":758,"x_min":0,"x_max":0,"o":"m 378 -15 b 375 -24 381 -15 380 -19 b 304 -202 331 -74 304 -135 b 437 -331 304 -292 366 -331 b 515 -316 466 -331 491 -326 b 537 -277 532 -308 538 -294 l 534 -237 b 496 -218 532 -212 519 -210 b 470 -223 487 -222 479 -223 b 431 -170 447 -223 431 -207 b 548 35 431 -112 457 -48 b 663 327 622 91 663 191 l 663 864 b 630 896 663 884 652 896 l 549 896 b 516 864 529 896 516 884 l 516 336 b 378 116 516 202 466 116 b 240 336 290 116 240 202 l 240 864 b 207 896 240 884 229 896 l 126 896 b 93 864 106 896 93 885 l 93 327 b 378 -15 93 110 197 -15 z "},"V":{"ha":758,"x_min":0,"x_max":0,"o":"m 354 0 l 415 0 b 455 23 433 0 446 6 b 523 193 479 69 504 128 l 711 860 b 683 896 717 883 706 896 l 605 896 b 568 869 586 896 573 888 l 393 203 b 383 203 391 197 384 197 l 198 869 b 162 896 193 888 181 896 l 76 896 b 48 860 53 896 42 883 l 245 194 b 314 23 264 126 290 69 b 354 0 323 6 336 0 z "},"W":{"ha":758,"x_min":0,"x_max":0,"o":"m 181 0 l 236 0 b 274 25 255 0 268 8 b 314 177 289 67 303 115 l 376 547 b 385 547 378 553 384 553 l 451 173 b 491 25 465 109 477 64 b 529 0 497 8 510 0 l 583 0 b 620 27 602 0 615 8 b 652 194 635 71 645 130 l 723 862 b 692 896 726 885 713 896 l 636 896 b 602 865 616 896 604 886 l 549 268 b 542 268 549 263 543 263 l 476 634 b 444 751 466 686 456 722 b 408 775 438 768 426 775 l 359 775 b 321 750 340 775 327 768 b 292 633 311 720 302 683 l 229 264 b 221 264 227 259 221 259 l 163 865 b 129 896 160 886 149 896 l 66 896 b 34 862 44 896 32 885 l 107 198 b 144 27 114 139 129 73 b 181 0 149 8 162 0 z "},"Ŵ":{"ha":758,"x_min":0,"x_max":0,"o":"m 181 0 l 236 0 b 274 25 255 0 268 8 b 314 177 289 67 303 115 l 376 547 b 385 547 378 553 384 553 l 451 173 b 491 25 465 109 477 64 b 529 0 497 8 510 0 l 583 0 b 620 27 602 0 615 8 b 652 194 635 71 645 130 l 723 862 b 692 896 726 885 713 896 l 636 896 b 602 865 616 896 604 886 l 549 268 b 542 268 549 263 543 263 l 476 634 b 444 751 466 686 456 722 b 408 775 438 768 426 775 l 359 775 b 321 750 340 775 327 768 b 292 633 311 720 302 683 l 229 264 b 221 264 227 259 221 259 l 163 865 b 129 896 160 886 149 896 l 66 896 b 34 862 44 896 32 885 l 107 198 b 144 27 114 139 129 73 b 181 0 149 8 162 0 z m 193 1008 l 273 1008 b 313 1023 289 1008 302 1011 l 372 1077 b 383 1077 375 1080 380 1080 l 441 1024 b 482 1008 452 1013 466 1008 l 564 1008 b 582 1048 593 1008 602 1027 l 452 1181 b 412 1197 441 1193 428 1197 l 346 1197 b 306 1181 330 1197 317 1193 l 176 1048 b 193 1008 155 1027 164 1008 z "},"Ẁ":{"ha":758,"x_min":0,"x_max":0,"o":"m 181 0 l 236 0 b 274 25 255 0 268 8 b 314 177 289 67 303 115 l 376 547 b 385 547 378 553 384 553 l 451 173 b 491 25 465 109 477 64 b 529 0 497 8 510 0 l 583 0 b 620 27 602 0 615 8 b 652 194 635 71 645 130 l 723 862 b 692 896 726 885 713 896 l 636 896 b 602 865 616 896 604 886 l 549 268 b 542 268 549 263 543 263 l 476 634 b 444 751 466 686 456 722 b 408 775 438 768 426 775 l 359 775 b 321 750 340 775 327 768 b 292 633 311 720 302 683 l 229 264 b 221 264 227 259 221 259 l 163 865 b 129 896 160 886 149 896 l 66 896 b 34 862 44 896 32 885 l 107 198 b 144 27 114 139 129 73 b 181 0 149 8 162 0 z m 154 1140 l 278 1024 b 319 1008 289 1013 303 1008 l 410 1008 b 429 1048 438 1008 447 1025 l 337 1162 b 298 1181 327 1174 314 1181 l 170 1181 b 154 1140 141 1181 133 1160 z "},"Ẃ":{"ha":758,"x_min":0,"x_max":0,"o":"m 181 0 l 236 0 b 274 25 255 0 268 8 b 314 177 289 67 303 115 l 376 547 b 385 547 378 553 384 553 l 451 173 b 491 25 465 109 477 64 b 529 0 497 8 510 0 l 583 0 b 620 27 602 0 615 8 b 652 194 635 71 645 130 l 723 862 b 692 896 726 885 713 896 l 636 896 b 602 865 616 896 604 886 l 549 268 b 542 268 549 263 543 263 l 476 634 b 444 751 466 686 456 722 b 408 775 438 768 426 775 l 359 775 b 321 750 340 775 327 768 b 292 633 311 720 302 683 l 229 264 b 221 264 227 259 221 259 l 163 865 b 129 896 160 886 149 896 l 66 896 b 34 862 44 896 32 885 l 107 198 b 144 27 114 139 129 73 b 181 0 149 8 162 0 z m 347 1008 l 438 1008 b 480 1024 455 1008 468 1013 l 604 1140 b 587 1181 625 1160 616 1181 l 460 1181 b 420 1162 443 1181 431 1174 l 328 1048 b 347 1008 311 1025 319 1008 z "},"Ẅ":{"ha":758,"x_min":0,"x_max":0,"o":"m 181 0 l 236 0 b 274 25 255 0 268 8 b 314 177 289 67 303 115 l 376 547 b 385 547 378 553 384 553 l 451 173 b 491 25 465 109 477 64 b 529 0 497 8 510 0 l 583 0 b 620 27 602 0 615 8 b 652 194 635 71 645 130 l 723 862 b 692 896 726 885 713 896 l 636 896 b 602 865 616 896 604 886 l 549 268 b 542 268 549 263 543 263 l 476 634 b 444 751 466 686 456 722 b 408 775 438 768 426 775 l 359 775 b 321 750 340 775 327 768 b 292 633 311 720 302 683 l 229 264 b 221 264 227 259 221 259 l 163 865 b 129 896 160 886 149 896 l 66 896 b 34 862 44 896 32 885 l 107 198 b 144 27 114 139 129 73 b 181 0 149 8 162 0 z m 140 1090 b 241 990 140 1037 186 990 b 340 1090 294 990 340 1037 b 241 1189 340 1144 294 1189 b 140 1090 186 1189 140 1144 z m 418 1090 b 519 990 418 1037 463 990 b 617 1090 572 990 617 1037 b 519 1189 617 1144 572 1189 b 418 1090 463 1189 418 1144 z "},"X":{"ha":758,"x_min":0,"x_max":0,"o":"m 572 0 l 670 0 b 693 39 696 0 706 16 l 467 457 b 467 467 466 461 466 463 l 673 857 b 649 896 684 880 674 896 l 561 896 b 523 872 543 896 530 889 l 384 593 b 374 593 381 588 376 587 l 231 872 b 192 896 223 889 210 896 l 92 896 b 69 857 67 896 57 880 l 283 466 b 283 456 284 463 284 460 l 68 39 b 92 0 57 16 67 0 l 183 0 b 221 24 201 0 213 8 l 367 326 b 378 326 370 331 375 332 l 533 24 b 572 0 540 8 554 0 z "},"Y":{"ha":758,"x_min":0,"x_max":0,"o":"m 350 0 l 431 0 b 463 33 451 0 463 11 l 463 312 b 466 322 463 314 465 319 l 710 857 b 684 896 720 880 708 896 l 609 896 b 569 871 591 896 577 889 l 394 479 b 384 479 391 473 386 473 l 206 871 b 168 896 198 889 186 896 l 78 896 b 54 857 53 896 43 880 l 314 317 b 317 307 316 314 317 309 l 317 33 b 350 0 317 13 328 0 z "},"Ý":{"ha":758,"x_min":0,"x_max":0,"o":"m 350 0 l 431 0 b 463 33 451 0 463 11 l 463 312 b 466 322 463 314 465 319 l 710 857 b 684 896 720 880 708 896 l 609 896 b 569 871 591 896 577 889 l 394 479 b 384 479 391 473 386 473 l 206 871 b 168 896 198 889 186 896 l 78 896 b 54 857 53 896 43 880 l 314 317 b 317 307 316 314 317 309 l 317 33 b 350 0 317 13 328 0 z m 351 1008 l 442 1008 b 484 1024 458 1008 472 1013 l 607 1140 b 591 1181 629 1160 620 1181 l 463 1181 b 424 1162 447 1181 434 1174 l 332 1048 b 351 1008 314 1025 323 1008 z "},"Ŷ":{"ha":758,"x_min":0,"x_max":0,"o":"m 350 0 l 431 0 b 463 33 451 0 463 11 l 463 312 b 466 322 463 314 465 319 l 710 857 b 684 896 720 880 708 896 l 609 896 b 569 871 591 896 577 889 l 394 479 b 384 479 391 473 386 473 l 206 871 b 168 896 198 889 186 896 l 78 896 b 54 857 53 896 43 880 l 314 317 b 317 307 316 314 317 309 l 317 33 b 350 0 317 13 328 0 z m 197 1008 l 277 1008 b 317 1023 293 1008 306 1011 l 376 1077 b 386 1077 379 1080 384 1080 l 444 1024 b 486 1008 456 1013 470 1008 l 568 1008 b 586 1048 597 1008 606 1027 l 456 1181 b 415 1197 444 1193 432 1197 l 350 1197 b 309 1181 333 1197 321 1193 l 179 1048 b 197 1008 159 1027 168 1008 z "},"Ÿ":{"ha":758,"x_min":0,"x_max":0,"o":"m 350 0 l 431 0 b 463 33 451 0 463 11 l 463 312 b 466 322 463 314 465 319 l 710 857 b 684 896 720 880 708 896 l 609 896 b 569 871 591 896 577 889 l 394 479 b 384 479 391 473 386 473 l 206 871 b 168 896 198 889 186 896 l 78 896 b 54 857 53 896 43 880 l 314 317 b 317 307 316 314 317 309 l 317 33 b 350 0 317 13 328 0 z m 144 1090 b 245 990 144 1037 189 990 b 343 1090 298 990 343 1037 b 245 1189 343 1144 298 1189 b 144 1090 189 1189 144 1144 z m 422 1090 b 523 990 422 1037 467 990 b 621 1090 576 990 621 1037 b 523 1189 621 1144 576 1189 b 422 1090 467 1189 422 1144 z "},"Ỳ":{"ha":758,"x_min":0,"x_max":0,"o":"m 350 0 l 431 0 b 463 33 451 0 463 11 l 463 312 b 466 322 463 314 465 319 l 710 857 b 684 896 720 880 708 896 l 609 896 b 569 871 591 896 577 889 l 394 479 b 384 479 391 473 386 473 l 206 871 b 168 896 198 889 186 896 l 78 896 b 54 857 53 896 43 880 l 314 317 b 317 307 316 314 317 309 l 317 33 b 350 0 317 13 328 0 z m 158 1140 l 282 1024 b 323 1008 293 1013 307 1008 l 414 1008 b 433 1048 442 1008 451 1025 l 341 1162 b 302 1181 331 1174 318 1181 l 174 1181 b 158 1140 145 1181 136 1160 z "},"Z":{"ha":758,"x_min":0,"x_max":0,"o":"m 106 92 l 106 33 b 139 0 106 13 117 0 l 638 0 b 670 33 658 0 670 13 l 670 93 b 638 126 670 114 658 126 l 277 126 b 271 135 271 126 269 130 l 600 688 b 643 775 619 720 633 747 b 649 814 648 789 649 801 l 649 864 b 616 896 649 884 636 896 l 163 896 b 130 864 143 896 130 884 l 130 803 b 163 770 130 783 143 770 l 484 770 b 489 761 489 770 491 766 l 179 251 b 115 133 160 220 136 178 b 106 92 109 119 106 107 z "},"Ź":{"ha":758,"x_min":0,"x_max":0,"o":"m 106 92 l 106 33 b 139 0 106 13 117 0 l 638 0 b 670 33 658 0 670 13 l 670 93 b 638 126 670 114 658 126 l 277 126 b 271 135 271 126 269 130 l 600 688 b 643 775 619 720 633 747 b 649 814 648 789 649 801 l 649 864 b 616 896 649 884 636 896 l 163 896 b 130 864 143 896 130 884 l 130 803 b 163 770 130 783 143 770 l 484 770 b 489 761 489 770 491 766 l 179 251 b 115 133 160 220 136 178 b 106 92 109 119 106 107 z m 355 1008 l 446 1008 b 487 1024 462 1008 476 1013 l 611 1140 b 595 1181 633 1160 624 1181 l 467 1181 b 428 1162 451 1181 438 1174 l 336 1048 b 355 1008 318 1025 327 1008 z "},"Ż":{"ha":758,"x_min":0,"x_max":0,"o":"m 106 92 l 106 33 b 139 0 106 13 117 0 l 638 0 b 670 33 658 0 670 13 l 670 93 b 638 126 670 114 658 126 l 277 126 b 271 135 271 126 269 130 l 600 688 b 643 775 619 720 633 747 b 649 814 648 789 649 801 l 649 864 b 616 896 649 884 636 896 l 163 896 b 130 864 143 896 130 884 l 130 803 b 163 770 130 783 143 770 l 484 770 b 489 761 489 770 491 766 l 179 251 b 115 133 160 220 136 178 b 106 92 109 119 106 107 z m 287 1090 b 388 990 287 1037 332 990 b 486 1090 441 990 486 1037 b 388 1189 486 1144 441 1189 b 287 1090 332 1189 287 1144 z "},"Ž":{"ha":758,"x_min":0,"x_max":0,"o":"m 106 92 l 106 33 b 139 0 106 13 117 0 l 638 0 b 670 33 658 0 670 13 l 670 93 b 638 126 670 114 658 126 l 277 126 b 271 135 271 126 269 130 l 600 688 b 643 775 619 720 633 747 b 649 814 648 789 649 801 l 649 864 b 616 896 649 884 636 896 l 163 896 b 130 864 143 896 130 884 l 130 803 b 163 770 130 783 143 770 l 484 770 b 489 761 489 770 491 766 l 179 251 b 115 133 160 220 136 178 b 106 92 109 119 106 107 z m 183 1153 l 313 1020 b 354 1004 324 1008 337 1004 l 419 1004 b 460 1020 436 1004 448 1008 l 590 1153 b 572 1193 610 1174 601 1193 l 492 1193 b 452 1178 476 1193 463 1189 l 393 1124 b 383 1124 390 1121 385 1121 l 324 1177 b 283 1193 313 1188 299 1193 l 201 1193 b 183 1153 172 1193 163 1174 z "},"Æ":{"ha":758,"x_min":0,"x_max":0,"o":"m 705 896 l 327 896 b 288 871 309 896 295 889 b 245 749 274 837 259 793 l 27 37 b 54 0 20 14 32 0 l 122 0 b 159 28 141 0 154 9 l 207 188 b 216 194 208 193 212 194 l 376 194 b 384 187 381 194 384 192 l 384 33 b 417 0 384 13 395 0 l 705 0 b 737 33 725 0 737 11 l 737 88 b 705 121 737 109 725 121 l 527 121 b 519 129 521 121 519 125 l 519 393 b 527 400 519 398 523 400 l 645 400 b 678 433 665 400 678 413 l 678 490 b 645 523 678 510 667 523 l 527 523 b 519 530 521 523 519 525 l 519 769 b 527 777 519 774 523 777 l 705 777 b 737 809 725 777 737 789 l 737 864 b 705 896 737 884 726 896 z m 247 323 l 336 620 b 376 773 350 667 364 721 b 384 771 378 778 384 777 l 384 322 b 376 314 384 317 381 314 l 254 314 b 247 323 249 314 246 317 z "},"Ǽ":{"ha":758,"x_min":0,"x_max":0,"o":"m 705 896 l 327 896 b 288 871 309 896 295 889 b 245 749 274 837 259 793 l 27 37 b 54 0 20 14 32 0 l 122 0 b 159 28 141 0 154 9 l 207 188 b 216 194 208 193 212 194 l 376 194 b 384 187 381 194 384 192 l 384 33 b 417 0 384 13 395 0 l 705 0 b 737 33 725 0 737 11 l 737 88 b 705 121 737 109 725 121 l 527 121 b 519 129 521 121 519 125 l 519 393 b 527 400 519 398 523 400 l 645 400 b 678 433 665 400 678 413 l 678 490 b 645 523 678 510 667 523 l 527 523 b 519 530 521 523 519 525 l 519 769 b 527 777 519 774 523 777 l 705 777 b 737 809 725 777 737 789 l 737 864 b 705 896 737 884 726 896 z m 247 323 l 336 620 b 376 773 350 667 364 721 b 384 771 378 778 384 777 l 384 322 b 376 314 384 317 381 314 l 254 314 b 247 323 249 314 246 317 z m 370 1008 l 461 1008 b 503 1024 477 1008 491 1013 l 626 1140 b 610 1181 648 1160 639 1181 l 482 1181 b 443 1162 466 1181 453 1174 l 351 1048 b 370 1008 333 1025 342 1008 z "},"Ð":{"ha":758,"x_min":0,"x_max":0,"o":"m 378 516 l 274 516 b 266 524 269 516 266 519 l 266 764 b 274 771 266 769 269 771 l 346 771 b 559 448 481 771 559 678 b 346 125 559 217 481 125 l 274 125 b 266 133 269 125 266 128 l 266 388 b 274 395 266 393 269 395 l 378 395 b 410 428 398 395 410 407 l 410 484 b 378 516 410 504 398 516 z m 63 395 l 119 395 b 126 388 124 395 126 391 l 126 33 b 159 0 126 13 139 0 l 364 0 b 708 448 572 0 708 138 b 364 896 708 760 572 896 l 159 896 b 126 864 139 896 126 885 l 126 524 b 119 516 126 519 122 516 l 63 516 b 30 484 43 516 30 505 l 30 428 b 63 395 30 408 42 395 z "},"Ø":{"ha":758,"x_min":0,"x_max":0,"o":"m 64 0 l 125 0 b 164 21 143 0 155 6 l 182 48 b 192 49 184 53 188 53 b 378 -15 244 8 306 -15 b 715 449 585 -15 715 170 b 649 745 715 567 692 668 b 650 755 648 749 648 753 l 716 857 b 694 896 730 879 721 896 l 635 896 b 596 875 617 896 606 889 l 578 847 b 567 846 576 842 571 842 b 378 912 515 889 452 912 b 43 449 173 912 43 727 b 110 150 43 331 67 229 b 109 140 111 146 111 143 l 43 39 b 64 0 28 18 38 0 z m 201 449 b 378 780 201 649 268 780 b 487 723 422 780 458 760 b 487 713 490 720 490 717 l 223 312 b 213 313 220 306 215 307 b 201 449 205 354 201 399 z m 270 182 l 535 583 b 545 582 539 588 544 588 b 557 449 553 542 557 497 b 378 116 557 249 490 116 b 270 172 336 116 299 136 b 270 182 268 176 268 178 z "},"Ǿ":{"ha":758,"x_min":0,"x_max":0,"o":"m 64 0 l 125 0 b 164 21 143 0 155 6 l 182 48 b 192 49 184 53 188 53 b 378 -15 244 8 306 -15 b 715 449 585 -15 715 170 b 649 745 715 567 692 668 b 650 755 648 749 648 753 l 716 857 b 694 896 730 879 721 896 l 635 896 b 596 875 617 896 606 889 l 578 847 b 567 846 576 842 571 842 b 378 912 515 889 452 912 b 43 449 173 912 43 727 b 110 150 43 331 67 229 b 109 140 111 146 111 143 l 43 39 b 64 0 28 18 38 0 z m 201 449 b 378 780 201 649 268 780 b 487 723 422 780 458 760 b 487 713 490 720 490 717 l 223 312 b 213 313 220 306 215 307 b 201 449 205 354 201 399 z m 270 182 l 535 583 b 545 582 539 588 544 588 b 557 449 553 542 557 497 b 378 116 557 249 490 116 b 270 172 336 116 299 136 b 270 182 268 176 268 178 z m 347 1008 l 438 1008 b 480 1024 455 1008 468 1013 l 604 1140 b 587 1181 625 1160 616 1181 l 460 1181 b 420 1162 443 1181 431 1174 l 328 1048 b 347 1008 311 1025 319 1008 z "},"Þ":{"ha":758,"x_min":0,"x_max":0,"o":"m 158 0 l 240 0 b 273 33 260 0 273 13 l 273 174 b 280 182 273 179 275 182 l 419 182 b 707 463 605 182 707 268 b 419 744 707 657 605 744 l 280 744 b 273 751 275 744 273 747 l 273 864 b 240 896 273 884 261 896 l 158 896 b 125 864 138 896 125 885 l 125 33 b 158 0 125 13 136 0 z m 273 314 l 273 610 b 280 617 273 615 275 617 l 400 617 b 547 463 501 617 547 573 b 400 307 547 351 501 307 l 280 307 b 273 314 275 307 273 311 z "},"Đ":{"ha":758,"x_min":0,"x_max":0,"o":"m 378 516 l 274 516 b 266 524 269 516 266 519 l 266 764 b 274 771 266 769 269 771 l 346 771 b 559 448 481 771 559 678 b 346 125 559 217 481 125 l 274 125 b 266 133 269 125 266 128 l 266 388 b 274 395 266 393 269 395 l 378 395 b 410 428 398 395 410 407 l 410 484 b 378 516 410 504 398 516 z m 63 395 l 119 395 b 126 388 124 395 126 391 l 126 33 b 159 0 126 13 139 0 l 364 0 b 708 448 572 0 708 138 b 364 896 708 760 572 896 l 159 896 b 126 864 139 896 126 885 l 126 524 b 119 516 126 519 122 516 l 63 516 b 30 484 43 516 30 505 l 30 428 b 63 395 30 408 42 395 z "},"Ħ":{"ha":758,"x_min":0,"x_max":0,"o":"m 713 774 l 662 774 b 654 782 657 774 654 778 l 654 864 b 621 896 654 884 643 896 l 548 896 b 515 864 528 896 515 884 l 515 782 b 508 774 515 777 513 774 l 250 774 b 242 782 245 774 242 778 l 242 864 b 210 896 242 884 231 896 l 136 896 b 104 864 116 896 104 884 l 104 782 b 96 774 104 777 101 774 l 44 774 b 11 741 24 774 11 763 l 11 689 b 44 657 11 669 23 657 l 96 657 b 104 649 101 657 104 654 l 104 33 b 136 0 104 13 115 0 l 210 0 b 242 33 230 0 242 11 l 242 380 b 250 388 242 385 245 388 l 508 388 b 515 380 513 388 515 385 l 515 33 b 548 0 515 13 527 0 l 621 0 b 654 33 641 0 654 11 l 654 649 b 662 657 654 654 657 657 l 713 657 b 746 689 734 657 746 668 l 746 741 b 713 774 746 761 735 774 z m 242 521 l 242 649 b 250 657 242 654 245 657 l 508 657 b 515 649 513 657 515 653 l 515 521 b 508 514 515 516 513 514 l 250 514 b 242 521 245 514 242 518 z "},"Ĳ":{"ha":758,"x_min":0,"x_max":0,"o":"m 121 439 l 202 439 b 235 472 222 439 235 451 l 235 864 b 202 896 235 884 223 896 l 121 896 b 88 864 101 896 88 885 l 88 472 b 121 439 88 452 100 439 z m 90 278 b 386 -15 104 80 218 -15 b 679 302 572 -15 679 106 l 679 864 b 646 896 679 884 668 896 l 566 896 b 533 864 545 896 533 885 l 533 307 b 386 116 533 194 480 116 b 237 279 304 116 250 162 b 203 312 235 301 223 312 l 122 312 b 90 278 101 312 88 299 z "},"Ŀ":{"ha":758,"x_min":0,"x_max":0,"o":"m 162 0 l 650 0 b 683 33 670 0 683 13 l 683 95 b 650 128 683 115 672 128 l 283 128 b 275 135 278 128 275 131 l 275 864 b 242 896 275 884 264 896 l 162 896 b 129 864 141 896 129 885 l 129 33 b 162 0 129 13 141 0 z m 485 532 b 586 432 485 479 530 432 b 684 532 639 432 684 479 b 586 631 684 586 639 631 b 485 532 530 631 485 586 z "},"Ł":{"ha":758,"x_min":0,"x_max":0,"o":"m 167 0 l 650 0 b 683 33 670 0 683 13 l 683 95 b 650 128 683 115 672 128 l 288 128 b 280 135 283 128 280 131 l 280 452 b 287 460 280 456 283 458 l 419 499 b 447 535 437 504 447 516 l 447 601 b 410 629 447 624 433 635 l 289 593 b 280 600 284 592 280 595 l 280 864 b 247 896 280 884 269 896 l 167 896 b 134 864 146 896 134 884 l 134 556 b 128 547 134 552 131 548 l 58 527 b 30 490 40 521 30 509 l 30 426 b 67 398 30 403 44 391 l 125 414 b 134 408 130 415 134 413 l 134 33 b 167 0 134 13 146 0 z "},"Ŋ":{"ha":758,"x_min":0,"x_max":0,"o":"m 122 0 l 186 0 b 218 33 206 0 218 11 l 218 630 b 227 633 218 638 225 639 l 462 130 b 532 8 485 81 508 39 b 535 -1 534 5 535 3 l 535 -37 b 437 -157 535 -112 494 -157 b 316 -131 396 -157 352 -145 b 274 -150 295 -124 280 -130 l 254 -215 b 274 -256 247 -234 255 -250 b 434 -285 317 -273 374 -285 b 668 -47 578 -285 668 -198 l 668 864 b 635 896 668 884 657 896 l 568 896 b 535 864 548 896 535 885 l 535 284 b 527 283 535 277 529 277 l 309 766 b 249 876 289 812 270 846 b 208 896 239 891 225 896 l 122 896 b 90 864 102 896 90 885 l 90 33 b 122 0 90 13 101 0 z "},"Œ":{"ha":758,"x_min":0,"x_max":0,"o":"m 34 448 b 313 0 34 138 144 0 l 701 0 b 734 33 721 0 734 13 l 734 90 b 701 122 734 110 721 122 l 521 122 b 514 130 516 122 514 126 l 514 394 b 521 402 514 399 516 402 l 641 402 b 674 434 662 402 674 413 l 674 490 b 641 523 674 510 663 523 l 521 523 b 514 530 516 523 514 525 l 514 768 b 521 775 514 773 518 775 l 701 775 b 734 808 721 775 734 787 l 734 864 b 701 896 734 884 721 896 l 313 896 b 34 448 144 896 34 760 z m 183 448 b 331 777 183 682 237 777 l 370 777 b 378 769 375 777 378 773 l 378 128 b 370 120 378 122 374 120 l 331 120 b 183 448 237 120 183 213 z "},"Ŧ":{"ha":758,"x_min":0,"x_max":0,"o":"m 574 484 l 460 484 b 452 491 455 484 452 486 l 452 761 b 460 769 452 766 456 769 l 652 769 b 684 802 672 769 684 782 l 684 864 b 652 896 684 884 672 896 l 105 896 b 72 864 85 896 72 884 l 72 802 b 105 769 72 782 85 769 l 297 769 b 304 761 302 769 304 766 l 304 491 b 297 484 304 486 302 484 l 183 484 b 150 451 163 484 150 472 l 150 388 b 183 355 150 367 163 355 l 297 355 b 304 347 302 355 304 352 l 304 33 b 337 0 304 13 316 0 l 419 0 b 452 33 439 0 452 13 l 452 347 b 460 355 452 352 455 355 l 574 355 b 607 388 595 355 607 366 l 607 451 b 574 484 607 471 596 484 z "},"a":{"ha":758,"x_min":0,"x_max":0,"o":"m 629 -15 b 723 5 672 -15 698 -8 b 736 43 736 11 740 24 l 726 96 b 684 114 722 119 707 122 b 660 110 677 111 669 110 b 633 181 636 110 633 141 l 633 482 b 378 713 633 626 543 713 b 117 585 274 713 176 674 b 129 540 106 567 111 552 l 196 500 b 240 513 213 490 229 494 b 378 588 277 567 324 588 b 487 486 446 588 487 548 l 487 456 b 480 447 487 452 485 448 b 78 186 193 402 78 335 b 284 -15 78 68 162 -15 b 494 77 357 -15 427 13 b 504 74 497 81 501 80 b 629 -15 528 21 573 -15 z m 231 188 b 471 337 231 273 308 307 b 487 331 481 338 487 336 l 487 212 b 485 203 487 208 486 206 b 309 102 444 150 369 102 b 231 188 264 102 231 135 z "},"à":{"ha":758,"x_min":0,"x_max":0,"o":"m 629 -15 b 723 5 672 -15 698 -8 b 736 43 736 11 740 24 l 726 96 b 684 114 722 119 707 122 b 660 110 677 111 669 110 b 633 181 636 110 633 141 l 633 482 b 378 713 633 626 543 713 b 117 585 274 713 176 674 b 129 540 106 567 111 552 l 196 500 b 240 513 213 490 229 494 b 378 588 277 567 324 588 b 487 486 446 588 487 548 l 487 456 b 480 447 487 452 485 448 b 78 186 193 402 78 335 b 284 -15 78 68 162 -15 b 494 77 357 -15 427 13 b 504 74 497 81 501 80 b 629 -15 528 21 573 -15 z m 187 986 l 294 846 b 335 826 304 832 318 826 l 417 826 b 439 865 442 826 452 842 l 362 1004 b 323 1027 354 1019 341 1027 l 207 1027 b 187 986 179 1027 170 1008 z m 231 188 b 471 337 231 273 308 307 b 487 331 481 338 487 336 l 487 212 b 485 203 487 208 486 206 b 309 102 444 150 369 102 b 231 188 264 102 231 135 z "},"á":{"ha":758,"x_min":0,"x_max":0,"o":"m 629 -15 b 723 5 672 -15 698 -8 b 736 43 736 11 740 24 l 726 96 b 684 114 722 119 707 122 b 660 110 677 111 669 110 b 633 181 636 110 633 141 l 633 482 b 378 713 633 626 543 713 b 117 585 274 713 176 674 b 129 540 106 567 111 552 l 196 500 b 240 513 213 490 229 494 b 378 588 277 567 324 588 b 487 486 446 588 487 548 l 487 456 b 480 447 487 452 485 448 b 78 186 193 402 78 335 b 284 -15 78 68 162 -15 b 494 77 357 -15 427 13 b 504 74 497 81 501 80 b 629 -15 528 21 573 -15 z m 231 188 b 471 337 231 273 308 307 b 487 331 481 338 487 336 l 487 212 b 485 203 487 208 486 206 b 309 102 444 150 369 102 b 231 188 264 102 231 135 z m 359 826 l 441 826 b 481 846 457 826 471 832 l 590 986 b 569 1027 606 1008 597 1027 l 452 1027 b 413 1004 434 1027 422 1019 l 336 865 b 359 826 323 842 333 826 z "},"â":{"ha":758,"x_min":0,"x_max":0,"o":"m 629 -15 b 723 5 672 -15 698 -8 b 736 43 736 11 740 24 l 726 96 b 684 114 722 119 707 122 b 660 110 677 111 669 110 b 633 181 636 110 633 141 l 633 482 b 378 713 633 626 543 713 b 117 585 274 713 176 674 b 129 540 106 567 111 552 l 196 500 b 240 513 213 490 229 494 b 378 588 277 567 324 588 b 487 486 446 588 487 548 l 487 456 b 480 447 487 452 485 448 b 78 186 193 402 78 335 b 284 -15 78 68 162 -15 b 494 77 357 -15 427 13 b 504 74 497 81 501 80 b 629 -15 528 21 573 -15 z m 203 824 l 274 824 b 314 841 290 824 302 828 l 376 903 b 386 903 379 905 384 905 l 449 841 b 490 824 462 828 473 824 l 563 824 b 581 865 591 824 600 843 l 448 1018 b 408 1035 437 1032 424 1035 l 359 1035 b 318 1018 342 1035 330 1030 l 184 865 b 203 824 165 843 176 824 z m 231 188 b 471 337 231 273 308 307 b 487 331 481 338 487 336 l 487 212 b 485 203 487 208 486 206 b 309 102 444 150 369 102 b 231 188 264 102 231 135 z "},"ã":{"ha":758,"x_min":0,"x_max":0,"o":"m 629 -15 b 723 5 672 -15 698 -8 b 736 43 736 11 740 24 l 726 96 b 684 114 722 119 707 122 b 660 110 677 111 669 110 b 633 181 636 110 633 141 l 633 482 b 378 713 633 626 543 713 b 117 585 274 713 176 674 b 129 540 106 567 111 552 l 196 500 b 240 513 213 490 229 494 b 378 588 277 567 324 588 b 487 486 446 588 487 548 l 487 456 b 480 447 487 452 485 448 b 78 186 193 402 78 335 b 284 -15 78 68 162 -15 b 494 77 357 -15 427 13 b 504 74 497 81 501 80 b 629 -15 528 21 573 -15 z m 201 818 l 247 818 b 283 850 268 818 278 828 b 314 884 289 874 299 884 b 472 816 348 884 404 816 b 611 968 538 816 596 860 b 581 1004 615 991 602 1004 l 534 1004 b 500 972 514 1004 505 992 b 468 936 494 947 481 936 b 309 1005 433 936 378 1005 b 169 854 237 1005 184 960 b 201 818 167 831 179 818 z m 231 188 b 471 337 231 273 308 307 b 487 331 481 338 487 336 l 487 212 b 485 203 487 208 486 206 b 309 102 444 150 369 102 b 231 188 264 102 231 135 z "},"ä":{"ha":758,"x_min":0,"x_max":0,"o":"m 629 -15 b 723 5 672 -15 698 -8 b 736 43 736 11 740 24 l 726 96 b 684 114 722 119 707 122 b 660 110 677 111 669 110 b 633 181 636 110 633 141 l 633 482 b 378 713 633 626 543 713 b 117 585 274 713 176 674 b 129 540 106 567 111 552 l 196 500 b 240 513 213 490 229 494 b 378 588 277 567 324 588 b 487 486 446 588 487 548 l 487 456 b 480 447 487 452 485 448 b 78 186 193 402 78 335 b 284 -15 78 68 162 -15 b 494 77 357 -15 427 13 b 504 74 497 81 501 80 b 629 -15 528 21 573 -15 z m 131 915 b 241 806 131 857 181 806 b 348 915 299 806 348 857 b 241 1024 348 975 299 1024 b 131 915 181 1024 131 975 z m 231 188 b 471 337 231 273 308 307 b 487 331 481 338 487 336 l 487 212 b 485 203 487 208 486 206 b 309 102 444 150 369 102 b 231 188 264 102 231 135 z m 417 915 b 527 806 417 857 466 806 b 634 915 585 806 634 857 b 527 1024 634 975 585 1024 b 417 915 466 1024 417 975 z "},"å":{"ha":758,"x_min":0,"x_max":0,"o":"m 629 -15 b 723 5 672 -15 698 -8 b 736 43 736 11 740 24 l 726 96 b 684 114 722 119 707 122 b 660 110 677 111 669 110 b 633 181 636 110 633 141 l 633 482 b 378 713 633 626 543 713 b 117 585 274 713 176 674 b 129 540 106 567 111 552 l 196 500 b 240 513 213 490 229 494 b 378 588 277 567 324 588 b 487 486 446 588 487 548 l 487 456 b 480 447 487 452 485 448 b 78 186 193 402 78 335 b 284 -15 78 68 162 -15 b 494 77 357 -15 427 13 b 504 74 497 81 501 80 b 629 -15 528 21 573 -15 z m 231 188 b 471 337 231 273 308 307 b 487 331 481 338 487 336 l 487 212 b 485 203 487 208 486 206 b 309 102 444 150 369 102 b 231 188 264 102 231 135 z m 234 927 b 384 788 234 847 301 788 b 532 927 466 788 532 847 b 384 1066 532 1008 466 1066 b 234 927 302 1066 234 1008 z m 330 927 b 384 982 330 960 354 982 b 436 927 413 982 436 958 b 384 871 436 896 413 871 b 330 927 354 871 330 895 z "},"ā":{"ha":758,"x_min":0,"x_max":0,"o":"m 629 -15 b 723 5 672 -15 698 -8 b 736 43 736 11 740 24 l 726 96 b 684 114 722 119 707 122 b 660 110 677 111 669 110 b 633 181 636 110 633 141 l 633 482 b 378 713 633 626 543 713 b 117 585 274 713 176 674 b 129 540 106 567 111 552 l 196 500 b 240 513 213 490 229 494 b 378 588 277 567 324 588 b 487 486 446 588 487 548 l 487 456 b 480 447 487 452 485 448 b 78 186 193 402 78 335 b 284 -15 78 68 162 -15 b 494 77 357 -15 427 13 b 504 74 497 81 501 80 b 629 -15 528 21 573 -15 z m 221 821 l 544 821 b 577 854 564 821 577 833 l 577 915 b 544 948 577 936 564 948 l 221 948 b 188 915 201 948 188 936 l 188 854 b 221 821 188 833 199 821 z m 231 188 b 471 337 231 273 308 307 b 487 331 481 338 487 336 l 487 212 b 485 203 487 208 486 206 b 309 102 444 150 369 102 b 231 188 264 102 231 135 z "},"ă":{"ha":758,"x_min":0,"x_max":0,"o":"m 629 -15 b 723 5 672 -15 698 -8 b 736 43 736 11 740 24 l 726 96 b 684 114 722 119 707 122 b 660 110 677 111 669 110 b 633 181 636 110 633 141 l 633 482 b 378 713 633 626 543 713 b 117 585 274 713 176 674 b 129 540 106 567 111 552 l 196 500 b 240 513 213 490 229 494 b 378 588 277 567 324 588 b 487 486 446 588 487 548 l 487 456 b 480 447 487 452 485 448 b 78 186 193 402 78 335 b 284 -15 78 68 162 -15 b 494 77 357 -15 427 13 b 504 74 497 81 501 80 b 629 -15 528 21 573 -15 z m 169 968 b 383 798 196 855 283 798 b 596 967 480 798 568 855 b 566 1004 601 990 588 1004 l 500 1004 b 465 973 480 1004 470 994 b 384 918 453 936 426 918 b 301 973 338 918 311 936 b 265 1004 294 994 285 1004 l 198 1004 b 169 968 176 1004 164 990 z m 231 188 b 471 337 231 273 308 307 b 487 331 481 338 487 336 l 487 212 b 485 203 487 208 486 206 b 309 102 444 150 369 102 b 231 188 264 102 231 135 z "},"ą":{"ha":758,"x_min":0,"x_max":0,"o":"m 284 -15 b 491 74 357 -15 426 11 b 504 74 496 80 501 80 b 592 -10 521 33 553 1 b 595 -20 597 -11 598 -15 b 501 -202 540 -67 501 -133 b 634 -331 501 -292 563 -331 b 712 -316 663 -331 688 -326 b 734 -277 729 -308 735 -294 l 731 -237 b 693 -218 729 -212 716 -210 b 667 -223 684 -222 676 -223 b 628 -170 644 -223 628 -207 b 721 -3 628 -122 652 -69 b 736 40 735 10 740 23 l 726 96 b 684 114 722 119 707 122 b 660 110 677 111 669 110 b 633 181 636 110 633 141 l 633 482 b 378 713 633 626 543 713 b 117 585 274 713 176 674 b 129 540 106 567 111 552 l 196 500 b 240 513 213 490 229 494 b 378 588 277 567 324 588 b 487 486 446 588 487 548 l 487 456 b 480 447 487 452 485 448 b 78 186 193 402 78 335 b 284 -15 78 68 162 -15 z m 231 188 b 471 337 231 273 308 307 b 487 331 481 338 487 336 l 487 212 b 485 203 487 208 486 206 b 309 102 444 150 369 102 b 231 188 264 102 231 135 z "},"ǻ":{"ha":758,"x_min":0,"x_max":0,"o":"m 376 1071 l 443 1071 b 485 1087 460 1071 473 1076 l 583 1178 b 567 1218 605 1198 596 1218 l 471 1218 b 432 1199 455 1218 443 1213 l 357 1111 b 376 1071 340 1090 348 1071 z m 78 186 b 284 -15 78 68 162 -15 b 494 77 357 -15 427 13 b 504 74 497 81 501 80 b 629 -15 528 21 573 -15 b 717 1 668 -15 693 -9 b 736 43 734 10 740 24 l 726 96 b 684 114 722 119 707 122 b 660 110 677 111 669 110 b 633 181 636 110 633 141 l 633 482 b 378 713 633 626 543 713 b 117 585 274 713 176 674 b 129 540 106 567 111 552 l 196 500 b 240 513 213 490 229 494 b 378 588 277 567 324 588 b 487 486 446 588 487 548 l 487 456 b 480 447 487 452 485 448 b 78 186 193 402 78 335 z m 231 188 b 471 337 231 273 308 307 b 487 331 481 338 487 336 l 487 212 b 485 203 487 208 486 206 b 309 102 444 150 369 102 b 231 188 264 102 231 135 z m 255 888 b 393 761 255 814 317 761 b 529 888 468 761 529 816 b 393 1011 529 960 468 1011 b 255 888 317 1011 255 960 z m 343 888 b 393 937 343 915 366 937 b 441 888 419 937 441 915 b 393 840 441 860 419 840 b 343 888 366 840 343 859 z "},"b":{"ha":758,"x_min":0,"x_max":0,"o":"m 417 -15 b 689 351 567 -15 689 107 b 415 713 689 591 558 713 b 255 631 348 713 295 686 b 246 635 251 626 246 629 l 246 914 b 213 947 246 934 234 947 l 135 947 b 102 914 115 947 102 934 l 102 33 b 135 0 102 13 114 0 l 182 0 b 217 29 201 0 213 10 l 230 82 b 240 83 231 90 236 90 b 417 -15 280 21 340 -15 z m 246 260 l 246 447 b 247 457 246 449 246 453 b 399 588 284 548 341 588 b 537 351 486 588 537 494 b 399 111 537 196 484 111 b 247 250 352 111 287 131 b 246 260 246 254 246 258 z "},"c":{"ha":758,"x_min":0,"x_max":0,"o":"m 409 -15 b 677 136 523 -15 617 34 b 660 182 688 158 681 174 l 581 211 b 538 191 562 217 548 211 b 409 112 508 133 463 112 b 249 351 312 112 249 210 b 409 587 249 491 312 587 b 534 495 472 587 510 549 b 576 475 543 475 557 468 l 658 501 b 677 543 678 508 687 523 b 409 713 629 646 547 713 b 96 351 218 713 96 566 b 409 -15 96 134 218 -15 z "},"ç":{"ha":758,"x_min":0,"x_max":0,"o":"m 385 -347 b 540 -208 465 -347 540 -312 b 414 -76 540 -125 496 -82 b 409 -66 409 -74 407 -71 l 432 -19 b 441 -14 433 -15 436 -14 b 678 139 542 -5 625 44 b 660 182 688 159 681 174 l 581 211 b 538 191 562 217 548 211 b 409 112 508 133 463 112 b 249 351 312 112 249 210 b 409 587 249 491 312 587 b 534 495 472 587 510 549 b 576 475 543 475 557 468 l 658 501 b 677 543 678 508 687 523 b 409 713 629 646 547 713 b 96 351 218 713 96 566 b 335 -8 96 164 187 27 b 340 -16 340 -9 342 -13 l 307 -87 b 308 -131 299 -102 299 -116 b 348 -152 316 -145 328 -152 b 432 -203 415 -149 432 -167 b 389 -251 432 -234 415 -251 b 335 -239 372 -251 354 -246 b 292 -258 314 -231 298 -237 l 280 -293 b 301 -335 274 -313 280 -328 b 385 -347 326 -342 355 -347 z "},"ć":{"ha":758,"x_min":0,"x_max":0,"o":"m 409 -15 b 677 136 523 -15 617 34 b 660 182 688 158 681 174 l 581 211 b 538 191 562 217 548 211 b 409 112 508 133 463 112 b 249 351 312 112 249 210 b 409 587 249 491 312 587 b 534 495 472 587 510 549 b 576 475 543 475 557 468 l 658 501 b 677 543 678 508 687 523 b 409 713 629 646 547 713 b 96 351 218 713 96 566 b 409 -15 96 134 218 -15 z m 389 826 l 471 826 b 511 846 487 826 501 832 l 620 986 b 600 1027 636 1008 628 1027 l 482 1027 b 443 1004 465 1027 452 1019 l 366 865 b 389 826 354 842 364 826 z "},"ĉ":{"ha":758,"x_min":0,"x_max":0,"o":"m 409 -15 b 677 136 523 -15 617 34 b 660 182 688 158 681 174 l 581 211 b 538 191 562 217 548 211 b 409 112 508 133 463 112 b 249 351 312 112 249 210 b 409 587 249 491 312 587 b 534 495 472 587 510 549 b 576 475 543 475 557 468 l 658 501 b 677 543 678 508 687 523 b 409 713 629 646 547 713 b 96 351 218 713 96 566 b 409 -15 96 134 218 -15 z m 234 824 l 304 824 b 345 841 321 824 332 828 l 407 903 b 417 903 409 905 414 905 l 480 841 b 520 824 492 828 504 824 l 593 824 b 611 865 621 824 630 843 l 479 1018 b 438 1035 467 1032 455 1035 l 389 1035 b 348 1018 372 1035 360 1030 l 215 865 b 234 824 196 843 206 824 z "},"ċ":{"ha":758,"x_min":0,"x_max":0,"o":"m 409 -15 b 677 136 523 -15 617 34 b 660 182 688 158 681 174 l 581 211 b 538 191 562 217 548 211 b 409 112 508 133 463 112 b 249 351 312 112 249 210 b 409 587 249 491 312 587 b 534 495 472 587 510 549 b 576 475 543 475 557 468 l 658 501 b 677 543 678 508 687 523 b 409 713 629 646 547 713 b 96 351 218 713 96 566 b 409 -15 96 134 218 -15 z m 304 915 b 414 806 304 857 354 806 b 521 915 472 806 521 857 b 414 1024 521 975 472 1024 b 304 915 354 1024 304 975 z "},"č":{"ha":758,"x_min":0,"x_max":0,"o":"m 409 -15 b 677 136 523 -15 617 34 b 660 182 688 158 681 174 l 581 211 b 538 191 562 217 548 211 b 409 112 508 133 463 112 b 249 351 312 112 249 210 b 409 587 249 491 312 587 b 534 495 472 587 510 549 b 576 475 543 475 557 468 l 658 501 b 677 543 678 508 687 523 b 409 713 629 646 547 713 b 96 351 218 713 96 566 b 409 -15 96 134 218 -15 z m 215 984 l 347 831 b 388 813 359 817 371 813 l 437 813 b 477 831 453 813 466 818 l 611 984 b 592 1024 630 1005 620 1024 l 521 1024 b 481 1008 505 1024 494 1020 l 419 946 b 409 946 417 943 412 943 l 346 1008 b 306 1024 333 1020 322 1024 l 232 1024 b 215 984 205 1024 196 1005 z "},"d":{"ha":758,"x_min":0,"x_max":0,"o":"m 341 -15 b 518 83 418 -15 477 21 b 528 82 521 90 527 90 l 540 29 b 576 0 544 10 557 0 l 622 0 b 655 33 643 0 655 13 l 655 914 b 622 947 655 934 643 947 l 544 947 b 511 914 524 947 511 936 l 511 635 b 503 631 511 629 506 626 b 342 713 462 686 409 713 b 68 351 199 713 68 591 b 341 -15 68 107 191 -15 z m 221 351 b 359 588 221 494 271 588 b 510 457 417 588 473 548 b 511 447 511 453 511 449 l 511 260 b 510 250 511 258 511 254 b 359 111 471 131 405 111 b 221 351 274 111 221 196 z "},"ď":{"ha":758,"x_min":0,"x_max":0,"o":"m 319 -15 b 492 85 399 -15 453 23 b 501 83 496 91 500 91 l 514 29 b 549 0 518 10 530 0 l 585 0 b 617 33 605 0 617 13 l 617 914 b 585 947 617 934 606 947 l 519 947 b 486 914 499 947 486 934 l 486 639 b 477 636 486 633 481 630 b 324 713 441 688 391 713 b 58 351 182 713 58 591 b 319 -15 58 107 169 -15 z m 203 351 b 336 597 203 494 253 597 b 485 455 395 597 449 548 b 486 444 486 451 486 447 l 486 260 b 485 250 486 258 486 254 b 336 104 446 131 384 104 b 203 351 255 104 203 197 z m 740 722 l 802 722 b 836 753 822 722 833 732 l 856 912 b 824 947 859 933 846 947 l 740 947 b 707 914 720 947 707 936 l 707 755 b 740 722 707 735 720 722 z "},"e":{"ha":758,"x_min":0,"x_max":0,"o":"m 408 -15 b 674 100 516 -15 610 20 b 663 145 688 117 683 134 l 592 183 b 548 170 574 193 561 188 b 409 105 516 126 470 105 b 231 283 306 105 246 164 b 237 290 230 288 232 290 l 657 290 b 692 321 677 290 689 301 b 699 413 697 352 699 388 b 400 713 699 578 587 713 b 76 351 207 713 76 567 b 408 -15 76 106 198 -15 z m 231 407 b 400 595 244 520 302 595 b 552 424 491 595 549 520 b 552 407 552 418 552 412 b 543 399 551 402 547 399 l 237 399 b 231 407 232 399 230 402 z "},"è":{"ha":758,"x_min":0,"x_max":0,"o":"m 408 -15 b 674 100 516 -15 610 20 b 663 145 688 117 683 134 l 592 183 b 548 170 574 193 561 188 b 409 105 516 126 470 105 b 231 283 306 105 246 164 b 237 290 230 288 232 290 l 657 290 b 692 321 677 290 689 301 b 699 413 697 352 699 388 b 400 713 699 578 587 713 b 76 351 207 713 76 567 b 408 -15 76 106 198 -15 z m 199 986 l 307 846 b 347 826 317 832 331 826 l 429 826 b 452 865 455 826 465 842 l 375 1004 b 336 1027 366 1019 354 1027 l 220 1027 b 199 986 192 1027 183 1008 z m 231 407 b 400 595 244 520 302 595 b 552 424 491 595 549 520 b 552 407 552 418 552 412 b 543 399 551 402 547 399 l 237 399 b 231 407 232 399 230 402 z "},"é":{"ha":758,"x_min":0,"x_max":0,"o":"m 408 -15 b 674 100 516 -15 610 20 b 663 145 688 117 683 134 l 592 183 b 548 170 574 193 561 188 b 409 105 516 126 470 105 b 231 283 306 105 246 164 b 237 290 230 288 232 290 l 657 290 b 692 321 677 290 689 301 b 699 413 697 352 699 388 b 400 713 699 578 587 713 b 76 351 207 713 76 567 b 408 -15 76 106 198 -15 z m 231 407 b 400 595 244 520 302 595 b 552 424 491 595 549 520 b 552 407 552 418 552 412 b 543 399 551 402 547 399 l 237 399 b 231 407 232 399 230 402 z m 371 826 l 453 826 b 494 846 470 826 484 832 l 602 986 b 582 1027 619 1008 610 1027 l 465 1027 b 426 1004 447 1027 434 1019 l 348 865 b 371 826 336 842 346 826 z "},"ê":{"ha":758,"x_min":0,"x_max":0,"o":"m 408 -15 b 674 100 516 -15 610 20 b 663 145 688 117 683 134 l 592 183 b 548 170 574 193 561 188 b 409 105 516 126 470 105 b 231 283 306 105 246 164 b 237 290 230 288 232 290 l 657 290 b 692 321 677 290 689 301 b 699 413 697 352 699 388 b 400 713 699 578 587 713 b 76 351 207 713 76 567 b 408 -15 76 106 198 -15 z m 216 824 l 287 824 b 327 841 303 824 314 828 l 389 903 b 399 903 391 905 396 905 l 462 841 b 503 824 475 828 486 824 l 576 824 b 593 865 604 824 612 843 l 461 1018 b 420 1035 449 1032 437 1035 l 371 1035 b 331 1018 355 1035 342 1030 l 197 865 b 216 824 178 843 188 824 z m 231 407 b 400 595 244 520 302 595 b 552 424 491 595 549 520 b 552 407 552 418 552 412 b 543 399 551 402 547 399 l 237 399 b 231 407 232 399 230 402 z "},"ë":{"ha":758,"x_min":0,"x_max":0,"o":"m 408 -15 b 674 100 516 -15 610 20 b 663 145 688 117 683 134 l 592 183 b 548 170 574 193 561 188 b 409 105 516 126 470 105 b 231 283 306 105 246 164 b 237 290 230 288 232 290 l 657 290 b 692 321 677 290 689 301 b 699 413 697 352 699 388 b 400 713 699 578 587 713 b 76 351 207 713 76 567 b 408 -15 76 106 198 -15 z m 144 915 b 254 806 144 857 193 806 b 361 915 312 806 361 857 b 254 1024 361 975 312 1024 b 144 915 193 1024 144 975 z m 231 407 b 400 595 244 520 302 595 b 552 424 491 595 549 520 b 552 407 552 418 552 412 b 543 399 551 402 547 399 l 237 399 b 231 407 232 399 230 402 z m 429 915 b 539 806 429 857 479 806 b 646 915 597 806 646 857 b 539 1024 646 975 597 1024 b 429 915 479 1024 429 975 z "},"ē":{"ha":758,"x_min":0,"x_max":0,"o":"m 408 -15 b 674 100 516 -15 610 20 b 663 145 688 117 683 134 l 592 183 b 548 170 574 193 561 188 b 409 105 516 126 470 105 b 231 283 306 105 246 164 b 237 290 230 288 232 290 l 657 290 b 692 321 677 290 689 301 b 699 413 697 352 699 388 b 400 713 699 578 587 713 b 76 351 207 713 76 567 b 408 -15 76 106 198 -15 z m 234 821 l 557 821 b 590 854 577 821 590 833 l 590 915 b 557 948 590 936 577 948 l 234 948 b 201 915 213 948 201 936 l 201 854 b 234 821 201 833 212 821 z m 231 407 b 400 595 244 520 302 595 b 552 424 491 595 549 520 b 552 407 552 418 552 412 b 543 399 551 402 547 399 l 237 399 b 231 407 232 399 230 402 z "},"ĕ":{"ha":758,"x_min":0,"x_max":0,"o":"m 408 -15 b 674 100 516 -15 610 20 b 663 145 688 117 683 134 l 592 183 b 548 170 574 193 561 188 b 409 105 516 126 470 105 b 231 283 306 105 246 164 b 237 290 230 288 232 290 l 657 290 b 692 321 677 290 689 301 b 699 413 697 352 699 388 b 400 713 699 578 587 713 b 76 351 207 713 76 567 b 408 -15 76 106 198 -15 z m 182 968 b 395 798 208 855 295 798 b 609 967 492 798 581 855 b 578 1004 614 990 601 1004 l 513 1004 b 477 973 492 1004 482 994 b 396 918 466 936 438 918 b 313 973 351 918 323 936 b 278 1004 307 994 298 1004 l 211 1004 b 182 968 188 1004 177 990 z m 231 407 b 400 595 244 520 302 595 b 552 424 491 595 549 520 b 552 407 552 418 552 412 b 543 399 551 402 547 399 l 237 399 b 231 407 232 399 230 402 z "},"ė":{"ha":758,"x_min":0,"x_max":0,"o":"m 408 -15 b 674 100 516 -15 610 20 b 663 145 688 117 683 134 l 592 183 b 548 170 574 193 561 188 b 409 105 516 126 470 105 b 231 283 306 105 246 164 b 237 290 230 288 232 290 l 657 290 b 692 321 677 290 689 301 b 699 413 697 352 699 388 b 400 713 699 578 587 713 b 76 351 207 713 76 567 b 408 -15 76 106 198 -15 z m 231 407 b 400 595 244 520 302 595 b 552 424 491 595 549 520 b 552 407 552 418 552 412 b 543 399 551 402 547 399 l 237 399 b 231 407 232 399 230 402 z m 287 915 b 396 806 287 857 336 806 b 504 915 455 806 504 857 b 396 1024 504 975 455 1024 b 287 915 336 1024 287 975 z "},"ę":{"ha":758,"x_min":0,"x_max":0,"o":"m 408 -15 b 456 -13 424 -15 441 -14 b 461 -21 462 -13 463 -15 b 405 -188 427 -72 405 -129 b 543 -331 405 -283 465 -331 b 625 -316 574 -331 601 -326 b 646 -277 641 -308 648 -294 l 644 -237 b 606 -218 641 -212 629 -210 b 580 -223 597 -222 588 -223 b 533 -163 553 -223 533 -207 b 660 83 533 -96 564 -27 b 663 87 659 83 660 83 l 678 105 b 663 145 689 120 683 134 l 592 183 b 548 170 574 193 561 188 b 409 105 516 126 470 105 b 231 283 306 105 246 164 b 237 290 230 288 232 290 l 657 290 b 692 321 677 290 689 301 b 699 413 697 352 699 388 b 400 713 699 578 587 713 b 76 351 207 713 76 567 b 408 -15 76 106 198 -15 z m 231 407 b 400 595 244 520 302 595 b 552 424 491 595 549 520 b 552 407 552 418 552 412 b 543 399 551 402 547 399 l 237 399 b 231 407 232 399 230 402 z "},"ě":{"ha":758,"x_min":0,"x_max":0,"o":"m 408 -15 b 674 100 516 -15 610 20 b 663 145 688 117 683 134 l 592 183 b 548 170 574 193 561 188 b 409 105 516 126 470 105 b 231 283 306 105 246 164 b 237 290 230 288 232 290 l 657 290 b 692 321 677 290 689 301 b 699 413 697 352 699 388 b 400 713 699 578 587 713 b 76 351 207 713 76 567 b 408 -15 76 106 198 -15 z m 197 984 l 330 831 b 370 813 341 817 354 813 l 419 813 b 460 831 436 813 448 818 l 593 984 b 574 1024 612 1005 602 1024 l 504 1024 b 463 1008 487 1024 476 1020 l 402 946 b 391 946 399 943 394 943 l 328 1008 b 288 1024 316 1020 304 1024 l 215 1024 b 197 984 187 1024 178 1005 z m 231 407 b 400 595 244 520 302 595 b 552 424 491 595 549 520 b 552 407 552 418 552 412 b 543 399 551 402 547 399 l 237 399 b 231 407 232 399 230 402 z "},"f":{"ha":758,"x_min":0,"x_max":0,"o":"m 255 741 l 255 706 b 247 698 255 701 253 698 l 125 698 b 92 665 105 698 92 687 l 92 610 b 125 577 92 590 104 577 l 247 577 b 255 569 253 577 255 574 l 255 33 b 288 0 255 13 268 0 l 366 0 b 399 33 386 0 399 13 l 399 569 b 407 577 399 574 403 577 l 653 577 b 686 610 673 577 686 588 l 686 665 b 653 698 686 686 674 698 l 407 698 b 399 706 402 698 399 701 l 399 741 b 497 842 399 802 436 842 b 625 808 544 842 585 830 b 669 821 644 798 659 802 l 701 880 b 687 924 711 899 706 914 b 494 968 631 951 576 968 b 255 741 338 968 255 880 z "},"g":{"ha":758,"x_min":0,"x_max":0,"o":"m 383 -256 b 708 -40 574 -256 708 -186 b 465 157 708 87 596 141 l 342 170 b 244 218 275 178 244 189 b 278 269 244 235 256 254 b 288 271 282 271 284 273 b 388 259 318 264 352 259 b 669 486 558 259 669 350 b 624 615 669 534 653 578 b 626 625 621 619 622 622 l 734 689 b 741 736 753 701 755 718 l 691 797 b 645 799 677 814 660 814 l 533 689 b 521 688 529 686 527 687 b 388 713 482 705 438 713 b 106 486 220 713 106 614 b 193 314 106 414 139 354 b 193 304 197 312 197 307 b 116 191 146 274 116 236 b 183 90 116 144 140 112 b 183 80 188 87 188 82 b 71 -72 119 45 71 -4 b 383 -256 71 -186 178 -256 z m 211 -53 b 298 54 211 -14 240 23 b 311 58 303 57 307 58 b 424 45 343 54 383 49 b 572 -42 543 35 572 -6 b 384 -145 572 -107 506 -145 b 211 -53 261 -145 211 -107 z m 250 486 b 388 601 250 549 304 601 b 525 486 471 601 525 549 b 388 371 525 422 471 371 b 250 486 304 371 250 422 z "},"ĝ":{"ha":758,"x_min":0,"x_max":0,"o":"m 384 -309 b 708 -81 573 -309 708 -235 b 465 134 708 58 596 119 l 342 148 b 244 202 275 155 244 169 b 275 255 244 221 255 240 b 285 258 279 258 282 259 b 383 244 314 249 348 244 b 660 479 551 244 660 345 b 624 602 660 524 646 567 b 626 612 620 606 622 610 l 729 664 b 741 710 747 674 754 692 l 699 771 b 654 778 687 789 672 793 l 540 682 b 530 681 538 679 534 679 b 383 713 489 702 438 713 b 106 479 218 713 106 611 b 194 302 106 408 139 343 b 194 292 199 299 198 295 b 116 173 145 261 116 221 b 186 67 116 124 145 90 b 187 57 192 64 192 59 b 71 -111 121 19 71 -35 b 384 -309 71 -234 179 -309 z m 210 824 l 280 824 b 321 841 297 824 308 828 l 383 903 b 393 903 385 905 390 905 l 456 841 b 496 824 468 828 480 824 l 569 824 b 587 865 597 824 606 843 l 455 1018 b 414 1035 443 1032 431 1035 l 365 1035 b 324 1018 348 1035 336 1030 l 191 865 b 210 824 172 843 182 824 z m 211 -95 b 301 30 211 -48 241 -6 b 312 34 304 33 308 34 b 424 23 343 30 376 28 b 572 -82 543 13 572 -39 b 384 -198 572 -157 506 -198 b 211 -95 261 -198 211 -155 z m 250 479 b 383 601 250 547 303 601 b 518 479 465 601 518 547 b 383 356 518 410 465 356 b 250 479 303 356 250 410 z "},"ğ":{"ha":758,"x_min":0,"x_max":0,"o":"m 384 -309 b 708 -81 573 -309 708 -235 b 465 134 708 58 596 119 l 342 148 b 244 202 275 155 244 169 b 275 255 244 221 255 240 b 285 258 279 258 282 259 b 383 244 314 249 348 244 b 660 479 551 244 660 345 b 624 602 660 524 646 567 b 626 612 620 606 622 610 l 729 664 b 741 710 747 674 754 692 l 699 771 b 654 778 687 789 672 793 l 540 682 b 530 681 538 679 534 679 b 383 713 489 702 438 713 b 106 479 218 713 106 611 b 194 302 106 408 139 343 b 194 292 199 299 198 295 b 116 173 145 261 116 221 b 186 67 116 124 145 90 b 187 57 192 64 192 59 b 71 -111 121 19 71 -35 b 384 -309 71 -234 179 -309 z m 181 968 b 394 798 207 855 294 798 b 607 967 491 798 580 855 b 577 1004 612 990 600 1004 l 511 1004 b 476 973 491 1004 481 994 b 395 918 465 936 437 918 b 312 973 350 918 322 936 b 277 1004 306 994 297 1004 l 210 1004 b 181 968 187 1004 176 990 z m 211 -95 b 301 30 211 -48 241 -6 b 312 34 304 33 308 34 b 424 23 343 30 376 28 b 572 -82 543 13 572 -39 b 384 -198 572 -157 506 -198 b 211 -95 261 -198 211 -155 z m 250 479 b 383 601 250 547 303 601 b 518 479 465 601 518 547 b 383 356 518 410 465 356 b 250 479 303 356 250 410 z "},"ġ":{"ha":758,"x_min":0,"x_max":0,"o":"m 383 -256 b 708 -40 574 -256 708 -186 b 465 157 708 87 596 141 l 342 170 b 244 218 275 178 244 189 b 278 269 244 235 256 254 b 288 271 282 271 284 273 b 388 259 318 264 352 259 b 669 486 558 259 669 350 b 624 615 669 534 653 578 b 626 625 621 619 622 622 l 734 689 b 741 736 753 701 755 718 l 691 797 b 645 799 677 814 660 814 l 533 689 b 521 688 529 686 527 687 b 388 713 482 705 438 713 b 106 486 220 713 106 614 b 193 314 106 414 139 354 b 193 304 197 312 197 307 b 116 191 146 274 116 236 b 183 90 116 144 140 112 b 183 80 188 87 188 82 b 71 -72 119 45 71 -4 b 383 -256 71 -186 178 -256 z m 211 -53 b 298 54 211 -14 240 23 b 311 58 303 57 307 58 b 424 45 343 54 383 49 b 572 -42 543 35 572 -6 b 384 -145 572 -107 506 -145 b 211 -53 261 -145 211 -107 z m 250 486 b 388 601 250 549 304 601 b 525 486 471 601 525 549 b 388 371 525 422 471 371 b 250 486 304 371 250 422 z m 295 915 b 405 806 295 857 345 806 b 513 915 463 806 513 857 b 405 1024 513 975 463 1024 b 295 915 345 1024 295 975 z "},"ģ":{"ha":758,"x_min":0,"x_max":0,"o":"m 383 -256 b 708 -40 574 -256 708 -186 b 465 157 708 87 596 141 l 342 170 b 244 218 275 178 244 189 b 278 269 244 235 256 254 b 288 271 282 271 284 273 b 388 259 318 264 352 259 b 669 486 558 259 669 350 b 624 615 669 534 653 578 b 626 625 621 619 622 622 l 734 689 b 741 736 753 701 755 718 l 691 797 b 645 799 677 814 660 814 l 533 689 b 521 688 529 686 527 687 b 388 713 482 705 438 713 b 106 486 220 713 106 614 b 193 314 106 414 139 354 b 193 304 197 312 197 307 b 116 191 146 274 116 236 b 183 90 116 144 140 112 b 183 80 188 87 188 82 b 71 -72 119 45 71 -4 b 383 -256 71 -186 178 -256 z m 211 -53 b 298 54 211 -14 240 23 b 311 58 303 57 307 58 b 424 45 343 54 383 49 b 572 -42 543 35 572 -6 b 384 -145 572 -107 506 -145 b 211 -53 261 -145 211 -107 z m 250 486 b 388 601 250 549 304 601 b 525 486 471 601 525 549 b 388 371 525 422 471 371 b 250 486 304 371 250 422 z m 307 905 b 407 792 307 835 352 792 b 500 885 458 792 500 830 b 438 968 500 919 484 957 b 433 977 433 970 431 972 b 508 1078 443 1014 466 1044 b 511 1125 525 1092 527 1109 l 484 1153 b 437 1155 470 1168 453 1169 b 307 905 346 1074 307 1001 z "},"h":{"ha":758,"x_min":0,"x_max":0,"o":"m 511 467 l 511 33 b 544 0 511 13 524 0 l 622 0 b 655 33 643 0 655 13 l 655 486 b 451 713 655 643 567 713 b 266 610 381 713 312 681 b 258 612 263 604 258 605 l 258 914 b 225 947 258 934 245 947 l 146 947 b 114 914 126 947 114 934 l 114 33 b 146 0 114 13 126 0 l 225 0 b 258 33 245 0 258 11 l 258 400 b 259 410 258 403 258 407 b 423 585 292 513 357 585 b 511 467 472 585 511 544 z "},"ĥ":{"ha":758,"x_min":0,"x_max":0,"o":"m 511 467 l 511 33 b 544 0 511 13 524 0 l 622 0 b 655 33 643 0 655 13 l 655 486 b 451 713 655 643 567 713 b 266 610 381 713 312 681 b 258 612 263 604 258 605 l 258 914 b 225 947 258 934 245 947 l 146 947 b 114 914 126 947 114 934 l 114 33 b 146 0 114 13 126 0 l 225 0 b 258 33 245 0 258 11 l 258 400 b 259 410 258 403 258 407 b 423 585 292 513 357 585 b 511 467 472 585 511 544 z m 6 1006 l 77 1006 b 117 1023 93 1006 105 1010 l 179 1085 b 189 1085 182 1087 187 1087 l 253 1023 b 293 1006 265 1010 277 1006 l 366 1006 b 384 1047 394 1006 403 1025 l 251 1199 b 211 1217 240 1213 227 1217 l 162 1217 b 121 1199 145 1217 133 1212 l -13 1047 b 6 1006 -32 1025 -21 1006 z "},"i":{"ha":758,"x_min":0,"x_max":0,"o":"m 153 0 l 645 0 b 678 33 665 0 678 13 l 678 90 b 645 122 678 110 667 122 l 486 122 b 479 130 481 122 479 126 l 479 665 b 446 698 479 686 467 698 l 174 698 b 141 665 154 698 141 687 l 141 610 b 174 577 141 590 153 577 l 327 577 b 335 569 332 577 335 574 l 335 130 b 327 122 335 125 332 122 l 153 122 b 120 90 133 122 120 110 l 120 33 b 153 0 120 13 131 0 z m 289 915 b 399 806 289 857 338 806 b 506 915 457 806 506 857 b 399 1024 506 975 457 1024 b 289 915 338 1024 289 975 z "},"ì":{"ha":758,"x_min":0,"x_max":0,"o":"m 153 0 l 645 0 b 678 33 665 0 678 13 l 678 90 b 645 122 678 110 667 122 l 486 122 b 479 130 481 122 479 126 l 479 665 b 446 698 479 686 467 698 l 174 698 b 141 665 154 698 141 687 l 141 610 b 174 577 141 590 153 577 l 327 577 b 335 569 332 577 335 574 l 335 130 b 327 122 335 125 332 122 l 153 122 b 120 90 133 122 120 110 l 120 33 b 153 0 120 13 131 0 z m 202 986 l 309 846 b 350 826 319 832 333 826 l 432 826 b 455 865 457 826 467 842 l 378 1004 b 338 1027 369 1019 356 1027 l 222 1027 b 202 986 194 1027 186 1008 z "},"í":{"ha":758,"x_min":0,"x_max":0,"o":"m 153 0 l 645 0 b 678 33 665 0 678 13 l 678 90 b 645 122 678 110 667 122 l 486 122 b 479 130 481 122 479 126 l 479 665 b 446 698 479 686 467 698 l 174 698 b 141 665 154 698 141 687 l 141 610 b 174 577 141 590 153 577 l 327 577 b 335 569 332 577 335 574 l 335 130 b 327 122 335 125 332 122 l 153 122 b 120 90 133 122 120 110 l 120 33 b 153 0 120 13 131 0 z m 374 826 l 456 826 b 496 846 472 826 486 832 l 605 986 b 585 1027 621 1008 612 1027 l 467 1027 b 428 1004 449 1027 437 1019 l 351 865 b 374 826 338 842 348 826 z "},"î":{"ha":758,"x_min":0,"x_max":0,"o":"m 153 0 l 645 0 b 678 33 665 0 678 13 l 678 90 b 645 122 678 110 667 122 l 486 122 b 479 130 481 122 479 126 l 479 665 b 446 698 479 686 467 698 l 174 698 b 141 665 154 698 141 687 l 141 610 b 174 577 141 590 153 577 l 327 577 b 335 569 332 577 335 574 l 335 130 b 327 122 335 125 332 122 l 153 122 b 120 90 133 122 120 110 l 120 33 b 153 0 120 13 131 0 z m 218 824 l 289 824 b 330 841 306 824 317 828 l 391 903 b 402 903 394 905 399 905 l 465 841 b 505 824 477 828 489 824 l 578 824 b 596 865 606 824 615 843 l 463 1018 b 423 1035 452 1032 439 1035 l 374 1035 b 333 1018 357 1035 345 1030 l 199 865 b 218 824 181 843 191 824 z "},"ï":{"ha":758,"x_min":0,"x_max":0,"o":"m 153 0 l 645 0 b 678 33 665 0 678 13 l 678 90 b 645 122 678 110 667 122 l 486 122 b 479 130 481 122 479 126 l 479 665 b 446 698 479 686 467 698 l 174 698 b 141 665 154 698 141 687 l 141 610 b 174 577 141 590 153 577 l 327 577 b 335 569 332 577 335 574 l 335 130 b 327 122 335 125 332 122 l 153 122 b 120 90 133 122 120 110 l 120 33 b 153 0 120 13 131 0 z m 146 915 b 256 806 146 857 196 806 b 364 915 314 806 364 857 b 256 1024 364 975 314 1024 b 146 915 196 1024 146 975 z m 432 915 b 542 806 432 857 481 806 b 649 915 600 806 649 857 b 542 1024 649 975 600 1024 b 432 915 481 1024 432 975 z "},"ĩ":{"ha":758,"x_min":0,"x_max":0,"o":"m 153 0 l 645 0 b 678 33 665 0 678 13 l 678 90 b 645 122 678 110 667 122 l 486 122 b 479 130 481 122 479 126 l 479 665 b 446 698 479 686 467 698 l 174 698 b 141 665 154 698 141 687 l 141 610 b 174 577 141 590 153 577 l 327 577 b 335 569 332 577 335 574 l 335 130 b 327 122 335 125 332 122 l 153 122 b 120 90 133 122 120 110 l 120 33 b 153 0 120 13 131 0 z m 216 818 l 263 818 b 298 850 283 818 293 828 b 330 884 304 874 314 884 b 487 816 364 884 419 816 b 626 968 553 816 611 860 b 596 1004 630 991 617 1004 l 549 1004 b 515 972 529 1004 520 992 b 484 936 509 947 496 936 b 324 1005 448 936 393 1005 b 184 854 253 1005 199 960 b 216 818 182 831 194 818 z "},"ī":{"ha":758,"x_min":0,"x_max":0,"o":"m 153 0 l 645 0 b 678 33 665 0 678 13 l 678 90 b 645 122 678 110 667 122 l 486 122 b 479 130 481 122 479 126 l 479 665 b 446 698 479 686 467 698 l 174 698 b 141 665 154 698 141 687 l 141 610 b 174 577 141 590 153 577 l 327 577 b 335 569 332 577 335 574 l 335 130 b 327 122 335 125 332 122 l 153 122 b 120 90 133 122 120 110 l 120 33 b 153 0 120 13 131 0 z m 236 821 l 559 821 b 592 854 580 821 592 833 l 592 915 b 559 948 592 936 580 948 l 236 948 b 203 915 216 948 203 936 l 203 854 b 236 821 203 833 215 821 z "},"ĭ":{"ha":758,"x_min":0,"x_max":0,"o":"m 153 0 l 645 0 b 678 33 665 0 678 13 l 678 90 b 645 122 678 110 667 122 l 486 122 b 479 130 481 122 479 126 l 479 665 b 446 698 479 686 467 698 l 174 698 b 141 665 154 698 141 687 l 141 610 b 174 577 141 590 153 577 l 327 577 b 335 569 332 577 335 574 l 335 130 b 327 122 335 125 332 122 l 153 122 b 120 90 133 122 120 110 l 120 33 b 153 0 120 13 131 0 z m 184 968 b 398 798 211 855 298 798 b 611 967 495 798 583 855 b 581 1004 616 990 604 1004 l 515 1004 b 480 973 495 1004 485 994 b 399 918 468 936 441 918 b 316 973 354 918 326 936 b 280 1004 309 994 301 1004 l 213 1004 b 184 968 191 1004 179 990 z "},"į":{"ha":758,"x_min":0,"x_max":0,"o":"m 153 0 l 341 0 b 345 -9 347 0 350 -4 b 258 -202 294 -61 258 -129 b 391 -331 258 -292 319 -331 b 468 -316 420 -331 446 -326 b 490 -277 485 -308 491 -294 l 487 -237 b 449 -218 485 -212 472 -210 b 423 -223 441 -222 432 -223 b 385 -170 402 -223 385 -207 b 463 -4 385 -121 404 -69 b 472 0 466 -1 468 0 l 645 0 b 678 33 665 0 678 13 l 678 90 b 645 122 678 110 667 122 l 486 122 b 479 130 481 122 479 126 l 479 665 b 446 698 479 686 467 698 l 174 698 b 141 665 154 698 141 687 l 141 610 b 174 577 141 590 153 577 l 327 577 b 335 569 332 577 335 574 l 335 130 b 327 122 335 125 332 122 l 153 122 b 120 90 133 122 120 110 l 120 33 b 153 0 120 13 131 0 z "},"j":{"ha":758,"x_min":0,"x_max":0,"o":"m 308 -250 b 580 3 477 -250 580 -160 l 580 665 b 547 698 580 686 568 698 l 197 698 b 164 665 177 698 164 687 l 164 610 b 197 577 164 590 177 577 l 428 577 b 436 569 433 577 436 573 l 436 14 b 306 -125 436 -80 386 -125 b 164 -98 259 -125 207 -114 b 122 -117 144 -91 129 -97 l 102 -179 b 122 -221 96 -198 104 -215 b 308 -250 172 -239 236 -250 z m 395 915 b 505 806 395 857 444 806 b 612 915 563 806 612 857 b 505 1024 612 975 563 1024 b 395 915 444 1024 395 975 z "},"ĵ":{"ha":758,"x_min":0,"x_max":0,"o":"m 308 -250 b 580 3 477 -250 580 -160 l 580 665 b 547 698 580 686 568 698 l 197 698 b 164 665 177 698 164 687 l 164 610 b 197 577 164 590 177 577 l 428 577 b 436 569 433 577 436 573 l 436 14 b 306 -125 436 -80 386 -125 b 164 -98 259 -125 207 -114 b 122 -117 144 -91 129 -97 l 102 -179 b 122 -221 96 -198 104 -215 b 308 -250 172 -239 236 -250 z m 324 824 l 395 824 b 436 841 412 824 423 828 l 497 903 b 508 903 500 905 505 905 l 571 841 b 611 824 583 828 595 824 l 684 824 b 702 865 712 824 721 843 l 569 1018 b 529 1035 558 1032 545 1035 l 480 1035 b 439 1018 463 1035 451 1030 l 306 865 b 324 824 287 843 297 824 z "},"k":{"ha":758,"x_min":0,"x_max":0,"o":"m 162 0 l 240 0 b 273 33 260 0 273 11 l 273 211 b 277 220 273 215 274 216 l 366 319 b 378 318 370 324 375 322 l 551 23 b 590 0 559 6 572 0 l 686 0 b 707 39 711 0 720 16 l 475 431 b 475 441 472 434 472 437 l 672 658 b 654 698 691 679 682 698 l 564 698 b 524 681 548 698 535 693 l 282 407 b 273 410 278 402 273 404 l 273 914 b 240 947 273 934 260 947 l 162 947 b 129 914 141 947 129 934 l 129 33 b 162 0 129 13 141 0 z "},"ķ":{"ha":758,"x_min":0,"x_max":0,"o":"m 162 0 l 240 0 b 273 33 260 0 273 11 l 273 211 b 277 220 273 215 274 216 l 366 319 b 378 318 370 324 375 322 l 551 23 b 590 0 559 6 572 0 l 686 0 b 707 39 711 0 720 16 l 475 431 b 475 441 472 434 472 437 l 672 658 b 654 698 691 679 682 698 l 564 698 b 524 681 548 698 535 693 l 282 407 b 273 410 278 402 273 404 l 273 914 b 240 947 273 934 260 947 l 162 947 b 129 914 141 947 129 934 l 129 33 b 162 0 129 13 141 0 z m 289 -439 l 316 -467 b 362 -470 330 -482 347 -484 b 494 -220 455 -389 494 -316 b 394 -106 494 -149 448 -106 b 301 -199 342 -106 301 -144 b 362 -283 301 -234 317 -271 b 367 -292 367 -284 370 -287 b 293 -393 357 -328 335 -359 b 289 -439 275 -407 274 -424 z "},"l":{"ha":758,"x_min":0,"x_max":0,"o":"m 119 0 l 636 0 b 669 33 657 0 669 13 l 669 90 b 636 122 669 110 657 122 l 457 122 b 449 130 452 122 449 126 l 449 914 b 417 947 449 934 437 947 l 141 947 b 109 914 121 947 109 934 l 109 857 b 141 824 109 837 120 824 l 298 824 b 306 817 303 824 306 821 l 306 130 b 298 122 306 125 302 122 l 119 122 b 86 90 98 122 86 110 l 86 33 b 119 0 86 13 98 0 z "},"ĺ":{"ha":758,"x_min":0,"x_max":0,"o":"m 119 0 l 636 0 b 669 33 657 0 669 13 l 669 90 b 636 122 669 110 657 122 l 457 122 b 449 130 452 122 449 126 l 449 914 b 417 947 449 934 437 947 l 141 947 b 109 914 121 947 109 934 l 109 857 b 141 824 109 837 120 824 l 298 824 b 306 817 303 824 306 821 l 306 130 b 298 122 306 125 302 122 l 119 122 b 86 90 98 122 86 110 l 86 33 b 119 0 86 13 98 0 z m 348 1014 l 439 1014 b 481 1030 456 1014 470 1019 l 605 1146 b 588 1187 626 1167 617 1187 l 461 1187 b 422 1168 444 1187 432 1181 l 330 1054 b 348 1014 312 1032 321 1014 z "},"ļ":{"ha":758,"x_min":0,"x_max":0,"o":"m 119 0 l 636 0 b 669 33 657 0 669 13 l 669 90 b 636 122 669 110 657 122 l 457 122 b 449 130 452 122 449 126 l 449 914 b 417 947 449 934 437 947 l 141 947 b 109 914 121 947 109 934 l 109 857 b 141 824 109 837 120 824 l 298 824 b 306 817 303 824 306 821 l 306 130 b 298 122 306 125 302 122 l 119 122 b 86 90 98 122 86 110 l 86 33 b 119 0 86 13 98 0 z m 274 -439 l 301 -467 b 347 -470 314 -482 332 -484 b 479 -220 439 -389 479 -316 b 379 -106 479 -149 433 -106 b 285 -199 327 -106 285 -144 b 347 -283 285 -234 302 -271 b 352 -292 352 -284 355 -287 b 278 -393 342 -328 319 -359 b 274 -439 260 -407 259 -424 z "},"ľ":{"ha":758,"x_min":0,"x_max":0,"o":"m 119 0 l 636 0 b 669 33 657 0 669 13 l 669 90 b 636 122 669 110 657 122 l 457 122 b 449 130 452 122 449 126 l 449 914 b 417 947 449 934 437 947 l 141 947 b 109 914 121 947 109 934 l 109 857 b 141 824 109 837 120 824 l 298 824 b 306 817 303 824 306 821 l 306 130 b 298 122 306 125 302 122 l 119 122 b 86 90 98 122 86 110 l 86 33 b 119 0 86 13 98 0 z m 605 723 l 677 723 b 711 754 697 723 708 734 l 731 913 b 699 948 734 934 721 948 l 605 948 b 572 915 585 948 572 937 l 572 756 b 605 723 572 736 583 723 z "},"m":{"ha":758,"x_min":0,"x_max":0,"o":"m 588 466 l 588 33 b 621 0 588 13 600 0 l 686 0 b 718 33 706 0 718 13 l 718 484 b 568 713 718 625 679 713 b 441 615 520 713 473 683 b 432 615 438 609 434 609 b 301 713 412 678 371 713 b 173 617 253 713 208 684 b 163 617 170 611 164 610 l 152 669 b 116 698 148 688 135 698 l 83 698 b 51 665 63 698 51 687 l 51 33 b 83 0 51 13 62 0 l 146 0 b 179 33 167 0 179 11 l 179 414 b 181 424 179 417 179 420 b 275 593 205 523 241 593 b 319 466 304 593 319 567 l 319 33 b 352 0 319 13 331 0 l 415 0 b 448 33 436 0 448 11 l 448 420 b 449 431 448 423 448 427 b 543 593 473 525 510 593 b 588 466 573 593 588 567 z "},"n":{"ha":758,"x_min":0,"x_max":0,"o":"m 511 467 l 511 33 b 544 0 511 13 524 0 l 622 0 b 655 33 643 0 655 13 l 655 486 b 458 713 655 643 567 713 b 258 595 378 713 304 674 b 247 596 254 588 249 588 l 230 670 b 193 698 225 691 212 698 l 146 698 b 114 665 126 698 114 687 l 114 33 b 146 0 114 13 126 0 l 225 0 b 258 33 245 0 258 11 l 258 400 b 259 410 258 403 258 407 b 423 587 292 513 357 587 b 511 467 472 587 511 545 z "},"ñ":{"ha":758,"x_min":0,"x_max":0,"o":"m 511 467 l 511 33 b 544 0 511 13 524 0 l 622 0 b 655 33 643 0 655 13 l 655 486 b 458 713 655 643 567 713 b 258 595 378 713 304 674 b 247 596 254 588 249 588 l 230 670 b 193 698 225 691 212 698 l 146 698 b 114 665 126 698 114 687 l 114 33 b 146 0 114 13 126 0 l 225 0 b 258 33 245 0 258 11 l 258 400 b 259 410 258 403 258 407 b 423 587 292 513 357 587 b 511 467 472 587 511 545 z m 221 818 l 268 818 b 303 850 288 818 298 828 b 335 884 309 874 319 884 b 492 816 369 884 424 816 b 631 968 558 816 616 860 b 601 1004 635 991 622 1004 l 554 1004 b 520 972 534 1004 525 992 b 489 936 514 947 501 936 b 330 1005 453 936 398 1005 b 189 854 258 1005 205 960 b 221 818 187 831 199 818 z "},"ń":{"ha":758,"x_min":0,"x_max":0,"o":"m 511 467 l 511 33 b 544 0 511 13 524 0 l 622 0 b 655 33 643 0 655 13 l 655 486 b 458 713 655 643 567 713 b 258 595 378 713 304 674 b 247 596 254 588 249 588 l 230 670 b 193 698 225 691 212 698 l 146 698 b 114 665 126 698 114 687 l 114 33 b 146 0 114 13 126 0 l 225 0 b 258 33 245 0 258 11 l 258 400 b 259 410 258 403 258 407 b 423 587 292 513 357 587 b 511 467 472 587 511 545 z m 379 826 l 461 826 b 501 846 477 826 491 832 l 610 986 b 590 1027 626 1008 617 1027 l 472 1027 b 433 1004 455 1027 442 1019 l 356 865 b 379 826 343 842 354 826 z "},"ņ":{"ha":758,"x_min":0,"x_max":0,"o":"m 511 467 l 511 33 b 544 0 511 13 524 0 l 622 0 b 655 33 643 0 655 13 l 655 486 b 458 713 655 643 567 713 b 258 595 378 713 304 674 b 247 596 254 588 249 588 l 230 670 b 193 698 225 691 212 698 l 146 698 b 114 665 126 698 114 687 l 114 33 b 146 0 114 13 126 0 l 225 0 b 258 33 245 0 258 11 l 258 400 b 259 410 258 403 258 407 b 423 587 292 513 357 587 b 511 467 472 587 511 545 z m 279 -439 l 306 -467 b 352 -470 319 -482 337 -484 b 484 -220 444 -389 484 -316 b 384 -106 484 -149 438 -106 b 290 -199 332 -106 290 -144 b 352 -283 290 -234 307 -271 b 357 -292 357 -284 360 -287 b 283 -393 347 -328 324 -359 b 279 -439 265 -407 264 -424 z "},"ň":{"ha":758,"x_min":0,"x_max":0,"o":"m 511 467 l 511 33 b 544 0 511 13 524 0 l 622 0 b 655 33 643 0 655 13 l 655 486 b 458 713 655 643 567 713 b 258 595 378 713 304 674 b 247 596 254 588 249 588 l 230 670 b 193 698 225 691 212 698 l 146 698 b 114 665 126 698 114 687 l 114 33 b 146 0 114 13 126 0 l 225 0 b 258 33 245 0 258 11 l 258 400 b 259 410 258 403 258 407 b 423 587 292 513 357 587 b 511 467 472 587 511 545 z m 205 984 l 337 831 b 378 813 348 817 361 813 l 427 813 b 467 831 443 813 456 818 l 601 984 b 582 1024 620 1005 610 1024 l 511 1024 b 471 1008 495 1024 484 1020 l 409 946 b 399 946 407 943 402 943 l 336 1008 b 295 1024 323 1020 312 1024 l 222 1024 b 205 984 194 1024 186 1005 z "},"o":{"ha":758,"x_min":0,"x_max":0,"o":"m 378 111 b 208 351 275 111 208 208 b 378 587 208 492 275 587 b 549 351 482 587 549 492 b 378 111 549 208 482 111 z m 56 351 b 378 -15 56 134 183 -15 b 702 351 573 -15 702 134 b 378 713 702 566 573 713 b 56 351 183 713 56 566 z "},"ò":{"ha":758,"x_min":0,"x_max":0,"o":"m 378 111 b 208 351 275 111 208 208 b 378 587 208 492 275 587 b 549 351 482 587 549 492 b 378 111 549 208 482 111 z m 56 351 b 378 -15 56 134 183 -15 b 702 351 573 -15 702 134 b 378 713 702 566 573 713 b 56 351 183 713 56 566 z m 183 986 l 290 846 b 331 826 301 832 314 826 l 413 826 b 436 865 438 826 448 842 l 359 1004 b 319 1027 350 1019 337 1027 l 203 1027 b 183 986 176 1027 167 1008 z "},"ó":{"ha":758,"x_min":0,"x_max":0,"o":"m 378 111 b 208 351 275 111 208 208 b 378 587 208 492 275 587 b 549 351 482 587 549 492 b 378 111 549 208 482 111 z m 56 351 b 378 -15 56 134 183 -15 b 702 351 573 -15 702 134 b 378 713 702 566 573 713 b 56 351 183 713 56 566 z m 355 826 l 437 826 b 477 846 453 826 467 832 l 586 986 b 566 1027 602 1008 593 1027 l 448 1027 b 409 1004 431 1027 418 1019 l 332 865 b 355 826 319 842 330 826 z "},"ô":{"ha":758,"x_min":0,"x_max":0,"o":"m 378 111 b 208 351 275 111 208 208 b 378 587 208 492 275 587 b 549 351 482 587 549 492 b 378 111 549 208 482 111 z m 56 351 b 378 -15 56 134 183 -15 b 702 351 573 -15 702 134 b 378 713 702 566 573 713 b 56 351 183 713 56 566 z m 199 824 l 270 824 b 311 841 287 824 298 828 l 372 903 b 383 903 375 905 380 905 l 446 841 b 486 824 458 828 470 824 l 559 824 b 577 865 587 824 596 843 l 444 1018 b 404 1035 433 1032 420 1035 l 355 1035 b 314 1018 338 1035 326 1030 l 181 865 b 199 824 162 843 172 824 z "},"õ":{"ha":758,"x_min":0,"x_max":0,"o":"m 378 111 b 208 351 275 111 208 208 b 378 587 208 492 275 587 b 549 351 482 587 549 492 b 378 111 549 208 482 111 z m 56 351 b 378 -15 56 134 183 -15 b 702 351 573 -15 702 134 b 378 713 702 566 573 713 b 56 351 183 713 56 566 z m 197 818 l 244 818 b 279 850 264 818 274 828 b 311 884 285 874 295 884 b 468 816 345 884 400 816 b 607 968 534 816 592 860 b 577 1004 611 991 598 1004 l 530 1004 b 496 972 510 1004 501 992 b 465 936 490 947 477 936 b 306 1005 429 936 374 1005 b 165 854 234 1005 181 960 b 197 818 163 831 176 818 z "},"ö":{"ha":758,"x_min":0,"x_max":0,"o":"m 378 111 b 208 351 275 111 208 208 b 378 587 208 492 275 587 b 549 351 482 587 549 492 b 378 111 549 208 482 111 z m 56 351 b 378 -15 56 134 183 -15 b 702 351 573 -15 702 134 b 378 713 702 566 573 713 b 56 351 183 713 56 566 z m 128 915 b 237 806 128 857 177 806 b 345 915 295 806 345 857 b 237 1024 345 975 295 1024 b 128 915 177 1024 128 975 z m 413 915 b 523 806 413 857 462 806 b 630 915 581 806 630 857 b 523 1024 630 975 581 1024 b 413 915 462 1024 413 975 z "},"ō":{"ha":758,"x_min":0,"x_max":0,"o":"m 378 111 b 208 351 275 111 208 208 b 378 587 208 492 275 587 b 549 351 482 587 549 492 b 378 111 549 208 482 111 z m 56 351 b 378 -15 56 134 183 -15 b 702 351 573 -15 702 134 b 378 713 702 566 573 713 b 56 351 183 713 56 566 z m 217 821 l 540 821 b 573 854 561 821 573 833 l 573 915 b 540 948 573 936 561 948 l 217 948 b 184 915 197 948 184 936 l 184 854 b 217 821 184 833 196 821 z "},"ŏ":{"ha":758,"x_min":0,"x_max":0,"o":"m 378 111 b 208 351 275 111 208 208 b 378 587 208 492 275 587 b 549 351 482 587 549 492 b 378 111 549 208 482 111 z m 56 351 b 378 -15 56 134 183 -15 b 702 351 573 -15 702 134 b 378 713 702 566 573 713 b 56 351 183 713 56 566 z m 165 968 b 379 798 192 855 279 798 b 592 967 476 798 564 855 b 562 1004 597 990 585 1004 l 496 1004 b 461 973 476 1004 466 994 b 380 918 449 936 422 918 b 297 973 335 918 307 936 b 261 1004 290 994 282 1004 l 194 1004 b 165 968 172 1004 160 990 z "},"ő":{"ha":758,"x_min":0,"x_max":0,"o":"m 378 111 b 208 351 275 111 208 208 b 378 587 208 492 275 587 b 549 351 482 587 549 492 b 378 111 549 208 482 111 z m 56 351 b 378 -15 56 134 183 -15 b 702 351 573 -15 702 134 b 378 713 702 566 573 713 b 56 351 183 713 56 566 z m 225 821 l 294 821 b 333 842 312 821 324 827 l 419 981 b 398 1020 433 1004 424 1020 l 299 1020 b 261 995 282 1020 269 1013 l 199 860 b 225 821 189 837 199 821 z m 484 821 l 552 821 b 592 841 569 821 582 826 l 694 980 b 674 1020 711 1001 701 1020 l 576 1020 b 537 997 558 1020 545 1013 l 460 860 b 484 821 447 837 458 821 z "},"p":{"ha":758,"x_min":0,"x_max":0,"o":"m 415 -15 b 689 348 561 -15 689 109 b 420 713 689 591 564 713 b 241 609 342 713 283 677 b 231 610 237 604 232 602 l 217 669 b 182 698 212 689 201 698 l 135 698 b 102 665 115 698 102 687 l 102 -203 b 135 -236 102 -223 115 -236 l 213 -236 b 246 -203 234 -236 246 -225 l 246 61 b 255 63 246 67 251 69 b 415 -15 294 14 346 -15 z m 246 253 l 246 441 b 247 451 246 443 246 447 b 399 588 287 563 354 588 b 537 348 484 588 537 501 b 399 111 537 205 485 111 b 247 242 340 111 283 148 b 246 253 246 246 246 250 z "},"q":{"ha":758,"x_min":0,"x_max":0,"o":"m 342 -15 b 503 64 412 -15 463 14 b 511 61 508 69 511 67 l 511 -203 b 544 -236 511 -223 524 -236 l 622 -236 b 655 -203 643 -236 655 -225 l 655 665 b 622 698 655 686 644 698 l 576 698 b 540 669 557 698 545 689 l 527 610 b 516 609 525 602 520 604 b 337 713 475 677 415 713 b 68 348 193 713 68 591 b 342 -15 68 109 197 -15 z m 221 348 b 359 588 221 501 274 588 b 510 451 404 588 471 563 b 511 441 511 447 511 443 l 511 253 b 510 242 511 250 511 246 b 359 111 475 148 418 111 b 221 348 273 111 221 205 z "},"r":{"ha":758,"x_min":0,"x_max":0,"o":"m 176 0 l 254 0 b 287 33 274 0 287 11 l 287 386 b 288 396 287 389 287 393 b 460 587 323 508 393 587 b 545 431 508 587 537 551 b 581 399 548 408 559 396 l 665 408 b 697 444 686 410 697 423 b 486 713 689 628 619 713 b 285 588 404 713 332 677 b 277 590 283 582 278 582 l 259 669 b 223 698 255 689 242 698 l 176 698 b 143 665 155 698 143 687 l 143 33 b 176 0 143 13 155 0 z "},"ŕ":{"ha":758,"x_min":0,"x_max":0,"o":"m 176 0 l 254 0 b 287 33 274 0 287 11 l 287 386 b 288 396 287 389 287 393 b 460 587 323 508 393 587 b 545 431 508 587 537 551 b 581 399 548 408 559 396 l 665 408 b 697 444 686 410 697 423 b 486 713 689 628 619 713 b 285 588 404 713 332 677 b 277 590 283 582 278 582 l 259 669 b 223 698 255 689 242 698 l 176 698 b 143 665 155 698 143 687 l 143 33 b 176 0 143 13 155 0 z m 357 826 l 439 826 b 480 846 456 826 470 832 l 588 986 b 568 1027 605 1008 596 1027 l 451 1027 b 412 1004 433 1027 420 1019 l 335 865 b 357 826 322 842 332 826 z "},"ŗ":{"ha":758,"x_min":0,"x_max":0,"o":"m 176 0 l 254 0 b 287 33 274 0 287 11 l 287 386 b 288 396 287 389 287 393 b 460 587 323 508 393 587 b 545 431 508 587 537 551 b 581 399 548 408 559 396 l 665 408 b 697 444 686 410 697 423 b 486 713 689 628 619 713 b 285 588 404 713 332 677 b 277 590 283 582 278 582 l 259 669 b 223 698 255 689 242 698 l 176 698 b 143 665 155 698 143 687 l 143 33 b 176 0 143 13 155 0 z m 102 -439 l 129 -467 b 176 -470 143 -482 160 -484 b 307 -220 268 -389 307 -316 b 207 -106 307 -149 261 -106 b 114 -199 155 -106 114 -144 b 176 -283 114 -234 130 -271 b 181 -292 181 -284 183 -287 b 106 -393 170 -328 148 -359 b 102 -439 88 -407 87 -424 z "},"ř":{"ha":758,"x_min":0,"x_max":0,"o":"m 176 0 l 254 0 b 287 33 274 0 287 11 l 287 386 b 288 396 287 389 287 393 b 460 587 323 508 393 587 b 545 431 508 587 537 551 b 581 399 548 408 559 396 l 665 408 b 697 444 686 410 697 423 b 486 713 689 628 619 713 b 285 588 404 713 332 677 b 277 590 283 582 278 582 l 259 669 b 223 698 255 689 242 698 l 176 698 b 143 665 155 698 143 687 l 143 33 b 176 0 143 13 155 0 z m 183 984 l 316 831 b 356 813 327 817 340 813 l 405 813 b 446 831 422 813 434 818 l 580 984 b 561 1024 598 1005 588 1024 l 490 1024 b 449 1008 473 1024 462 1020 l 388 946 b 378 946 385 943 380 943 l 314 1008 b 274 1024 302 1020 290 1024 l 201 1024 b 183 984 173 1024 164 1005 z "},"s":{"ha":758,"x_min":0,"x_max":0,"o":"m 385 -15 b 678 212 609 -15 678 98 b 256 513 678 479 256 372 b 372 597 256 564 301 597 b 519 521 441 597 482 577 b 563 509 530 503 545 499 l 633 549 b 644 593 652 561 655 576 b 378 713 595 673 511 713 b 115 506 192 713 115 610 b 537 191 115 231 537 357 b 388 98 537 129 487 98 b 230 189 322 98 263 133 b 187 205 220 208 206 215 l 114 168 b 98 124 95 159 88 143 b 385 -15 149 35 241 -15 z "},"ś":{"ha":758,"x_min":0,"x_max":0,"o":"m 385 -15 b 678 212 609 -15 678 98 b 256 513 678 479 256 372 b 372 597 256 564 301 597 b 519 521 441 597 482 577 b 563 509 530 503 545 499 l 633 549 b 644 593 652 561 655 576 b 378 713 595 673 511 713 b 115 506 192 713 115 610 b 537 191 115 231 537 357 b 388 98 537 129 487 98 b 230 189 322 98 263 133 b 187 205 220 208 206 215 l 114 168 b 98 124 95 159 88 143 b 385 -15 149 35 241 -15 z m 364 826 l 446 826 b 486 846 462 826 476 832 l 595 986 b 574 1027 611 1008 602 1027 l 457 1027 b 418 1004 439 1027 427 1019 l 341 865 b 364 826 328 842 338 826 z "},"ŝ":{"ha":758,"x_min":0,"x_max":0,"o":"m 385 -15 b 678 212 609 -15 678 98 b 256 513 678 479 256 372 b 372 597 256 564 301 597 b 519 521 441 597 482 577 b 563 509 530 503 545 499 l 633 549 b 644 593 652 561 655 576 b 378 713 595 673 511 713 b 115 506 192 713 115 610 b 537 191 115 231 537 357 b 388 98 537 129 487 98 b 230 189 322 98 263 133 b 187 205 220 208 206 215 l 114 168 b 98 124 95 159 88 143 b 385 -15 149 35 241 -15 z m 208 824 l 279 824 b 319 841 295 824 307 828 l 381 903 b 391 903 384 905 389 905 l 455 841 b 495 824 467 828 479 824 l 568 824 b 586 865 596 824 605 843 l 453 1018 b 413 1035 442 1032 429 1035 l 364 1035 b 323 1018 347 1035 335 1030 l 189 865 b 208 824 170 843 181 824 z "},"ş":{"ha":758,"x_min":0,"x_max":0,"o":"m 369 -347 b 524 -208 448 -347 524 -312 b 398 -76 524 -125 480 -82 b 393 -66 393 -74 390 -71 l 415 -19 b 424 -14 417 -15 420 -14 b 678 212 616 -1 678 106 b 256 513 678 479 256 372 b 372 597 256 564 301 597 b 519 521 441 597 482 577 b 563 509 530 503 545 499 l 633 549 b 644 593 652 561 655 576 b 378 713 595 673 511 713 b 115 506 192 713 115 610 b 537 191 115 231 537 357 b 388 98 537 129 487 98 b 230 189 322 98 263 133 b 187 205 220 208 206 215 l 114 168 b 98 124 95 159 88 143 b 316 -10 140 51 212 4 b 321 -19 321 -11 323 -14 l 289 -87 b 292 -131 282 -102 283 -116 b 332 -152 299 -145 312 -152 b 415 -203 399 -149 415 -167 b 372 -251 415 -234 399 -251 b 318 -239 356 -251 337 -246 b 275 -258 298 -231 282 -237 l 264 -293 b 284 -335 258 -313 264 -328 b 369 -347 309 -342 338 -347 z "},"š":{"ha":758,"x_min":0,"x_max":0,"o":"m 385 -15 b 678 212 609 -15 678 98 b 256 513 678 479 256 372 b 372 597 256 564 301 597 b 519 521 441 597 482 577 b 563 509 530 503 545 499 l 633 549 b 644 593 652 561 655 576 b 378 713 595 673 511 713 b 115 506 192 713 115 610 b 537 191 115 231 537 357 b 388 98 537 129 487 98 b 230 189 322 98 263 133 b 187 205 220 208 206 215 l 114 168 b 98 124 95 159 88 143 b 385 -15 149 35 241 -15 z m 189 984 l 322 831 b 362 813 333 817 346 813 l 412 813 b 452 831 428 813 441 818 l 586 984 b 567 1024 605 1005 595 1024 l 496 1024 b 456 1008 480 1024 468 1020 l 394 946 b 384 946 391 943 386 943 l 321 1008 b 280 1024 308 1020 297 1024 l 207 1024 b 189 984 179 1024 170 1005 z "},"ș":{"ha":758,"x_min":0,"x_max":0,"o":"m 385 -15 b 678 212 609 -15 678 98 b 256 513 678 479 256 372 b 372 597 256 564 301 597 b 519 521 441 597 482 577 b 563 509 530 503 545 499 l 633 549 b 644 593 652 561 655 576 b 378 713 595 673 511 713 b 115 506 192 713 115 610 b 537 191 115 231 537 357 b 388 98 537 129 487 98 b 230 189 322 98 263 133 b 187 205 220 208 206 215 l 114 168 b 98 124 95 159 88 143 b 385 -15 149 35 241 -15 z m 274 -439 l 301 -467 b 347 -470 314 -482 332 -484 b 479 -220 439 -389 479 -316 b 379 -106 479 -149 433 -106 b 285 -199 327 -106 285 -144 b 347 -283 285 -234 302 -271 b 352 -292 352 -284 355 -287 b 278 -393 342 -328 319 -359 b 274 -439 260 -407 259 -424 z "},"t":{"ha":758,"x_min":0,"x_max":0,"o":"m 452 -15 b 652 38 539 -15 593 4 b 659 80 665 47 668 61 l 628 141 b 582 152 617 163 601 165 b 461 111 544 125 506 111 b 360 229 399 111 360 158 l 360 569 b 367 577 360 574 364 577 l 612 577 b 645 610 633 577 645 588 l 645 665 b 612 698 645 686 634 698 l 367 698 b 360 706 362 698 360 702 l 360 841 b 327 874 360 861 347 874 l 247 874 b 215 841 227 874 215 861 l 215 706 b 207 698 215 701 212 698 l 93 698 b 61 665 73 698 61 687 l 61 610 b 93 577 61 590 73 577 l 207 577 b 215 569 212 577 215 573 l 215 218 b 452 -15 215 68 298 -15 z "},"ț":{"ha":758,"x_min":0,"x_max":0,"o":"m 452 -15 b 652 38 539 -15 593 4 b 659 80 665 47 668 61 l 628 141 b 582 152 617 163 601 165 b 461 111 544 125 506 111 b 360 229 399 111 360 158 l 360 569 b 367 577 360 574 364 577 l 612 577 b 645 610 633 577 645 588 l 645 665 b 612 698 645 686 634 698 l 367 698 b 360 706 362 698 360 702 l 360 841 b 327 874 360 861 347 874 l 247 874 b 215 841 227 874 215 861 l 215 706 b 207 698 215 701 212 698 l 93 698 b 61 665 73 698 61 687 l 61 610 b 93 577 61 590 73 577 l 207 577 b 215 569 212 577 215 573 l 215 218 b 452 -15 215 68 298 -15 z m 297 -439 l 323 -467 b 370 -470 337 -482 355 -484 b 501 -220 462 -389 501 -316 b 402 -106 501 -149 456 -106 b 308 -199 350 -106 308 -144 b 370 -283 308 -234 324 -271 b 375 -292 375 -284 378 -287 b 301 -393 365 -328 342 -359 b 297 -439 283 -407 282 -424 z "},"ť":{"ha":758,"x_min":0,"x_max":0,"o":"m 452 -15 b 652 38 539 -15 593 4 b 659 80 665 47 668 61 l 628 141 b 582 152 617 163 601 165 b 461 111 544 125 506 111 b 360 229 399 111 360 158 l 360 569 b 367 577 360 574 364 577 l 612 577 b 645 610 633 577 645 588 l 645 665 b 612 698 645 686 634 698 l 367 698 b 360 706 362 698 360 702 l 360 841 b 327 874 360 861 347 874 l 247 874 b 215 841 227 874 215 861 l 215 706 b 207 698 215 701 212 698 l 93 698 b 61 665 73 698 61 687 l 61 610 b 93 577 61 590 73 577 l 207 577 b 215 569 212 577 215 573 l 215 218 b 452 -15 215 68 298 -15 z m 490 798 l 562 798 b 596 828 582 798 593 808 l 616 987 b 585 1023 619 1009 606 1023 l 490 1023 b 457 990 470 1023 457 1011 l 457 831 b 490 798 457 811 468 798 z "},"u":{"ha":758,"x_min":0,"x_max":0,"o":"m 301 -15 b 499 102 378 -15 452 23 b 510 104 503 110 509 111 l 528 29 b 564 0 533 9 545 0 l 611 0 b 644 33 631 0 644 11 l 644 665 b 611 698 644 686 631 698 l 533 698 b 500 665 513 698 500 687 l 500 298 b 499 288 500 295 500 292 b 335 112 466 186 400 112 b 246 232 285 112 246 154 l 246 665 b 213 698 246 686 234 698 l 135 698 b 102 665 115 698 102 686 l 102 212 b 301 -15 102 54 189 -15 z "},"ù":{"ha":758,"x_min":0,"x_max":0,"o":"m 301 -15 b 499 102 378 -15 452 23 b 510 104 503 110 509 111 l 528 29 b 564 0 533 9 545 0 l 611 0 b 644 33 631 0 644 11 l 644 665 b 611 698 644 686 631 698 l 533 698 b 500 665 513 698 500 687 l 500 298 b 499 288 500 295 500 292 b 335 112 466 186 400 112 b 246 232 285 112 246 154 l 246 665 b 213 698 246 686 234 698 l 135 698 b 102 665 115 698 102 686 l 102 212 b 301 -15 102 54 189 -15 z m 182 986 l 289 846 b 330 826 299 832 313 826 l 412 826 b 434 865 437 826 447 842 l 357 1004 b 318 1027 348 1019 336 1027 l 202 1027 b 182 986 174 1027 165 1008 z "},"ú":{"ha":758,"x_min":0,"x_max":0,"o":"m 301 -15 b 499 102 378 -15 452 23 b 510 104 503 110 509 111 l 528 29 b 564 0 533 9 545 0 l 611 0 b 644 33 631 0 644 11 l 644 665 b 611 698 644 686 631 698 l 533 698 b 500 665 513 698 500 687 l 500 298 b 499 288 500 295 500 292 b 335 112 466 186 400 112 b 246 232 285 112 246 154 l 246 665 b 213 698 246 686 234 698 l 135 698 b 102 665 115 698 102 686 l 102 212 b 301 -15 102 54 189 -15 z m 354 826 l 436 826 b 476 846 452 826 466 832 l 585 986 b 564 1027 601 1008 592 1027 l 447 1027 b 408 1004 429 1027 417 1019 l 331 865 b 354 826 318 842 328 826 z "},"û":{"ha":758,"x_min":0,"x_max":0,"o":"m 301 -15 b 499 102 378 -15 452 23 b 510 104 503 110 509 111 l 528 29 b 564 0 533 9 545 0 l 611 0 b 644 33 631 0 644 11 l 644 665 b 611 698 644 686 631 698 l 533 698 b 500 665 513 698 500 687 l 500 298 b 499 288 500 295 500 292 b 335 112 466 186 400 112 b 246 232 285 112 246 154 l 246 665 b 213 698 246 686 234 698 l 135 698 b 102 665 115 698 102 686 l 102 212 b 301 -15 102 54 189 -15 z m 198 824 l 269 824 b 309 841 285 824 297 828 l 371 903 b 381 903 374 905 379 905 l 444 841 b 485 824 457 828 468 824 l 558 824 b 576 865 586 824 595 843 l 443 1018 b 403 1035 432 1032 419 1035 l 354 1035 b 313 1018 337 1035 324 1030 l 179 865 b 198 824 160 843 170 824 z "},"ü":{"ha":758,"x_min":0,"x_max":0,"o":"m 301 -15 b 499 102 378 -15 452 23 b 510 104 503 110 509 111 l 528 29 b 564 0 533 9 545 0 l 611 0 b 644 33 631 0 644 11 l 644 665 b 611 698 644 686 631 698 l 533 698 b 500 665 513 698 500 687 l 500 298 b 499 288 500 295 500 292 b 335 112 466 186 400 112 b 246 232 285 112 246 154 l 246 665 b 213 698 246 686 234 698 l 135 698 b 102 665 115 698 102 686 l 102 212 b 301 -15 102 54 189 -15 z m 126 915 b 236 806 126 857 176 806 b 343 915 294 806 343 857 b 236 1024 343 975 294 1024 b 126 915 176 1024 126 975 z m 412 915 b 521 806 412 857 461 806 b 629 915 580 806 629 857 b 521 1024 629 975 580 1024 b 412 915 461 1024 412 975 z "},"ũ":{"ha":758,"x_min":0,"x_max":0,"o":"m 301 -15 b 499 102 378 -15 452 23 b 510 104 503 110 509 111 l 528 29 b 564 0 533 9 545 0 l 611 0 b 644 33 631 0 644 11 l 644 665 b 611 698 644 686 631 698 l 533 698 b 500 665 513 698 500 687 l 500 298 b 499 288 500 295 500 292 b 335 112 466 186 400 112 b 246 232 285 112 246 154 l 246 665 b 213 698 246 686 234 698 l 135 698 b 102 665 115 698 102 686 l 102 212 b 301 -15 102 54 189 -15 z m 196 818 l 242 818 b 278 850 263 818 273 828 b 309 884 284 874 294 884 b 467 816 343 884 399 816 b 606 968 533 816 591 860 b 576 1004 610 991 597 1004 l 529 1004 b 495 972 509 1004 500 992 b 463 936 489 947 476 936 b 304 1005 428 936 372 1005 b 164 854 232 1005 179 960 b 196 818 162 831 174 818 z "},"ū":{"ha":758,"x_min":0,"x_max":0,"o":"m 301 -15 b 499 102 378 -15 452 23 b 510 104 503 110 509 111 l 528 29 b 564 0 533 9 545 0 l 611 0 b 644 33 631 0 644 11 l 644 665 b 611 698 644 686 631 698 l 533 698 b 500 665 513 698 500 687 l 500 298 b 499 288 500 295 500 292 b 335 112 466 186 400 112 b 246 232 285 112 246 154 l 246 665 b 213 698 246 686 234 698 l 135 698 b 102 665 115 698 102 686 l 102 212 b 301 -15 102 54 189 -15 z m 216 821 l 539 821 b 572 854 559 821 572 833 l 572 915 b 539 948 572 936 559 948 l 216 948 b 183 915 196 948 183 936 l 183 854 b 216 821 183 833 194 821 z "},"ŭ":{"ha":758,"x_min":0,"x_max":0,"o":"m 301 -15 b 499 102 378 -15 452 23 b 510 104 503 110 509 111 l 528 29 b 564 0 533 9 545 0 l 611 0 b 644 33 631 0 644 11 l 644 665 b 611 698 644 686 631 698 l 533 698 b 500 665 513 698 500 687 l 500 298 b 499 288 500 295 500 292 b 335 112 466 186 400 112 b 246 232 285 112 246 154 l 246 665 b 213 698 246 686 234 698 l 135 698 b 102 665 115 698 102 686 l 102 212 b 301 -15 102 54 189 -15 z m 164 968 b 378 798 191 855 278 798 b 591 967 475 798 563 855 b 561 1004 596 990 583 1004 l 495 1004 b 460 973 475 1004 465 994 b 379 918 448 936 420 918 b 295 973 333 918 306 936 b 260 1004 289 994 280 1004 l 193 1004 b 164 968 170 1004 159 990 z "},"ů":{"ha":758,"x_min":0,"x_max":0,"o":"m 301 -15 b 499 102 378 -15 452 23 b 510 104 503 110 509 111 l 528 29 b 564 0 533 9 545 0 l 611 0 b 644 33 631 0 644 11 l 644 665 b 611 698 644 686 631 698 l 533 698 b 500 665 513 698 500 687 l 500 298 b 499 288 500 295 500 292 b 335 112 466 186 400 112 b 246 232 285 112 246 154 l 246 665 b 213 698 246 686 234 698 l 135 698 b 102 665 115 698 102 686 l 102 212 b 301 -15 102 54 189 -15 z m 229 927 b 379 788 229 847 295 788 b 527 927 461 788 527 847 b 379 1066 527 1008 461 1066 b 229 927 297 1066 229 1008 z m 324 927 b 379 982 324 960 348 982 b 431 927 408 982 431 958 b 379 871 431 896 408 871 b 324 927 348 871 324 895 z "},"ű":{"ha":758,"x_min":0,"x_max":0,"o":"m 301 -15 b 499 102 378 -15 452 23 b 510 104 503 110 509 111 l 528 29 b 564 0 533 9 545 0 l 611 0 b 644 33 631 0 644 11 l 644 665 b 611 698 644 686 631 698 l 533 698 b 500 665 513 698 500 687 l 500 298 b 499 288 500 295 500 292 b 335 112 466 186 400 112 b 246 232 285 112 246 154 l 246 665 b 213 698 246 686 234 698 l 135 698 b 102 665 115 698 102 686 l 102 212 b 301 -15 102 54 189 -15 z m 223 821 l 293 821 b 332 842 311 821 323 827 l 418 981 b 396 1020 432 1004 423 1020 l 298 1020 b 260 995 280 1020 268 1013 l 198 860 b 223 821 188 837 198 821 z m 482 821 l 551 821 b 591 841 568 821 581 826 l 693 980 b 673 1020 710 1001 699 1020 l 574 1020 b 535 997 557 1020 544 1013 l 458 860 b 482 821 446 837 457 821 z "},"ų":{"ha":758,"x_min":0,"x_max":0,"o":"m 301 -15 b 499 104 378 -15 452 23 b 510 105 503 110 509 112 l 534 8 b 530 -3 535 3 534 0 b 420 -202 470 -51 420 -124 b 553 -331 420 -292 482 -331 b 631 -316 582 -331 607 -326 b 653 -277 648 -308 654 -294 l 650 -237 b 612 -218 648 -212 635 -210 b 586 -223 604 -222 595 -223 b 547 -170 563 -223 547 -207 b 626 -18 547 -126 567 -78 b 644 24 639 -5 644 8 l 644 665 b 611 698 644 686 631 698 l 533 698 b 500 665 513 698 500 687 l 500 298 b 499 288 500 295 500 292 b 335 112 466 186 400 112 b 246 232 285 112 246 154 l 246 665 b 213 698 246 686 234 698 l 135 698 b 102 665 115 698 102 686 l 102 212 b 301 -15 102 54 189 -15 z "},"v":{"ha":758,"x_min":0,"x_max":0,"o":"m 343 0 l 417 0 b 455 24 434 0 447 8 b 518 177 475 64 497 117 l 681 660 b 654 698 688 683 678 698 l 581 698 b 543 670 562 698 548 689 l 390 170 b 380 170 388 164 383 164 l 230 670 b 192 698 225 689 211 698 l 107 698 b 81 660 83 698 73 683 l 244 177 b 306 24 263 117 284 66 b 343 0 313 8 326 0 z "},"w":{"ha":758,"x_min":0,"x_max":0,"o":"m 198 0 l 245 0 b 283 25 264 0 277 8 b 321 158 297 66 312 114 l 375 431 b 384 431 376 437 383 437 l 434 163 b 473 25 446 107 458 64 b 511 0 480 8 494 0 l 564 0 b 604 25 582 0 596 8 b 640 173 619 64 629 107 l 726 663 b 696 698 730 684 718 698 l 635 698 b 601 668 615 698 604 688 l 537 229 b 528 227 535 222 529 221 l 471 499 b 438 609 463 542 451 578 b 400 633 431 625 418 633 l 364 633 b 326 609 346 633 333 625 b 295 503 314 580 304 545 l 236 231 b 227 231 235 225 229 225 l 164 668 b 129 698 162 688 149 698 l 62 698 b 32 663 39 698 28 684 l 121 160 b 160 25 130 114 145 64 b 198 0 167 8 181 0 z "},"ŵ":{"ha":758,"x_min":0,"x_max":0,"o":"m 198 0 l 245 0 b 283 25 264 0 277 8 b 321 158 297 66 312 114 l 375 431 b 384 431 376 437 383 437 l 434 163 b 473 25 446 107 458 64 b 511 0 480 8 494 0 l 564 0 b 604 25 582 0 596 8 b 640 173 619 64 629 107 l 726 663 b 696 698 730 684 718 698 l 635 698 b 601 668 615 698 604 688 l 537 229 b 528 227 535 222 529 221 l 471 499 b 438 609 463 542 451 578 b 400 633 431 625 418 633 l 364 633 b 326 609 346 633 333 625 b 295 503 314 580 304 545 l 236 231 b 227 231 235 225 229 225 l 164 668 b 129 698 162 688 149 698 l 62 698 b 32 663 39 698 28 684 l 121 160 b 160 25 130 114 145 64 b 198 0 167 8 181 0 z m 199 824 l 270 824 b 311 841 287 824 298 828 l 372 903 b 383 903 375 905 380 905 l 446 841 b 486 824 458 828 470 824 l 559 824 b 577 865 587 824 596 843 l 444 1018 b 404 1035 433 1032 420 1035 l 355 1035 b 314 1018 338 1035 326 1030 l 181 865 b 199 824 162 843 172 824 z "},"ẁ":{"ha":758,"x_min":0,"x_max":0,"o":"m 198 0 l 245 0 b 283 25 264 0 277 8 b 321 158 297 66 312 114 l 375 431 b 384 431 376 437 383 437 l 434 163 b 473 25 446 107 458 64 b 511 0 480 8 494 0 l 564 0 b 604 25 582 0 596 8 b 640 173 619 64 629 107 l 726 663 b 696 698 730 684 718 698 l 635 698 b 601 668 615 698 604 688 l 537 229 b 528 227 535 222 529 221 l 471 499 b 438 609 463 542 451 578 b 400 633 431 625 418 633 l 364 633 b 326 609 346 633 333 625 b 295 503 314 580 304 545 l 236 231 b 227 231 235 225 229 225 l 164 668 b 129 698 162 688 149 698 l 62 698 b 32 663 39 698 28 684 l 121 160 b 160 25 130 114 145 64 b 198 0 167 8 181 0 z m 183 986 l 290 846 b 331 826 301 832 314 826 l 413 826 b 436 865 438 826 448 842 l 359 1004 b 319 1027 350 1019 337 1027 l 203 1027 b 183 986 176 1027 167 1008 z "},"ẃ":{"ha":758,"x_min":0,"x_max":0,"o":"m 198 0 l 245 0 b 283 25 264 0 277 8 b 321 158 297 66 312 114 l 375 431 b 384 431 376 437 383 437 l 434 163 b 473 25 446 107 458 64 b 511 0 480 8 494 0 l 564 0 b 604 25 582 0 596 8 b 640 173 619 64 629 107 l 726 663 b 696 698 730 684 718 698 l 635 698 b 601 668 615 698 604 688 l 537 229 b 528 227 535 222 529 221 l 471 499 b 438 609 463 542 451 578 b 400 633 431 625 418 633 l 364 633 b 326 609 346 633 333 625 b 295 503 314 580 304 545 l 236 231 b 227 231 235 225 229 225 l 164 668 b 129 698 162 688 149 698 l 62 698 b 32 663 39 698 28 684 l 121 160 b 160 25 130 114 145 64 b 198 0 167 8 181 0 z m 355 826 l 437 826 b 477 846 453 826 467 832 l 586 986 b 566 1027 602 1008 593 1027 l 448 1027 b 409 1004 431 1027 418 1019 l 332 865 b 355 826 319 842 330 826 z "},"ẅ":{"ha":758,"x_min":0,"x_max":0,"o":"m 198 0 l 245 0 b 283 25 264 0 277 8 b 321 158 297 66 312 114 l 375 431 b 384 431 376 437 383 437 l 434 163 b 473 25 446 107 458 64 b 511 0 480 8 494 0 l 564 0 b 604 25 582 0 596 8 b 640 173 619 64 629 107 l 726 663 b 696 698 730 684 718 698 l 635 698 b 601 668 615 698 604 688 l 537 229 b 528 227 535 222 529 221 l 471 499 b 438 609 463 542 451 578 b 400 633 431 625 418 633 l 364 633 b 326 609 346 633 333 625 b 295 503 314 580 304 545 l 236 231 b 227 231 235 225 229 225 l 164 668 b 129 698 162 688 149 698 l 62 698 b 32 663 39 698 28 684 l 121 160 b 160 25 130 114 145 64 b 198 0 167 8 181 0 z m 128 915 b 237 806 128 857 177 806 b 345 915 295 806 345 857 b 237 1024 345 975 295 1024 b 128 915 177 1024 128 975 z m 413 915 b 523 806 413 857 462 806 b 630 915 581 806 630 857 b 523 1024 630 975 581 1024 b 413 915 462 1024 413 975 z "},"x":{"ha":758,"x_min":0,"x_max":0,"o":"m 569 0 l 659 0 b 681 40 686 0 696 19 l 467 356 b 467 366 465 360 465 362 l 658 659 b 635 698 672 681 662 698 l 549 698 b 510 676 532 698 519 691 l 386 472 b 376 472 384 467 379 467 l 245 677 b 206 698 236 692 223 698 l 111 698 b 90 658 85 698 74 679 l 290 361 b 290 351 293 357 293 355 l 87 39 b 109 0 73 18 82 0 l 192 0 b 231 21 210 0 222 6 l 371 246 b 381 247 374 251 379 253 l 530 21 b 569 0 540 8 552 0 z "},"y":{"ha":758,"x_min":0,"x_max":0,"o":"m 193 -259 b 475 -9 346 -259 422 -163 l 701 660 b 674 698 708 683 698 698 l 593 698 b 556 670 574 698 561 688 l 408 192 b 398 192 405 186 400 186 l 242 672 b 206 698 236 689 225 698 l 115 698 b 88 660 91 698 80 683 l 289 116 b 337 8 304 76 321 40 b 337 -3 338 4 338 1 b 162 -117 302 -82 264 -117 l 146 -117 b 135 -152 136 -117 133 -130 l 141 -226 b 174 -259 143 -245 154 -258 z "},"ý":{"ha":758,"x_min":0,"x_max":0,"o":"m 193 -259 b 475 -9 346 -259 422 -163 l 701 660 b 674 698 708 683 698 698 l 593 698 b 556 670 574 698 561 688 l 408 192 b 398 192 405 186 400 186 l 242 672 b 206 698 236 689 225 698 l 115 698 b 88 660 91 698 80 683 l 289 116 b 337 8 304 76 321 40 b 337 -3 338 4 338 1 b 162 -117 302 -82 264 -117 l 146 -117 b 135 -152 136 -117 133 -130 l 141 -226 b 174 -259 143 -245 154 -258 z m 364 826 l 446 826 b 486 846 462 826 476 832 l 595 986 b 574 1027 611 1008 602 1027 l 457 1027 b 418 1004 439 1027 427 1019 l 341 865 b 364 826 328 842 338 826 z "},"ÿ":{"ha":758,"x_min":0,"x_max":0,"o":"m 193 -259 b 475 -9 346 -259 422 -163 l 701 660 b 674 698 708 683 698 698 l 593 698 b 556 670 574 698 561 688 l 408 192 b 398 192 405 186 400 186 l 242 672 b 206 698 236 689 225 698 l 115 698 b 88 660 91 698 80 683 l 289 116 b 337 8 304 76 321 40 b 337 -3 338 4 338 1 b 162 -117 302 -82 264 -117 l 146 -117 b 135 -152 136 -117 133 -130 l 141 -226 b 174 -259 143 -245 154 -258 z m 136 915 b 246 806 136 857 186 806 b 354 915 304 806 354 857 b 246 1024 354 975 304 1024 b 136 915 186 1024 136 975 z m 422 915 b 532 806 422 857 471 806 b 639 915 590 806 639 857 b 532 1024 639 975 590 1024 b 422 915 471 1024 422 975 z "},"ŷ":{"ha":758,"x_min":0,"x_max":0,"o":"m 193 -259 b 475 -9 346 -259 422 -163 l 701 660 b 674 698 708 683 698 698 l 593 698 b 556 670 574 698 561 688 l 408 192 b 398 192 405 186 400 186 l 242 672 b 206 698 236 689 225 698 l 115 698 b 88 660 91 698 80 683 l 289 116 b 337 8 304 76 321 40 b 337 -3 338 4 338 1 b 162 -117 302 -82 264 -117 l 146 -117 b 135 -152 136 -117 133 -130 l 141 -226 b 174 -259 143 -245 154 -258 z m 208 824 l 279 824 b 319 841 295 824 307 828 l 381 903 b 391 903 384 905 389 905 l 455 841 b 495 824 467 828 479 824 l 568 824 b 586 865 596 824 605 843 l 453 1018 b 413 1035 442 1032 429 1035 l 364 1035 b 323 1018 347 1035 335 1030 l 189 865 b 208 824 170 843 181 824 z "},"ỳ":{"ha":758,"x_min":0,"x_max":0,"o":"m 193 -259 b 475 -9 346 -259 422 -163 l 701 660 b 674 698 708 683 698 698 l 593 698 b 556 670 574 698 561 688 l 408 192 b 398 192 405 186 400 186 l 242 672 b 206 698 236 689 225 698 l 115 698 b 88 660 91 698 80 683 l 289 116 b 337 8 304 76 321 40 b 337 -3 338 4 338 1 b 162 -117 302 -82 264 -117 l 146 -117 b 135 -152 136 -117 133 -130 l 141 -226 b 174 -259 143 -245 154 -258 z m 192 986 l 299 846 b 340 826 309 832 323 826 l 422 826 b 444 865 447 826 457 842 l 367 1004 b 328 1027 359 1019 346 1027 l 212 1027 b 192 986 184 1027 176 1008 z "},"z":{"ha":758,"x_min":0,"x_max":0,"o":"m 101 104 l 101 33 b 134 0 101 13 112 0 l 625 0 b 658 33 645 0 658 13 l 658 90 b 625 122 658 110 646 122 l 271 122 b 266 131 265 122 263 126 l 576 494 b 625 559 592 514 611 537 b 635 600 633 573 635 585 l 635 665 b 602 698 635 686 622 698 l 155 698 b 122 665 135 698 122 687 l 122 610 b 155 577 122 590 135 577 l 468 577 b 473 568 475 577 477 573 l 176 225 b 112 144 154 201 131 173 b 101 104 104 130 101 119 z "},"ź":{"ha":758,"x_min":0,"x_max":0,"o":"m 101 104 l 101 33 b 134 0 101 13 112 0 l 625 0 b 658 33 645 0 658 13 l 658 90 b 625 122 658 110 646 122 l 271 122 b 266 131 265 122 263 126 l 576 494 b 625 559 592 514 611 537 b 635 600 633 573 635 585 l 635 665 b 602 698 635 686 622 698 l 155 698 b 122 665 135 698 122 687 l 122 610 b 155 577 122 590 135 577 l 468 577 b 473 568 475 577 477 573 l 176 225 b 112 144 154 201 131 173 b 101 104 104 130 101 119 z m 357 826 l 439 826 b 480 846 456 826 470 832 l 588 986 b 568 1027 605 1008 596 1027 l 451 1027 b 412 1004 433 1027 420 1019 l 335 865 b 357 826 322 842 332 826 z "},"ż":{"ha":758,"x_min":0,"x_max":0,"o":"m 101 104 l 101 33 b 134 0 101 13 112 0 l 625 0 b 658 33 645 0 658 13 l 658 90 b 625 122 658 110 646 122 l 271 122 b 266 131 265 122 263 126 l 576 494 b 625 559 592 514 611 537 b 635 600 633 573 635 585 l 635 665 b 602 698 635 686 622 698 l 155 698 b 122 665 135 698 122 687 l 122 610 b 155 577 122 590 135 577 l 468 577 b 473 568 475 577 477 573 l 176 225 b 112 144 154 201 131 173 b 101 104 104 130 101 119 z m 273 915 b 383 806 273 857 322 806 b 490 915 441 806 490 857 b 383 1024 490 975 441 1024 b 273 915 322 1024 273 975 z "},"ž":{"ha":758,"x_min":0,"x_max":0,"o":"m 101 104 l 101 33 b 134 0 101 13 112 0 l 625 0 b 658 33 645 0 658 13 l 658 90 b 625 122 658 110 646 122 l 271 122 b 266 131 265 122 263 126 l 576 494 b 625 559 592 514 611 537 b 635 600 633 573 635 585 l 635 665 b 602 698 635 686 622 698 l 155 698 b 122 665 135 698 122 687 l 122 610 b 155 577 122 590 135 577 l 468 577 b 473 568 475 577 477 573 l 176 225 b 112 144 154 201 131 173 b 101 104 104 130 101 119 z m 183 984 l 316 831 b 356 813 327 817 340 813 l 405 813 b 446 831 422 813 434 818 l 580 984 b 561 1024 598 1005 588 1024 l 490 1024 b 449 1008 473 1024 462 1020 l 388 946 b 378 946 385 943 380 943 l 314 1008 b 274 1024 302 1020 290 1024 l 201 1024 b 183 984 173 1024 164 1005 z "},"ß":{"ha":758,"x_min":0,"x_max":0,"o":"m 443 -9 b 699 268 602 -9 699 85 b 521 516 699 410 639 495 b 521 521 515 516 515 519 b 654 712 619 552 654 624 b 378 962 654 872 538 962 b 109 712 231 962 109 878 l 109 33 b 141 0 109 13 121 0 l 221 0 b 254 33 241 0 254 11 l 254 696 b 378 836 254 780 299 836 b 501 708 443 836 501 801 b 403 556 501 625 473 580 b 375 519 384 549 375 538 l 375 470 b 408 437 375 449 386 438 b 548 270 516 428 548 384 b 443 117 548 160 506 117 b 391 122 423 117 405 120 b 355 96 367 128 355 119 l 355 34 b 383 -3 355 15 364 1 b 443 -9 400 -6 422 -9 z "},"æ":{"ha":758,"x_min":0,"x_max":0,"o":"m 534 -15 b 712 131 615 -15 670 30 b 696 188 725 163 717 183 l 645 199 b 606 174 625 205 612 196 b 535 93 590 124 564 93 b 439 306 477 93 446 150 b 447 313 439 311 442 313 l 686 313 b 720 343 706 313 717 323 b 726 428 723 372 726 405 b 528 713 726 586 655 713 b 398 639 475 713 432 683 b 388 639 395 634 391 634 b 247 713 357 682 312 713 b 51 564 159 713 87 665 b 69 521 43 544 51 530 l 117 501 b 160 521 136 494 153 500 b 249 605 184 580 213 605 b 319 485 292 605 319 559 l 319 433 b 312 426 319 429 317 426 b 29 189 143 410 29 350 b 207 -15 29 57 102 -15 b 362 83 283 -15 327 24 b 372 83 365 88 370 88 b 534 -15 412 19 466 -15 z m 159 191 b 304 331 159 285 196 314 b 314 324 311 332 314 330 b 327 210 316 283 321 244 b 327 199 328 206 328 203 b 222 97 308 130 264 97 b 159 191 184 97 159 128 z m 441 415 b 527 609 448 540 481 609 b 605 443 573 609 604 539 b 605 414 605 434 606 424 b 596 408 604 410 600 408 l 448 408 b 441 415 443 408 441 410 z "},"ǽ":{"ha":758,"x_min":0,"x_max":0,"o":"m 534 -15 b 712 131 615 -15 670 30 b 696 188 725 163 717 183 l 645 199 b 606 174 625 205 612 196 b 535 93 590 124 564 93 b 439 306 477 93 446 150 b 447 313 439 311 442 313 l 686 313 b 720 343 706 313 717 323 b 726 428 723 372 726 405 b 528 713 726 586 655 713 b 398 639 475 713 432 683 b 388 639 395 634 391 634 b 247 713 357 682 312 713 b 51 564 159 713 87 665 b 69 521 43 544 51 530 l 117 501 b 160 521 136 494 153 500 b 249 605 184 580 213 605 b 319 485 292 605 319 559 l 319 433 b 312 426 319 429 317 426 b 29 189 143 410 29 350 b 207 -15 29 57 102 -15 b 362 83 283 -15 327 24 b 372 83 365 88 370 88 b 534 -15 412 19 466 -15 z m 159 191 b 304 331 159 285 196 314 b 314 324 311 332 314 330 b 327 210 316 283 321 244 b 327 199 328 206 328 203 b 222 97 308 130 264 97 b 159 191 184 97 159 128 z m 352 826 l 434 826 b 475 846 451 826 465 832 l 583 986 b 563 1027 600 1008 591 1027 l 446 1027 b 407 1004 428 1027 415 1019 l 330 865 b 352 826 317 842 327 826 z m 441 415 b 527 609 448 540 481 609 b 605 443 573 609 604 539 b 605 414 605 434 606 424 b 596 408 604 410 600 408 l 448 408 b 441 415 443 408 441 410 z "},"ð":{"ha":758,"x_min":0,"x_max":0,"o":"m 384 -15 b 703 420 577 -15 703 117 b 592 795 703 577 664 702 b 593 806 588 799 590 803 l 654 842 b 665 888 672 854 676 870 l 648 917 b 604 928 638 934 621 939 l 520 878 b 510 878 516 875 514 875 b 225 963 437 932 341 961 b 189 933 205 963 192 952 l 181 876 b 211 841 177 855 188 842 b 384 803 278 841 336 827 b 384 793 389 801 389 795 l 328 758 b 317 712 311 746 307 730 l 333 684 b 378 673 343 667 360 662 l 463 726 b 473 725 467 729 471 729 b 552 482 519 664 545 583 b 545 481 553 476 549 475 b 362 563 500 547 423 563 b 78 283 202 563 78 451 b 384 -15 78 96 202 -15 z m 230 283 b 369 438 230 376 294 438 b 547 332 441 438 495 417 b 549 322 548 328 549 326 b 385 112 532 172 475 112 b 230 283 290 112 230 177 z "},"ø":{"ha":758,"x_min":0,"x_max":0,"o":"m 63 0 l 116 0 b 157 19 133 0 145 5 l 178 44 b 189 44 181 48 186 48 b 378 -15 240 6 303 -15 b 702 351 573 -15 702 134 b 645 571 702 437 682 510 b 645 581 643 574 643 577 l 713 658 b 696 698 732 679 723 698 l 643 698 b 602 679 626 698 614 693 l 581 654 b 569 654 578 650 573 650 b 378 713 518 692 453 713 b 56 351 183 713 56 566 b 112 128 56 264 76 188 b 112 117 115 124 115 121 l 45 40 b 63 0 27 19 35 0 z m 208 351 b 378 587 208 492 275 587 b 479 549 418 587 451 573 b 479 539 482 545 481 543 l 231 253 b 221 254 227 249 222 249 b 208 351 212 283 208 316 z m 279 159 l 528 444 b 538 443 532 449 537 448 b 549 351 545 415 549 385 b 378 111 549 208 482 111 b 279 149 340 111 307 125 b 279 159 275 153 277 155 z "},"ǿ":{"ha":758,"x_min":0,"x_max":0,"o":"m 63 0 l 116 0 b 157 19 133 0 145 5 l 178 44 b 189 44 181 48 186 48 b 378 -15 240 6 303 -15 b 702 351 573 -15 702 134 b 645 571 702 437 682 510 b 645 581 643 574 643 577 l 713 658 b 696 698 732 679 723 698 l 643 698 b 602 679 626 698 614 693 l 581 654 b 569 654 578 650 573 650 b 378 713 518 692 453 713 b 56 351 183 713 56 566 b 112 128 56 264 76 188 b 112 117 115 124 115 121 l 45 40 b 63 0 27 19 35 0 z m 208 351 b 378 587 208 492 275 587 b 479 549 418 587 451 573 b 479 539 482 545 481 543 l 231 253 b 221 254 227 249 222 249 b 208 351 212 283 208 316 z m 279 159 l 528 444 b 538 443 532 449 537 448 b 549 351 545 415 549 385 b 378 111 549 208 482 111 b 279 149 340 111 307 125 b 279 159 275 153 277 155 z m 355 826 l 437 826 b 477 846 453 826 467 832 l 586 986 b 566 1027 602 1008 593 1027 l 448 1027 b 409 1004 431 1027 418 1019 l 332 865 b 355 826 319 842 330 826 z "},"þ":{"ha":758,"x_min":0,"x_max":0,"o":"m 415 -15 b 689 348 561 -15 689 109 b 417 713 689 591 564 713 b 255 633 346 713 294 687 b 246 635 251 626 246 629 l 246 913 b 213 946 246 933 234 946 l 135 946 b 102 913 115 946 102 934 l 102 -216 b 135 -249 102 -236 115 -249 l 213 -249 b 246 -216 234 -249 246 -236 l 246 61 b 255 63 246 67 251 69 b 415 -15 294 14 346 -15 z m 246 253 l 246 441 b 247 451 246 443 246 447 b 399 587 287 562 354 587 b 533 348 481 587 533 500 b 399 111 533 205 482 111 b 247 242 340 111 283 148 b 246 253 246 246 246 250 z "},"đ":{"ha":758,"x_min":0,"x_max":0,"o":"m 442 760 l 504 760 b 511 753 509 760 511 758 l 511 636 b 503 633 511 630 506 628 b 342 713 463 687 410 713 b 77 351 203 713 77 591 b 341 -15 77 107 196 -15 b 518 85 422 -15 477 23 b 527 83 520 91 525 91 l 540 29 b 576 0 545 9 557 0 l 615 0 b 648 33 635 0 648 11 l 648 753 b 655 760 648 758 650 760 l 718 760 b 751 793 739 760 751 771 l 751 840 b 718 872 751 860 739 872 l 655 872 b 648 880 650 872 648 875 l 648 914 b 615 947 648 934 635 947 l 544 947 b 511 914 524 947 511 936 l 511 880 b 504 872 511 875 509 872 l 442 872 b 409 840 422 872 409 861 l 409 793 b 442 760 409 773 422 760 z m 225 351 b 359 588 225 494 274 588 b 510 457 417 588 473 548 b 511 447 511 453 511 449 l 511 260 b 510 250 511 258 511 254 b 359 112 471 134 405 112 b 225 351 277 112 225 197 z "},"ħ":{"ha":758,"x_min":0,"x_max":0,"o":"m 64 760 l 112 760 b 120 753 117 760 120 758 l 120 33 b 153 0 120 13 133 0 l 223 0 b 256 33 244 0 256 13 l 256 409 b 258 419 256 412 256 415 b 423 585 292 516 357 585 b 513 467 473 585 513 544 l 513 33 b 545 0 513 13 525 0 l 616 0 b 649 33 636 0 649 13 l 649 486 b 451 713 649 643 563 713 b 265 616 381 713 312 682 b 256 619 261 610 256 612 l 256 753 b 264 760 256 758 259 760 l 341 760 b 374 793 361 760 374 771 l 374 840 b 341 872 374 860 362 872 l 264 872 b 256 880 259 872 256 875 l 256 914 b 223 947 256 934 244 947 l 153 947 b 120 914 133 947 120 936 l 120 880 b 112 872 120 875 117 872 l 64 872 b 32 840 44 872 32 861 l 32 793 b 64 760 32 773 43 760 z "},"ĳ":{"ha":758,"x_min":0,"x_max":0,"o":"m 170 0 l 249 0 b 282 33 269 0 282 11 l 282 665 b 249 698 282 686 269 698 l 170 698 b 138 665 150 698 138 687 l 138 33 b 170 0 138 13 150 0 z m 95 915 b 205 806 95 857 144 806 b 312 915 263 806 312 857 b 205 1024 312 975 263 1024 b 95 915 144 1024 95 975 z m 278 -260 b 408 -283 313 -273 359 -283 b 629 -47 547 -283 629 -201 l 629 665 b 596 698 629 686 616 698 l 518 698 b 485 665 497 698 485 687 l 485 -37 b 408 -155 485 -111 455 -155 b 317 -135 379 -155 345 -145 b 275 -155 295 -126 282 -134 l 258 -218 b 278 -260 253 -237 259 -254 z m 448 915 b 558 806 448 857 497 806 b 665 915 616 806 665 857 b 558 1024 665 975 616 1024 b 448 915 497 1024 448 975 z "},"ĸ":{"ha":758,"x_min":0,"x_max":0,"o":"m 162 0 l 240 0 b 273 33 260 0 273 11 l 273 211 b 277 220 273 215 274 216 l 366 319 b 378 318 370 324 375 322 l 551 23 b 590 0 559 6 572 0 l 686 0 b 707 39 711 0 720 16 l 475 431 b 475 441 472 434 472 437 l 672 658 b 654 698 691 679 682 698 l 564 698 b 524 681 548 698 535 693 l 282 407 b 273 410 278 402 273 404 l 273 667 b 240 699 273 687 260 699 l 162 699 b 129 667 141 699 129 688 l 129 33 b 162 0 129 13 141 0 z "},"ŀ":{"ha":758,"x_min":0,"x_max":0,"o":"m 119 0 l 636 0 b 669 33 657 0 669 13 l 669 90 b 636 122 669 110 657 122 l 457 122 b 449 130 452 122 449 126 l 449 914 b 417 947 449 934 437 947 l 141 947 b 109 914 121 947 109 934 l 109 857 b 141 824 109 837 120 824 l 298 824 b 306 817 303 824 306 821 l 306 130 b 298 122 306 125 302 122 l 119 122 b 86 90 98 122 86 110 l 86 33 b 119 0 86 13 98 0 z m 649 486 b 764 371 649 424 702 371 b 879 486 824 371 879 424 b 764 600 879 545 824 600 b 649 486 702 600 649 545 z "},"ł":{"ha":758,"x_min":0,"x_max":0,"o":"m 557 629 l 458 602 b 449 609 453 601 449 604 l 449 914 b 417 947 449 934 437 947 l 141 947 b 109 914 121 947 109 934 l 109 857 b 141 824 109 837 120 824 l 298 824 b 306 817 303 824 306 822 l 306 566 b 299 558 306 562 303 559 l 196 529 b 168 492 177 524 168 511 l 168 428 b 205 400 168 405 182 394 l 297 426 b 306 419 302 427 306 424 l 306 130 b 298 122 306 125 302 122 l 119 122 b 86 90 98 122 86 110 l 86 33 b 119 0 86 13 97 0 l 636 0 b 669 33 657 0 669 13 l 669 90 b 636 122 669 110 657 122 l 457 122 b 449 130 452 122 449 125 l 449 462 b 456 470 449 466 452 468 l 566 500 b 593 537 585 505 593 518 l 593 601 b 557 629 593 624 580 635 z "},"ŋ":{"ha":758,"x_min":0,"x_max":0,"o":"m 438 -284 b 655 -59 573 -284 655 -206 l 655 486 b 458 713 655 643 567 713 b 258 595 378 713 304 674 b 247 596 254 588 249 588 l 230 670 b 193 698 225 691 212 698 l 146 698 b 114 665 126 698 114 687 l 114 33 b 146 0 114 13 126 0 l 225 0 b 258 33 245 0 258 11 l 258 400 b 259 410 258 403 258 407 b 423 587 292 513 357 587 b 511 467 472 587 511 545 l 511 -53 b 431 -154 511 -115 477 -154 b 352 -144 405 -154 378 -150 b 312 -167 331 -139 317 -146 l 298 -229 b 321 -269 294 -247 301 -264 b 438 -284 352 -278 393 -284 z "},"œ":{"ha":758,"x_min":0,"x_max":0,"o":"m 236 92 b 328 351 293 92 328 194 b 236 609 328 508 293 609 b 153 351 184 609 153 508 b 236 92 153 194 184 92 z m 21 351 b 232 713 21 571 101 713 b 379 605 299 713 350 678 b 404 605 389 583 395 583 b 556 713 437 679 492 713 b 741 409 672 713 741 585 b 732 301 741 378 737 333 b 723 293 731 295 727 293 l 490 293 b 458 258 468 293 456 280 b 561 91 468 149 503 91 b 626 182 595 91 615 126 b 635 187 628 187 631 188 l 732 159 b 737 149 736 158 739 154 b 562 -15 705 34 643 -15 b 402 91 491 -15 433 18 b 378 90 391 112 386 111 b 232 -15 347 18 292 -15 b 21 351 101 -15 21 129 z m 487 389 l 588 389 b 621 420 609 389 621 400 l 621 426 b 548 609 620 529 593 609 b 455 424 499 609 463 535 b 487 389 453 402 466 389 z "},"ŧ":{"ha":758,"x_min":0,"x_max":0,"o":"m 612 452 l 367 452 b 360 460 362 452 360 456 l 360 569 b 367 577 360 574 364 577 l 612 577 b 645 610 633 577 645 588 l 645 665 b 612 698 645 686 634 698 l 367 698 b 360 706 362 698 360 702 l 360 841 b 327 874 360 861 347 874 l 247 874 b 215 841 227 874 215 861 l 215 706 b 207 698 215 701 212 698 l 93 698 b 61 665 73 698 61 687 l 61 610 b 93 577 61 590 73 577 l 207 577 b 215 569 212 577 215 573 l 215 460 b 207 452 215 455 212 452 l 93 452 b 61 419 73 452 61 439 l 61 362 b 93 330 61 342 73 330 l 207 330 b 215 322 212 330 215 327 l 215 218 b 452 -15 215 68 298 -15 b 646 35 537 -15 591 3 b 659 80 664 45 668 61 l 628 141 b 582 152 617 163 601 165 b 461 111 544 125 506 111 b 360 229 399 111 360 158 l 360 322 b 367 330 360 327 364 330 l 612 330 b 645 362 633 330 645 342 l 645 419 b 612 452 645 439 634 452 z "},"ſ":{"ha":758,"x_min":0,"x_max":0,"o":"m 255 741 l 255 706 b 247 698 255 701 253 698 l 125 698 b 92 665 105 698 92 686 l 92 609 b 125 576 92 588 104 576 l 247 576 b 255 568 253 576 255 572 l 255 33 b 288 0 255 13 268 0 l 366 0 b 399 33 386 0 399 11 l 399 741 b 497 840 399 801 436 840 b 625 806 544 840 585 827 b 669 819 644 795 659 799 l 701 883 b 687 926 710 902 706 917 b 494 968 633 951 576 968 b 255 741 338 968 255 880 z "},"ȷ":{"ha":758,"x_min":0,"x_max":0,"o":"m 308 -250 b 580 3 477 -250 580 -160 l 580 665 b 547 698 580 686 568 698 l 197 698 b 164 665 177 698 164 687 l 164 610 b 197 577 164 590 177 577 l 428 577 b 436 569 433 577 436 573 l 436 14 b 306 -125 436 -80 386 -125 b 164 -98 259 -125 207 -114 b 122 -117 144 -91 129 -97 l 102 -179 b 122 -221 96 -198 104 -215 b 308 -250 172 -239 236 -250 z "},"_":{"ha":758,"x_min":0,"x_max":0,"o":"m 699 -76 l 58 -76 b 25 -109 38 -76 25 -88 l 25 -184 b 58 -217 25 -205 38 -217 l 699 -217 b 732 -184 720 -217 732 -205 l 732 -109 b 699 -76 732 -88 721 -76 z "},"-":{"ha":758,"x_min":0,"x_max":0,"o":"m 569 477 l 187 477 b 154 444 167 477 154 466 l 154 364 b 187 331 154 343 167 331 l 569 331 b 602 364 590 331 602 342 l 602 444 b 569 477 602 465 591 477 z "},"–":{"ha":758,"x_min":0,"x_max":0,"o":"m 606 475 l 152 475 b 119 442 131 475 119 462 l 119 371 b 152 338 119 351 131 338 l 606 338 b 639 371 626 338 639 351 l 639 442 b 606 475 639 462 628 475 z "},"—":{"ha":758,"x_min":0,"x_max":0,"o":"m 698 475 l 59 475 b 27 442 39 475 27 463 l 27 376 b 59 343 27 356 39 343 l 698 343 b 731 376 718 343 731 355 l 731 442 b 698 475 731 462 718 475 z "},"(":{"ha":758,"x_min":0,"x_max":0,"o":"m 234 410 b 463 -164 234 150 324 -9 b 505 -168 475 -177 489 -177 l 563 -135 b 572 -90 582 -124 586 -107 b 393 409 453 72 393 208 b 572 908 393 612 453 749 b 563 953 586 926 582 942 l 505 986 b 460 979 489 996 473 994 b 234 410 323 827 234 668 z "},")":{"ha":758,"x_min":0,"x_max":0,"o":"m 524 408 b 294 982 524 668 433 827 b 253 986 283 995 269 995 l 194 953 b 186 908 176 942 172 926 b 365 409 304 746 365 610 b 186 -90 365 206 304 69 b 194 -135 172 -107 176 -124 l 253 -168 b 298 -160 269 -178 284 -176 b 524 408 434 -9 524 150 z "},"[":{"ha":758,"x_min":0,"x_max":0,"o":"m 265 -169 l 569 -169 b 602 -136 590 -169 602 -157 l 602 -67 b 569 -34 602 -47 591 -34 l 395 -34 b 388 -27 390 -34 388 -30 l 388 854 b 395 861 388 859 390 861 l 569 861 b 602 894 590 861 602 874 l 602 962 b 569 995 602 982 590 995 l 265 995 b 232 962 245 995 232 982 l 232 -136 b 265 -169 232 -157 244 -169 z "},"]":{"ha":758,"x_min":0,"x_max":0,"o":"m 492 996 l 188 996 b 155 963 168 996 155 984 l 155 894 b 188 861 155 874 167 861 l 362 861 b 370 854 367 861 370 857 l 370 -27 b 362 -34 370 -32 367 -34 l 188 -34 b 155 -67 168 -34 155 -47 l 155 -135 b 188 -168 155 -155 168 -168 l 492 -168 b 525 -135 513 -168 525 -155 l 525 963 b 492 996 525 984 514 996 z "},"{":{"ha":758,"x_min":0,"x_max":0,"o":"m 129 434 l 129 390 b 162 356 129 370 140 359 b 345 235 282 346 345 292 b 294 138 345 212 335 192 b 239 10 254 85 239 45 b 462 -168 239 -128 360 -168 l 597 -168 b 630 -135 617 -168 630 -155 l 630 -67 b 597 -34 630 -47 619 -34 l 503 -34 b 405 25 444 -34 405 -15 b 453 112 405 44 418 64 b 513 239 500 176 513 211 b 347 410 513 317 443 380 b 347 418 341 412 341 417 b 516 581 456 449 516 509 b 453 717 516 614 504 648 b 405 803 418 764 405 787 b 503 861 405 842 444 861 l 597 861 b 630 894 617 861 630 874 l 630 962 b 597 995 630 982 617 995 l 462 995 b 239 817 356 995 239 957 b 295 687 239 784 253 745 b 345 592 332 639 345 615 b 162 468 345 537 284 484 b 129 434 140 466 129 455 z "},"}":{"ha":758,"x_min":0,"x_max":0,"o":"m 633 393 l 633 437 b 600 471 633 457 621 468 b 417 592 480 481 417 535 b 467 689 417 615 427 635 b 523 817 508 742 523 782 b 299 995 523 955 402 995 l 164 995 b 131 962 144 995 131 982 l 131 894 b 164 861 131 874 143 861 l 259 861 b 356 802 317 861 356 842 b 308 715 356 783 343 763 b 249 588 261 652 249 616 b 414 417 249 510 318 447 b 414 409 420 415 420 410 b 245 246 306 378 245 318 b 308 110 245 213 258 179 b 356 24 343 63 356 40 b 259 -34 356 -15 317 -34 l 164 -34 b 131 -67 144 -34 131 -47 l 131 -135 b 164 -168 131 -155 144 -168 l 299 -168 b 523 10 405 -168 523 -130 b 466 140 523 43 509 82 b 417 235 429 188 417 212 b 600 359 417 290 477 343 b 633 393 621 361 633 372 z "},"#":{"ha":758,"x_min":0,"x_max":0,"o":"m 183 1 l 235 1 b 269 33 255 1 268 11 l 287 231 b 294 239 287 235 290 239 l 438 239 b 444 231 443 239 444 236 l 428 35 b 460 1 427 14 438 1 l 511 1 b 545 33 532 1 544 11 l 563 231 b 571 239 563 235 567 239 l 676 239 b 708 271 696 239 708 250 l 708 322 b 676 355 708 342 697 355 l 581 355 b 574 362 576 355 574 357 l 590 535 b 598 543 590 539 595 543 l 689 543 b 722 576 710 543 722 554 l 722 626 b 689 659 722 646 711 659 l 609 659 b 602 667 604 659 602 662 l 619 862 b 587 896 620 884 609 896 l 534 896 b 500 865 514 896 501 886 l 482 667 b 475 659 482 663 479 659 l 332 659 b 326 667 327 659 326 662 l 342 862 b 311 896 343 884 332 896 l 259 896 b 225 865 239 896 226 886 l 207 667 b 199 659 207 663 203 659 l 87 659 b 54 626 67 659 54 648 l 54 576 b 87 543 54 556 66 543 l 189 543 b 196 535 194 543 196 540 l 181 362 b 172 355 181 359 176 355 l 73 355 b 40 322 53 355 40 343 l 40 271 b 73 239 40 251 52 239 l 162 239 b 168 231 167 239 168 236 l 152 35 b 183 1 150 14 162 1 z m 298 362 l 313 535 b 322 543 313 539 318 543 l 465 543 b 471 535 470 543 471 540 l 456 362 b 448 355 456 359 452 355 l 304 355 b 298 362 299 355 298 357 z "},"%":{"ha":758,"x_min":0,"x_max":0,"o":"m 104 154 l 715 665 b 718 712 731 679 732 696 l 696 739 b 649 741 682 754 665 755 l 38 229 b 35 182 21 215 21 198 l 57 158 b 104 154 71 141 87 141 z m 34 708 b 220 506 34 586 109 506 b 408 708 333 506 408 586 b 220 909 408 830 333 909 b 34 708 109 909 34 830 z m 148 708 b 220 816 148 774 178 816 b 294 708 264 816 294 774 b 220 601 294 643 264 601 b 148 708 178 601 148 643 z m 356 191 b 542 -13 356 68 432 -13 b 730 191 655 -13 730 68 b 542 391 730 312 655 391 b 356 191 432 391 356 312 z m 471 191 b 542 298 471 255 501 298 b 616 191 587 298 616 255 b 542 82 616 125 587 82 b 471 191 501 82 471 125 z "},"'":{"ha":758,"x_min":0,"x_max":0,"o":"m 342 511 l 417 511 b 449 543 437 511 448 523 l 468 862 b 436 896 470 885 457 896 l 323 896 b 292 862 302 896 290 885 l 309 543 b 342 511 311 523 322 511 z "},"\"":{"ha":758,"x_min":0,"x_max":0,"o":"m 181 511 l 259 511 b 292 543 279 511 290 523 l 311 862 b 278 896 312 885 299 896 l 162 896 b 130 862 140 896 129 885 l 148 543 b 181 511 149 523 160 511 z m 446 862 l 465 543 b 497 511 466 523 477 511 l 577 511 b 610 543 597 511 609 523 l 629 862 b 596 896 630 885 617 896 l 479 896 b 446 862 457 896 444 885 z "},"‘":{"ha":758,"x_min":0,"x_max":0,"o":"m 513 848 l 491 885 b 446 899 481 903 465 908 b 249 598 297 821 249 726 b 360 470 249 518 294 470 b 470 569 424 470 470 510 b 389 660 470 612 446 649 b 383 668 385 662 383 664 b 497 804 383 713 414 761 b 513 848 519 814 524 830 z "},"’":{"ha":758,"x_min":0,"x_max":0,"o":"m 254 533 l 275 496 b 321 482 285 479 302 473 b 518 782 470 561 518 655 b 405 910 518 864 472 910 b 297 811 342 910 297 871 b 376 721 297 769 319 732 b 383 713 380 720 383 717 b 269 577 383 668 352 620 b 254 533 247 567 242 552 z "},"“":{"ha":758,"x_min":0,"x_max":0,"o":"m 366 848 l 345 885 b 299 899 335 903 318 908 b 102 598 150 821 102 726 b 213 470 102 518 148 470 b 323 569 278 470 323 510 b 244 660 323 612 301 649 b 236 668 239 662 236 664 b 351 804 237 713 268 761 b 366 848 372 814 378 830 z m 424 598 b 535 470 424 518 470 470 b 645 569 600 470 645 510 b 564 660 645 612 621 649 b 558 668 561 662 558 664 b 673 804 558 713 590 761 b 688 848 694 814 699 830 l 667 885 b 621 899 657 903 640 908 b 424 598 472 821 424 726 z "},"”":{"ha":758,"x_min":0,"x_max":0,"o":"m 422 533 l 443 496 b 487 482 453 477 468 473 b 684 782 638 561 684 655 b 573 910 684 864 639 910 b 463 811 509 910 463 871 b 544 721 463 769 487 732 b 551 713 548 720 551 717 b 436 577 551 668 519 620 b 422 533 415 567 410 552 z m 100 533 l 121 496 b 167 482 131 479 148 473 b 364 782 316 561 364 655 b 251 910 364 864 317 910 b 141 811 188 910 141 871 b 222 721 141 769 165 732 b 229 713 226 720 229 717 b 114 577 229 668 197 620 b 100 533 93 567 88 552 z "},"‚":{"ha":758,"x_min":0,"x_max":0,"o":"m 254 -120 l 275 -157 b 321 -170 285 -174 302 -179 b 518 130 470 -92 518 3 b 405 259 518 211 472 259 b 297 158 342 259 297 218 b 376 68 297 116 319 80 b 383 61 380 67 383 64 b 269 -76 383 15 352 -33 b 254 -120 247 -86 242 -101 z "},"„":{"ha":758,"x_min":0,"x_max":0,"o":"m 104 -120 l 125 -157 b 170 -170 135 -174 152 -179 b 367 130 319 -92 367 3 b 256 259 367 211 322 259 b 146 158 192 259 146 218 b 226 68 146 116 169 80 b 234 61 231 67 234 64 b 119 -76 232 15 202 -33 b 104 -120 97 -86 92 -101 z m 398 -120 l 419 -157 b 463 -170 429 -176 444 -179 b 662 130 614 -92 662 3 b 549 259 662 211 615 259 b 439 158 485 259 439 218 b 520 68 439 116 463 80 b 527 61 524 67 527 64 b 412 -76 527 15 495 -33 b 398 -120 391 -86 386 -101 z "},"‹":{"ha":758,"x_min":0,"x_max":0,"o":"m 444 56 l 537 56 b 556 96 564 56 572 74 l 359 347 b 359 357 356 351 356 354 l 556 604 b 535 644 573 626 563 644 l 443 644 b 403 624 427 644 413 638 l 217 374 b 217 328 206 357 206 345 l 404 76 b 444 56 414 62 428 56 z "},"›":{"ha":758,"x_min":0,"x_max":0,"o":"m 313 644 l 221 644 b 202 604 193 644 186 625 l 399 352 b 399 342 402 348 402 346 l 202 96 b 222 56 184 73 194 56 l 314 56 b 355 76 331 56 345 62 l 540 326 b 540 371 552 342 552 355 l 354 624 b 313 644 343 638 330 644 z "},"«":{"ha":758,"x_min":0,"x_max":0,"o":"m 551 56 l 635 56 b 658 95 660 56 670 72 l 519 346 b 519 356 518 350 518 352 l 658 605 b 634 644 670 628 659 644 l 551 644 b 511 621 533 644 520 636 l 379 372 b 379 327 371 357 371 342 l 511 78 b 551 56 520 63 533 56 z m 88 327 l 221 78 b 260 56 230 63 242 56 l 343 56 b 366 95 369 56 379 72 l 227 345 b 227 355 226 348 226 351 l 366 605 b 343 644 379 628 369 644 l 260 644 b 221 621 242 644 230 636 l 88 372 b 88 327 81 357 81 342 z "},"»":{"ha":758,"x_min":0,"x_max":0,"o":"m 207 644 l 122 644 b 100 605 97 644 87 628 l 239 354 b 239 343 240 350 240 347 l 100 95 b 124 56 87 72 98 56 l 207 56 b 246 78 225 56 237 63 l 379 327 b 379 372 386 342 386 357 l 246 621 b 207 644 237 636 225 644 z m 414 56 l 497 56 b 537 78 515 56 528 63 l 669 327 b 669 372 677 342 677 357 l 537 621 b 497 644 528 636 515 644 l 414 644 b 391 605 389 644 379 628 l 530 355 b 530 345 532 351 532 348 l 391 95 b 414 56 379 72 389 56 z "},"*":{"ha":758,"x_min":0,"x_max":0,"o":"m 90 576 l 278 529 b 282 519 283 528 285 523 l 140 352 b 146 306 126 335 129 318 l 213 258 b 259 266 231 245 247 249 l 375 452 b 385 452 378 457 383 457 l 503 266 b 548 258 514 249 530 244 l 614 307 b 620 354 631 321 634 336 l 479 520 b 482 530 475 524 477 529 l 670 576 b 692 616 692 581 698 596 l 667 693 b 625 713 660 713 645 722 l 446 641 b 438 648 441 639 438 643 l 453 864 b 422 898 455 886 443 898 l 338 898 b 307 864 317 898 306 886 l 322 646 b 314 640 322 641 319 638 l 135 713 b 92 693 115 721 98 713 l 67 616 b 90 576 61 596 69 581 z "},"†":{"ha":758,"x_min":0,"x_max":0,"o":"m 540 754 l 453 754 b 446 761 448 754 446 758 l 446 864 b 413 896 446 884 433 896 l 345 896 b 312 864 324 896 312 885 l 312 761 b 304 754 312 756 308 754 l 218 754 b 186 721 198 754 186 741 l 186 676 b 218 643 186 655 197 643 l 306 643 b 313 635 309 643 313 639 l 328 308 b 361 277 330 288 341 277 l 398 277 b 431 308 418 277 429 288 l 444 635 b 452 643 444 639 448 643 l 540 643 b 573 676 561 643 573 655 l 573 721 b 540 754 573 741 562 754 z "},"‡":{"ha":758,"x_min":0,"x_max":0,"o":"m 361 277 l 398 277 b 431 308 418 277 429 288 l 437 453 b 444 461 437 457 441 461 l 540 461 b 573 494 561 461 573 473 l 573 532 b 540 564 573 552 561 564 l 449 564 b 442 572 444 564 442 567 l 446 653 b 453 660 446 657 449 660 l 540 660 b 573 693 561 660 573 673 l 573 731 b 540 764 573 751 562 764 l 453 764 b 446 771 448 764 446 768 l 446 864 b 413 896 446 884 433 896 l 345 896 b 312 864 324 896 312 885 l 312 771 b 304 764 312 766 308 764 l 218 764 b 186 731 198 764 186 751 l 186 693 b 218 660 186 673 198 660 l 304 660 b 312 653 308 660 312 657 l 317 572 b 309 564 317 567 314 564 l 218 564 b 186 532 198 564 186 552 l 186 494 b 218 461 186 473 197 461 l 313 461 b 321 453 317 461 321 457 l 328 308 b 361 277 330 288 341 277 z "},".":{"ha":758,"x_min":0,"x_max":0,"o":"m 380 -11 b 494 102 441 -11 494 40 b 380 216 494 163 441 216 b 265 102 318 216 265 163 b 380 -11 265 40 318 -11 z "},",":{"ha":758,"x_min":0,"x_max":0,"o":"m 213 -181 l 237 -222 b 283 -236 247 -241 264 -245 b 491 80 441 -154 491 -54 b 374 215 491 165 443 215 b 259 110 307 215 259 173 b 343 15 259 66 283 27 b 350 8 347 14 350 11 b 227 -136 350 -40 317 -91 b 213 -181 207 -146 202 -162 z "},":":{"ha":758,"x_min":0,"x_max":0,"o":"m 380 486 b 494 600 441 486 494 538 b 380 713 494 660 441 713 b 265 600 318 713 265 660 b 380 486 265 538 318 486 z m 265 102 b 380 -11 265 40 318 -11 b 494 102 441 -11 494 40 b 380 216 494 163 441 216 b 265 102 318 216 265 163 z "},";":{"ha":758,"x_min":0,"x_max":0,"o":"m 380 486 b 494 600 441 486 494 538 b 380 713 494 660 441 713 b 265 600 318 713 265 660 b 380 486 265 538 318 486 z m 213 -181 l 237 -222 b 283 -236 247 -241 264 -245 b 491 80 441 -154 491 -54 b 374 215 491 165 443 215 b 259 110 307 215 259 173 b 343 15 259 66 283 27 b 350 8 347 14 350 11 b 227 -136 350 -40 317 -91 b 213 -181 207 -146 202 -162 z "},"…":{"ha":758,"x_min":0,"x_max":0,"o":"m 126 -6 b 216 100 173 -6 216 43 b 126 205 216 155 173 205 b 37 100 78 205 37 155 b 126 -6 37 43 78 -6 z m 288 100 b 379 -6 288 43 330 -6 b 467 100 426 -6 467 43 b 379 205 467 155 426 205 b 288 100 330 205 288 155 z m 543 100 b 633 -6 543 43 585 -6 b 722 100 681 -6 722 43 b 633 205 722 155 681 205 b 543 100 585 205 543 155 z "},"!":{"ha":758,"x_min":0,"x_max":0,"o":"m 348 335 l 410 335 b 444 366 431 335 443 346 l 458 609 l 458 864 b 426 896 458 884 446 896 l 332 896 b 299 864 312 896 299 884 l 299 609 l 314 366 b 348 335 316 345 328 335 z m 268 97 b 379 -13 268 38 319 -13 b 487 97 437 -13 487 38 b 379 207 487 157 437 207 b 268 97 319 207 268 157 z "},"¡":{"ha":758,"x_min":0,"x_max":0,"o":"m 314 335 l 299 92 l 299 -163 b 332 -196 299 -183 312 -196 l 426 -196 b 458 -163 446 -196 458 -183 l 458 92 l 444 335 b 410 366 443 355 431 366 l 348 366 b 314 335 328 366 316 356 z m 268 604 b 379 494 268 544 319 494 b 487 604 437 494 487 544 b 379 713 487 663 437 713 b 268 604 319 713 268 663 z "},"?":{"ha":758,"x_min":0,"x_max":0,"o":"m 298 330 l 365 333 b 394 370 386 335 396 347 l 394 389 b 482 480 394 424 409 446 b 639 691 574 521 639 569 b 394 912 639 826 553 912 b 160 851 307 912 229 890 b 148 807 141 841 138 824 l 183 739 b 229 729 193 720 210 716 b 391 787 289 769 338 787 b 492 692 455 787 492 747 b 410 580 492 639 472 609 b 250 408 285 521 250 486 b 260 355 250 389 254 371 b 298 330 266 336 279 328 z m 229 97 b 340 -13 229 38 280 -13 b 448 97 398 -13 448 38 b 340 207 448 157 398 207 b 229 97 280 207 229 157 z "},"¿":{"ha":758,"x_min":0,"x_max":0,"o":"m 460 371 l 393 367 b 364 331 371 366 361 354 l 364 312 b 275 221 364 277 348 255 b 119 10 183 179 119 131 b 364 -211 119 -125 205 -211 b 597 -150 451 -211 529 -189 b 610 -106 616 -140 620 -124 l 574 -38 b 529 -28 564 -19 548 -15 b 366 -86 468 -68 419 -86 b 265 9 303 -86 265 -47 b 347 121 265 62 285 92 b 508 293 472 179 508 215 b 497 346 508 312 504 330 b 460 371 491 365 479 372 z m 309 604 b 418 494 309 544 360 494 b 529 604 477 494 529 544 b 418 713 529 663 477 713 b 309 604 360 713 309 663 z "},"/":{"ha":758,"x_min":0,"x_max":0,"o":"m 201 -237 l 282 -237 b 317 -208 301 -237 312 -229 l 595 962 b 566 999 600 985 588 999 l 486 999 b 451 970 467 999 456 990 l 172 -201 b 201 -237 167 -223 178 -237 z "},"\\":{"ha":758,"x_min":0,"x_max":0,"o":"m 482 -237 l 562 -237 b 591 -201 585 -237 596 -223 l 313 970 b 278 999 308 990 297 999 l 198 999 b 169 962 176 999 164 985 l 447 -208 b 482 -237 452 -229 463 -237 z "},"⁄":{"ha":758,"x_min":0,"x_max":0,"o":"m 78 0 l 148 0 b 187 21 165 0 178 6 l 702 857 b 679 896 716 880 706 896 l 610 896 b 571 875 592 896 580 890 l 56 39 b 78 0 42 16 52 0 z "},"|":{"ha":758,"x_min":0,"x_max":0,"o":"m 333 -237 l 426 -237 b 458 -205 446 -237 458 -225 l 458 966 b 426 999 458 986 446 999 l 333 999 b 301 966 313 999 301 986 l 301 -205 b 333 -237 301 -225 312 -237 z "},"¦":{"ha":758,"x_min":0,"x_max":0,"o":"m 458 532 l 458 962 b 426 995 458 982 446 995 l 333 995 b 301 962 313 995 301 984 l 301 532 b 333 499 301 511 313 499 l 426 499 b 458 532 446 499 458 511 z m 333 -169 l 426 -169 b 458 -136 446 -169 458 -157 l 458 318 b 426 351 458 338 446 351 l 333 351 b 301 318 313 351 301 338 l 301 -136 b 333 -169 301 -157 312 -169 z "},"@":{"ha":758,"x_min":0,"x_max":0,"o":"m 451 -184 b 667 -134 533 -184 604 -164 b 679 -92 683 -126 687 -112 l 664 -51 b 621 -34 657 -30 640 -24 b 451 -73 569 -59 515 -73 b 172 351 357 -73 172 -56 b 412 744 172 626 277 744 b 582 557 484 744 556 707 b 577 554 583 551 582 549 b 482 593 552 582 523 593 b 299 331 380 593 299 505 b 496 73 299 141 385 73 b 718 398 645 73 718 165 b 410 855 718 747 580 855 b 45 352 220 855 45 705 b 451 -184 45 -141 307 -184 z m 429 331 b 491 492 429 437 453 492 b 591 413 521 492 562 484 b 593 403 593 409 593 407 b 499 173 593 218 566 173 b 429 331 456 173 429 234 z "},"&":{"ha":758,"x_min":0,"x_max":0,"o":"m 696 18 l 736 74 b 730 120 747 91 746 106 b 626 206 693 150 658 178 b 624 216 622 208 622 211 b 688 418 648 269 670 336 b 663 457 693 439 683 453 l 602 467 b 563 441 582 471 568 462 b 527 302 553 388 540 341 b 515 299 524 297 520 295 b 379 431 462 347 418 390 b 381 442 376 434 376 438 b 539 692 490 515 539 600 b 322 912 539 842 444 912 b 93 693 198 912 93 840 b 186 451 93 611 126 533 b 184 441 189 447 188 443 b 48 217 106 388 48 326 b 303 -15 48 51 176 -15 b 545 88 389 -15 473 6 b 557 90 549 92 553 92 l 649 11 b 696 18 665 -3 683 0 z m 188 226 b 254 361 188 292 212 327 b 264 360 258 364 260 364 b 452 181 316 303 379 244 b 453 169 456 177 457 173 b 312 100 409 119 360 100 b 188 226 241 100 188 148 z m 234 693 b 319 802 234 761 263 802 b 400 686 380 802 400 756 b 316 518 400 630 390 572 b 304 520 312 515 308 516 b 234 693 256 586 234 641 z "},"§":{"ha":758,"x_min":0,"x_max":0,"o":"m 380 -189 b 678 47 604 -189 678 -73 b 586 213 678 130 639 182 b 586 223 581 216 581 221 b 679 385 653 263 679 321 b 422 604 679 539 542 577 b 266 699 335 624 266 640 b 388 797 266 758 312 797 b 519 716 451 797 487 778 b 561 697 528 697 542 691 l 640 723 b 660 766 660 731 669 746 b 390 912 616 862 530 912 b 125 691 198 912 125 797 b 217 524 125 604 164 554 b 217 514 223 521 223 516 b 106 350 139 475 106 414 b 357 144 106 198 236 168 b 537 32 453 125 537 110 b 381 -74 537 -40 482 -74 b 229 19 311 -74 259 -40 b 187 39 220 39 207 47 l 111 13 b 91 -29 91 6 82 -10 b 380 -189 133 -128 231 -189 z m 246 366 b 352 475 246 414 284 451 b 364 476 357 476 361 477 b 543 365 461 456 543 441 b 427 269 543 312 504 282 l 426 269 b 419 270 426 269 423 269 b 246 366 318 292 246 307 z "},"¶":{"ha":758,"x_min":0,"x_max":0,"o":"m 100 621 b 341 346 100 441 186 355 b 372 378 361 345 372 356 l 372 765 b 380 773 372 770 375 773 l 475 773 b 482 765 480 773 482 770 l 482 33 b 515 0 482 13 495 0 l 592 0 b 625 33 612 0 625 11 l 625 864 b 592 896 625 884 614 896 l 357 896 b 100 621 192 896 100 812 z "},"·":{"ha":758,"x_min":0,"x_max":0,"o":"m 379 321 b 494 436 439 321 494 374 b 379 549 494 495 439 549 b 264 436 317 549 264 495 b 379 321 264 374 317 321 z "},"•":{"ha":758,"x_min":0,"x_max":0,"o":"m 379 285 b 534 442 463 285 534 357 b 379 597 534 527 463 597 b 222 442 294 597 222 527 b 379 285 222 357 294 285 z "},"+":{"ha":758,"x_min":0,"x_max":0,"o":"m 452 206 l 452 372 b 460 380 452 378 456 380 l 615 380 b 648 413 635 380 648 391 l 648 480 b 615 513 648 500 636 513 l 460 513 b 452 520 455 513 452 515 l 452 684 b 419 717 452 705 441 717 l 338 717 b 306 684 318 717 306 705 l 306 520 b 298 513 306 515 302 513 l 143 513 b 110 480 122 513 110 501 l 110 413 b 143 380 110 393 121 380 l 298 380 b 306 372 303 380 306 378 l 306 206 b 338 173 306 186 317 173 l 419 173 b 452 206 439 173 452 186 z "},"−":{"ha":758,"x_min":0,"x_max":0,"o":"m 630 510 l 126 510 b 93 477 106 510 93 497 l 93 407 b 126 374 93 386 105 374 l 630 374 b 663 407 650 374 663 386 l 663 477 b 630 510 663 497 652 510 z "},"±":{"ha":758,"x_min":0,"x_max":0,"o":"m 452 389 l 452 527 b 460 534 452 532 456 534 l 615 534 b 648 567 635 534 648 545 l 648 631 b 615 664 648 652 636 664 l 460 664 b 452 672 455 664 452 667 l 452 808 b 419 841 452 828 441 841 l 338 841 b 306 808 318 841 306 830 l 306 672 b 298 664 306 667 302 664 l 143 664 b 110 631 122 664 110 653 l 110 567 b 143 534 110 547 121 534 l 298 534 b 306 527 303 534 306 530 l 306 389 b 338 356 306 369 317 356 l 419 356 b 452 389 439 356 452 369 z m 143 120 l 615 120 b 648 153 635 120 648 131 l 648 220 b 615 253 648 240 635 253 l 143 253 b 110 220 122 253 110 241 l 110 153 b 143 120 110 133 121 120 z "},"÷":{"ha":758,"x_min":0,"x_max":0,"o":"m 378 85 b 484 192 434 85 484 134 b 378 297 484 249 434 297 b 271 192 321 297 271 249 b 378 85 271 134 321 85 z m 101 374 l 655 374 b 688 407 676 374 688 386 l 688 475 b 655 508 688 495 676 508 l 101 508 b 68 475 81 508 68 495 l 68 407 b 101 374 68 386 80 374 z m 271 681 b 378 573 271 622 321 573 b 484 681 434 573 484 622 b 378 787 484 737 434 787 b 271 681 321 787 271 737 z "},"×":{"ha":758,"x_min":0,"x_max":0,"o":"m 558 172 l 604 217 b 605 264 619 232 620 249 l 472 396 b 472 407 470 399 470 404 l 605 539 b 604 585 620 554 619 569 l 564 624 b 519 624 549 639 534 639 l 386 491 b 376 491 384 489 379 489 l 244 624 b 198 624 229 639 213 639 l 153 578 b 153 533 138 563 138 548 l 285 399 b 285 389 288 396 288 391 l 153 256 b 153 211 138 241 138 226 l 192 172 b 237 172 207 157 222 157 l 370 304 b 380 304 372 307 378 307 l 513 172 b 558 172 528 157 543 157 z "},"=":{"ha":758,"x_min":0,"x_max":0,"o":"m 625 667 l 134 667 b 101 634 114 667 101 654 l 101 563 b 134 530 101 543 112 530 l 625 530 b 658 563 645 530 658 543 l 658 634 b 625 667 658 654 646 667 z m 134 226 l 625 226 b 658 259 645 226 658 239 l 658 330 b 625 362 658 350 646 362 l 134 362 b 101 330 114 362 101 350 l 101 259 b 134 226 101 239 112 226 z "},"<":{"ha":758,"x_min":0,"x_max":0,"o":"m 76 462 l 76 364 b 95 324 76 347 81 335 b 212 242 129 298 170 269 l 585 13 b 624 35 607 -1 624 9 l 624 139 b 601 178 624 157 617 168 l 213 413 b 213 423 208 417 208 419 l 601 654 b 624 694 617 664 624 677 l 624 794 b 585 817 624 821 607 831 l 220 590 b 95 501 173 561 131 532 b 76 462 81 491 76 479 z "},">":{"ha":758,"x_min":0,"x_max":0,"o":"m 682 366 l 682 465 b 663 504 682 481 677 494 b 545 586 629 530 587 559 l 173 816 b 134 793 150 830 134 819 l 134 689 b 157 650 134 672 140 660 l 544 415 b 544 405 549 412 549 409 l 157 174 b 134 134 140 164 134 152 l 134 34 b 173 11 134 8 150 -3 l 538 239 b 663 327 585 268 626 297 b 682 366 677 337 682 350 z "},"¬":{"ha":758,"x_min":0,"x_max":0,"o":"m 643 255 l 643 533 b 610 566 643 553 630 566 l 146 566 b 114 533 126 566 114 554 l 114 466 b 146 433 114 446 125 433 l 486 433 b 494 426 491 433 494 429 l 494 255 b 527 222 494 235 506 222 l 610 222 b 643 255 630 222 643 234 z "},"$":{"ha":758,"x_min":0,"x_max":0,"o":"m 561 273 b 457 172 561 218 524 186 b 447 179 451 170 447 174 l 447 369 b 456 375 447 374 451 376 b 561 273 520 352 561 326 z m 124 105 b 341 49 179 78 260 54 b 350 42 346 49 350 45 l 350 -63 b 383 -96 350 -83 361 -96 l 414 -96 b 447 -63 434 -96 447 -85 l 447 45 b 455 54 447 49 449 53 b 691 290 620 76 691 165 b 453 515 691 431 576 479 b 447 524 449 518 447 520 l 447 722 b 455 729 447 727 449 730 b 578 687 497 722 535 708 b 622 703 598 677 615 683 l 644 763 b 625 806 652 782 645 798 b 455 847 573 826 518 841 b 447 855 449 847 447 851 l 447 951 b 414 984 447 971 436 984 l 383 984 b 350 951 362 984 350 972 l 350 856 b 342 848 350 852 347 848 b 104 638 182 833 104 746 b 343 407 104 495 208 446 b 350 399 347 405 350 403 l 350 174 b 342 168 350 169 347 167 b 172 223 283 176 220 198 b 129 207 153 234 136 229 l 107 148 b 124 105 101 129 106 114 z m 235 644 b 336 731 235 687 268 721 b 350 725 345 732 350 730 l 350 557 b 341 551 350 552 346 549 b 235 644 270 574 235 597 z "},"¢":{"ha":758,"x_min":0,"x_max":0,"o":"m 588 577 l 665 602 b 686 644 686 609 694 624 b 458 802 648 725 573 788 b 451 811 453 803 451 807 l 451 951 b 418 984 451 971 439 984 l 386 984 b 354 951 366 984 354 971 l 354 809 b 346 801 354 806 351 802 b 82 448 184 775 82 641 b 346 95 82 255 184 120 b 354 86 351 93 354 90 l 354 -63 b 386 -96 354 -83 365 -96 l 418 -96 b 451 -63 438 -96 451 -85 l 451 85 b 458 93 451 88 453 92 b 684 235 556 105 636 152 b 668 278 696 255 688 270 l 591 306 b 549 287 571 313 558 306 b 460 213 527 245 496 223 b 451 220 455 212 451 215 l 451 676 b 460 682 451 681 455 683 b 547 597 499 669 528 640 b 588 577 556 578 569 571 z m 229 448 b 347 678 229 564 274 649 b 354 672 351 679 354 677 l 354 225 b 345 220 354 220 350 217 b 229 448 273 249 229 333 z "},"£":{"ha":758,"x_min":0,"x_max":0,"o":"m 139 385 l 221 385 b 230 378 225 385 229 383 b 235 319 232 357 235 337 b 130 121 235 210 179 158 b 110 82 116 111 110 100 l 110 33 b 143 0 110 13 121 0 l 644 0 b 677 33 664 0 677 13 l 677 93 b 644 126 677 114 664 126 l 313 126 b 309 135 307 126 304 130 b 390 322 343 163 390 225 b 386 378 390 340 389 357 b 394 385 385 383 389 385 l 588 385 b 621 418 609 385 621 398 l 621 476 b 588 509 621 496 610 509 l 357 509 b 348 515 354 509 350 511 b 318 669 327 581 318 631 b 431 783 318 768 378 783 b 537 725 467 783 503 766 b 583 717 551 708 567 705 l 650 765 b 657 811 668 778 672 794 b 427 912 600 876 530 912 b 167 679 298 912 167 867 b 191 518 167 635 174 581 b 184 509 192 513 189 509 l 139 509 b 106 476 119 509 106 496 l 106 418 b 139 385 106 398 119 385 z "},"¤":{"ha":758,"x_min":0,"x_max":0,"o":"m 379 251 b 452 263 404 251 429 255 b 461 259 456 264 458 261 l 538 167 b 583 162 551 150 567 149 l 635 201 b 639 247 652 213 653 231 l 561 335 b 559 345 558 338 557 341 b 587 451 577 376 587 412 b 559 556 587 490 577 525 b 561 566 557 559 558 562 l 639 654 b 635 701 653 670 652 688 l 583 740 b 538 735 566 754 551 751 l 460 640 b 449 638 457 638 453 636 b 379 648 428 644 404 648 b 308 638 354 648 330 644 b 298 640 304 636 301 638 l 220 735 b 174 740 207 751 192 754 l 122 699 b 119 653 106 687 105 669 l 196 567 b 197 557 198 563 199 561 b 167 451 178 527 167 491 b 197 343 167 410 178 374 b 196 333 199 340 198 337 l 119 247 b 122 201 105 231 106 213 l 174 162 b 220 167 192 148 207 150 l 297 259 b 307 261 299 261 303 263 b 379 251 330 255 354 251 z m 277 451 b 379 554 277 509 323 554 b 479 451 436 554 479 508 b 379 347 479 396 436 347 b 277 451 323 347 277 395 z "},"¥":{"ha":758,"x_min":0,"x_max":0,"o":"m 636 295 l 471 295 b 463 303 466 295 463 298 l 463 312 b 466 322 463 314 465 319 l 492 380 b 501 386 494 384 497 386 l 636 386 b 669 419 657 386 669 398 l 669 461 b 636 494 669 481 657 494 l 554 494 b 548 503 549 494 545 496 l 710 859 b 684 896 720 881 708 896 l 609 896 b 569 871 591 896 577 889 l 394 479 b 384 479 391 473 386 473 l 206 871 b 168 896 198 889 186 896 l 78 896 b 54 857 53 896 43 880 l 226 503 b 220 494 229 496 225 494 l 144 494 b 111 461 124 494 111 482 l 111 419 b 144 386 111 399 124 386 l 275 386 b 284 381 279 386 283 385 l 314 317 b 317 307 316 314 317 309 l 317 303 b 309 295 317 298 313 295 l 144 295 b 111 263 124 295 111 284 l 111 222 b 144 189 111 202 124 189 l 309 189 b 317 182 314 189 317 186 l 317 33 b 350 0 317 13 328 0 l 431 0 b 463 33 451 0 463 13 l 463 182 b 471 189 463 187 467 189 l 636 189 b 669 222 657 189 669 201 l 669 263 b 636 295 669 283 657 295 z "},"ƒ":{"ha":758,"x_min":0,"x_max":0,"o":"m 643 489 l 442 489 b 434 496 437 489 434 491 l 448 722 b 532 836 452 792 477 836 b 614 812 562 836 587 827 b 658 824 633 802 648 804 l 691 888 b 677 932 701 907 696 923 b 520 966 631 952 581 966 b 304 740 380 966 313 885 l 289 496 b 282 489 289 492 285 489 l 159 489 b 126 456 139 489 126 477 l 126 396 b 159 364 126 376 138 364 l 274 364 b 282 356 279 364 282 361 l 256 -56 b 177 -170 253 -129 227 -170 b 98 -149 148 -170 122 -162 b 54 -162 80 -139 64 -143 l 23 -225 b 37 -269 14 -244 18 -260 b 188 -301 74 -288 122 -301 b 400 -77 332 -301 393 -212 l 427 356 b 434 364 427 360 431 364 l 643 364 b 676 396 663 364 676 375 l 676 456 b 643 489 676 476 663 489 z "},"^":{"ha":758,"x_min":0,"x_max":0,"o":"m 537 254 l 615 254 b 639 293 640 254 652 270 l 480 574 b 428 657 463 605 443 634 b 389 677 418 670 407 677 l 371 677 b 332 657 354 677 341 670 b 282 577 317 634 298 606 l 120 293 b 143 254 107 270 117 254 l 221 254 b 260 278 239 254 251 261 l 374 495 b 384 495 376 501 381 501 l 497 278 b 537 254 506 261 519 254 z "},"~":{"ha":758,"x_min":0,"x_max":0,"o":"m 145 412 l 193 412 b 227 444 213 412 223 423 b 283 505 235 494 259 505 b 492 408 331 505 395 408 b 657 590 587 408 645 456 b 624 625 658 612 645 625 l 576 625 b 543 591 556 625 545 614 b 490 529 537 539 514 529 b 279 628 441 529 372 628 b 114 447 191 628 126 576 b 145 412 111 424 124 412 z "},"`":{"ha":758,"x_min":0,"x_max":0,"o":"m 549 553 l 418 871 b 380 896 410 888 399 896 l 242 896 b 218 857 217 896 207 880 l 386 539 b 426 515 395 524 408 515 l 524 515 b 549 553 548 515 558 530 z "},"©":{"ha":758,"x_min":0,"x_max":0,"o":"m 378 76 b 130 449 229 76 130 225 b 378 822 130 674 229 822 b 628 449 529 822 628 674 b 378 76 628 225 529 76 z m 29 449 b 378 -15 29 170 168 -15 b 729 449 590 -15 729 170 b 378 912 729 727 590 912 b 29 449 168 912 29 727 z m 226 449 b 389 207 226 302 290 207 b 523 318 449 207 497 244 b 499 359 530 340 520 355 l 466 364 b 427 336 446 367 433 357 b 389 294 419 304 407 294 b 332 449 355 294 332 356 b 389 602 332 542 355 602 b 423 554 405 602 415 587 b 461 525 427 532 441 523 l 497 530 b 524 569 519 534 530 548 b 389 691 501 648 458 691 b 226 449 290 691 226 595 z "},"®":{"ha":758,"x_min":0,"x_max":0,"o":"m 378 303 b 639 607 532 303 639 412 b 378 912 639 802 532 912 b 117 607 226 912 117 802 b 378 303 117 412 226 303 z m 196 607 b 378 837 196 758 270 837 b 561 607 487 837 561 758 b 378 378 561 457 487 378 b 196 607 270 378 196 457 z m 309 465 l 322 465 b 355 497 342 465 355 477 l 355 547 b 362 554 355 552 357 554 l 375 554 b 384 548 379 554 383 553 l 405 491 b 443 465 412 473 424 465 l 456 465 b 480 503 480 465 489 480 l 455 566 b 457 576 453 571 455 573 b 490 658 479 592 490 619 b 383 755 490 725 451 755 l 309 755 b 277 722 289 755 277 744 l 277 497 b 309 465 277 477 289 465 z m 355 625 l 355 686 b 362 693 355 691 357 693 l 376 693 b 408 658 399 693 408 682 b 376 617 408 629 399 617 l 362 617 b 355 625 357 617 355 620 z "}}}
